<?xml version="1.0" encoding="UTF-8"?>
<svg id="Layer_1" data-name="Layer 1" xmlns="http://www.w3.org/2000/svg" viewBox="0 0 512 512">
  <defs>
    <style>
      .cls-1, .cls-2 {
        fill: none;
        stroke: #1d1a3a;
        stroke-miterlimit: 10;
      }

      .cls-3 {
        fill: #fff;
      }

      .cls-3, .cls-4, .cls-5, .cls-6, .cls-7, .cls-8, .cls-9, .cls-10 {
        fill-rule: evenodd;
      }

      .cls-4 {
        fill: #62626b;
      }

      .cls-2 {
        stroke-width: .75px;
      }

      .cls-5 {
        fill: #5391cc;
      }

      .cls-6 {
        fill: #6db8da;
      }

      .cls-7 {
        fill: #5f5d65;
      }

      .cls-8 {
        fill: #a5a8ae;
      }

      .cls-9 {
        fill: #ced4d9;
      }

      .cls-11, .cls-10 {
        fill: #383540;
      }
    </style>
  </defs>
  <path class="cls-9" d="M256,482.41c92.02,0,167.07-8.41,167.07-18.73s-75.05-18.73-167.07-18.73-167.07,8.41-167.07,18.73,75.05,18.73,167.07,18.73Z"/>
  <g>
    <g>
      <path class="cls-1" d="M246.03,153.04c-3.41-1.53-7.15-2.32-10.89-2.32-7.57.01-10.8,6.29-4.95,11.69,3.02,2.77,7.21,4.59,11.11,5.72,1.41.41,11.34,2.27,9.11-1.67-.37-.66-1.07-1.06-1.74-1.4-4.05-2.05-8.6-3.08-13.13-3-3.66.07-7.93,1.34-8.69,5.22-.4,2.01.43,4.12,1.91,5.54,3.25,3.12,7.9,4.7,12.37,3.98.96-.15,4.02-.46,3.21-2.09-.48-.96-2.86-1.48-3.81-1.73-3.9-1.05-8.03-.67-11.78.84-1.78.72-3.59,1.85-4.17,3.68-2.02,6.34,7.51,9.91,12.12,10.65,2.25.36,4.43-1.34,3.42-3.71-1.54-3.6-6.82-3.54-9.9-2.51-3.71,1.24-6.87,4.3-7.79,8.1s.69,8.2,4.08,10.15"/>
      <path class="cls-2" d="M287.74,166.13c-2.8-1.25-5.87-1.91-8.94-1.9-6.21.01-8.86,5.17-4.06,9.59,2.48,2.28,5.92,3.77,9.12,4.69,1.16.34,9.31,1.87,7.48-1.37-.31-.54-.87-.87-1.43-1.15-3.32-1.68-7.06-2.53-10.78-2.46-3,.06-6.51,1.1-7.13,4.29-.32,1.65.35,3.38,1.57,4.55,3.13,3.01,7.86,4.1,12.02,2.88.22-.06.46-.15.55-.36.14-.3-.12-.64-.37-.86-3.69-3.28-9.94-2.73-13.4.79-4.55,4.63-3.19,10.98-1.18,16.41"/>
    </g>
    <g>
      <g>
        <rect class="cls-11" x="239.56" y="276.46" width="32.88" height="61.4" transform="translate(-3.81 3.21) rotate(-.71)"/>
        <path class="cls-8" d="M256,335.78c28.98,0,52.48,20.65,52.48,38.45,0,9.33-6.45,12.26-16.77,12.94-8.24.54-70.28.37-75.59-.44-7.85-1.2-12.6-4.5-12.6-12.5,0-17.8,23.5-38.45,52.48-38.45Z"/>
        <path class="cls-9" d="M256,335.78c22.55,0,41.78,12.5,49.2,26.43-3.14,2.92-8.4,4.01-15.13,4.3-14.81.63-55.16.78-69.36-.06-6.15-.36-10.97-1.49-13.92-4.24,7.42-13.93,26.65-26.43,49.2-26.43Z"/>
        <path class="cls-3" d="M256,339.9c-12.7,0-22.99,3.75-22.99,8.37s10.3,8.37,22.99,8.37,23-3.75,23-8.37-10.29-8.37-23-8.37Z"/>
      </g>
      <g>
        <g>
          <g>
            <path class="cls-9" d="M125.26,419.61c0-11.66,8.31-21.11,15.47-21.11s4.95,9.45,4.95,21.11,2.21,21.11-4.95,21.11-15.47-9.45-15.47-21.11Z"/>
            <path class="cls-9" d="M386.74,419.61c0-11.66-8.31-21.11-15.47-21.11s-4.95,9.45-4.95,21.11-2.21,21.11,4.95,21.11,15.47-9.45,15.47-21.11Z"/>
          </g>
          <path class="cls-11" d="M161.05,373.87h189.9c12.55,0,22.74,10.19,22.74,22.74v45.98c0,12.55-10.19,22.74-22.74,22.74h-189.9c-12.55,0-22.74-10.19-22.74-22.74v-45.98c0-12.55,10.19-22.74,22.74-22.74Z"/>
          <path class="cls-4" d="M156.37,391.31c-1.71,0-3.1-1.39-3.1-3.09s1.39-3.09,3.1-3.09h199.25c1.71,0,3.1,1.39,3.1,3.09s-1.39,3.09-3.1,3.09h-199.25Z"/>
          <path class="cls-4" d="M156.37,407.01c-1.71,0-3.1-1.39-3.1-3.1s1.39-3.09,3.1-3.09h199.25c1.71,0,3.1,1.39,3.1,3.09s-1.39,3.1-3.1,3.1h-199.25Z"/>
          <path class="cls-4" d="M156.37,422.7c-1.71,0-3.1-1.39-3.1-3.09s1.39-3.1,3.1-3.1h199.25c1.71,0,3.1,1.39,3.1,3.1s-1.39,3.09-3.1,3.09h-199.25Z"/>
          <path class="cls-4" d="M156.37,438.39c-1.71,0-3.1-1.39-3.1-3.09s1.39-3.1,3.1-3.1h199.25c1.71,0,3.1,1.39,3.1,3.1s-1.39,3.09-3.1,3.09h-199.25Z"/>
          <path class="cls-4" d="M156.37,454.09c-1.71,0-3.1-1.39-3.1-3.1s1.39-3.09,3.1-3.09h199.25c1.71,0,3.1,1.39,3.1,3.09s-1.39,3.1-3.1,3.1h-199.25Z"/>
          <path class="cls-8" d="M138.31,440.38v-15.29c-4.8-1.32-9.64-6.39-11.83-13.13-.77,2.37-1.22,4.95-1.22,7.64,0,10.36,6.56,18.98,13.05,20.77Z"/>
          <path class="cls-8" d="M373.69,425.09v15.29c6.49-1.79,13.05-10.41,13.05-20.77,0-2.7-.44-5.27-1.22-7.64-2.19,6.74-7.04,11.8-11.83,13.13Z"/>
        </g>
        <g>
          <g>
            <path class="cls-10" d="M158.59,461.15h12.39c2.06,0,3.74,1.68,3.74,3.74h0c0,2.06-1.68,3.74-3.74,3.74h-12.39c-2.06,0-3.74-1.68-3.74-3.74h0c0-2.06,1.68-3.74,3.74-3.74Z"/>
            <path class="cls-10" d="M184.66,461.15h12.39c2.06,0,3.74,1.68,3.74,3.74h0c0,2.06-1.68,3.74-3.74,3.74h-12.39c-2.06,0-3.74-1.68-3.74-3.74h0c0-2.06,1.68-3.74,3.74-3.74Z"/>
            <path class="cls-10" d="M210.72,461.15h12.39c2.05,0,3.74,1.68,3.74,3.74h0c0,2.06-1.68,3.74-3.74,3.74h-12.39c-2.06,0-3.74-1.68-3.74-3.74h0c0-2.06,1.68-3.74,3.74-3.74Z"/>
            <path class="cls-10" d="M236.78,461.15h12.39c2.06,0,3.74,1.68,3.74,3.74h0c0,2.06-1.68,3.74-3.74,3.74h-12.39c-2.06,0-3.74-1.68-3.74-3.74h0c0-2.06,1.68-3.74,3.74-3.74Z"/>
            <path class="cls-10" d="M262.84,461.15h12.39c2.06,0,3.74,1.68,3.74,3.74h0c0,2.06-1.68,3.74-3.74,3.74h-12.39c-2.06,0-3.74-1.68-3.74-3.74h0c0-2.06,1.68-3.74,3.74-3.74Z"/>
            <path class="cls-10" d="M288.9,461.15h12.39c2.05,0,3.74,1.68,3.74,3.74h0c0,2.06-1.68,3.74-3.74,3.74h-12.39c-2.05,0-3.74-1.68-3.74-3.74h0c0-2.06,1.68-3.74,3.74-3.74Z"/>
            <path class="cls-10" d="M314.96,461.15h12.39c2.06,0,3.74,1.68,3.74,3.74h0c0,2.06-1.68,3.74-3.74,3.74h-12.39c-2.06,0-3.74-1.68-3.74-3.74h0c0-2.06,1.68-3.74,3.74-3.74Z"/>
            <path class="cls-10" d="M341.02,461.15h12.39c2.06,0,3.74,1.68,3.74,3.74h0c0,2.06-1.68,3.74-3.74,3.74h-12.39c-2.06,0-3.74-1.68-3.74-3.74h0c0-2.06,1.68-3.74,3.74-3.74Z"/>
          </g>
          <g>
            <path class="cls-10" d="M158.59,370.58h12.39c2.06,0,3.74,1.68,3.74,3.74h0c0,2.06-1.68,3.74-3.74,3.74h-12.39c-2.06,0-3.74-1.68-3.74-3.74h0c0-2.05,1.68-3.74,3.74-3.74Z"/>
            <path class="cls-10" d="M184.66,370.58h12.39c2.06,0,3.74,1.68,3.74,3.74h0c0,2.06-1.68,3.74-3.74,3.74h-12.39c-2.06,0-3.74-1.68-3.74-3.74h0c0-2.05,1.68-3.74,3.74-3.74Z"/>
            <path class="cls-10" d="M210.72,370.58h12.39c2.05,0,3.74,1.68,3.74,3.74h0c0,2.06-1.68,3.74-3.74,3.74h-12.39c-2.06,0-3.74-1.68-3.74-3.74h0c0-2.05,1.68-3.74,3.74-3.74Z"/>
            <path class="cls-10" d="M236.78,370.58h12.39c2.06,0,3.74,1.68,3.74,3.74h0c0,2.06-1.68,3.74-3.74,3.74h-12.39c-2.06,0-3.74-1.68-3.74-3.74h0c0-2.05,1.68-3.74,3.74-3.74Z"/>
            <path class="cls-10" d="M262.84,370.58h12.39c2.06,0,3.74,1.68,3.74,3.74h0c0,2.06-1.68,3.74-3.74,3.74h-12.39c-2.06,0-3.74-1.68-3.74-3.74h0c0-2.05,1.68-3.74,3.74-3.74Z"/>
            <path class="cls-10" d="M288.9,370.58h12.39c2.05,0,3.74,1.68,3.74,3.74h0c0,2.06-1.68,3.74-3.74,3.74h-12.39c-2.05,0-3.74-1.68-3.74-3.74h0c0-2.05,1.68-3.74,3.74-3.74Z"/>
            <path class="cls-10" d="M314.96,370.58h12.39c2.06,0,3.74,1.68,3.74,3.74h0c0,2.06-1.68,3.74-3.74,3.74h-12.39c-2.06,0-3.74-1.68-3.74-3.74h0c0-2.05,1.68-3.74,3.74-3.74Z"/>
            <path class="cls-10" d="M341.02,370.58h12.39c2.06,0,3.74,1.68,3.74,3.74h0c0,2.06-1.68,3.74-3.74,3.74h-12.39c-2.06,0-3.74-1.68-3.74-3.74h0c0-2.05,1.68-3.74,3.74-3.74Z"/>
          </g>
        </g>
      </g>
    </g>
    <g>
      <g>
        <g>
          <path class="cls-10" d="M226.03,346.94c-1.54-5.24-5.06-9.36-9.5-11.78-4.42-2.41-9.78-3.13-15.03-1.59-5.24,1.54-9.36,5.06-11.78,9.49-2.41,4.42-3.14,9.78-1.59,15.03,1,3.4,2.8,6.3,5.11,8.56,2.43,2.37,5.48,4.08,8.82,4.97,1.7.45,3.49.68,5.3.65,1.73-.02,3.51-.29,5.3-.81l6.33,21.56c-3.76,1.11-7.58,1.66-11.36,1.71-3.89.05-7.72-.43-11.39-1.41-6.96-1.85-13.38-5.5-18.59-10.57-5.06-4.93-8.96-11.15-11.07-18.34-3.28-11.17-1.72-22.63,3.46-32.13,5.17-9.48,13.96-16.99,25.14-20.28,11.17-3.28,22.63-1.72,32.13,3.46,9.48,5.17,16.99,13.96,20.28,25.14l-21.56,6.33Z"/>
          <path class="cls-7" d="M201.51,333.57c-5.24,1.54-9.36,5.06-11.78,9.49-2.41,4.42-3.14,9.78-1.59,15.03l-21.56,6.33c-3.28-11.17-1.72-22.63,3.46-32.13,5.17-9.48,13.96-16.99,25.14-20.28l6.33,21.56Z"/>
        </g>
        <g>
          <path class="cls-8" d="M190.75,249.88c8.18-10.34,5.85-25.83-5.21-34.58-11.06-8.75-26.66-7.46-34.85,2.88-8.18,10.34-5.85,25.83,5.21,34.58,11.06,8.75,26.66,7.46,34.85-2.88Z"/>
          <path class="cls-9" d="M145.99,229.43c2.93-.39,5.93-.2,8.88.5,4.2,1,8.3,3.02,11.94,5.79,3.65,2.78,6.85,6.31,9.25,10.33,2.05,3.44,3.53,7.23,4.2,11.22.46-.16.91-.33,1.36-.51-.73-4.07-2.25-7.93-4.34-11.44-2.5-4.18-5.81-7.84-9.61-10.73-3.8-2.89-8.07-4.99-12.47-6.04-2.97-.71-6-.93-8.98-.58-.09.49-.17.97-.23,1.47Z"/>
        </g>
        <path class="cls-10" d="M152.4,240.51c-2.49,3.43-4.87,7.34-7,11.58-4.71,9.39-8.41,20.7-9.34,32.24-.98,12.23,1.08,24.78,8.09,35.93,5.16,8.2,12.91,15.47,23.98,21.03l9.58-18.97c-7.34-3.68-12.35-8.3-15.56-13.4-4.29-6.82-5.52-14.86-4.88-22.85.69-8.68,3.51-17.24,7.09-24.38,1.66-3.32,3.42-6.25,5.15-8.68,3.36-4.73-11.92-19.65-17.12-12.48Z"/>
        <path class="cls-9" d="M172.16,313.24l-18.48,27.54c-2.22,3.3-1.33,7.82,1.97,10.04h0c3.3,2.22,7.82,1.33,10.04-1.97l18.48-27.54c2.22-3.3,1.33-7.82-1.97-10.04h0c-3.3-2.22-7.82-1.33-10.04,1.97Z"/>
        <path class="cls-9" d="M135.88,294.99l-1.65.25c-2.72.41-4.6,2.96-4.19,5.68h0c.41,2.72,2.97,4.6,5.68,4.19l22.64-3.41c2.71-.41,4.6-2.97,4.19-5.68h0c-.17-1.1-.68-2.06-1.41-2.79.89-.91,1.43-2.16,1.41-3.52h0c-.01-1.07-.36-2.06-.95-2.87.77-.76,1.3-1.76,1.44-2.91h0c.13-1.03-.06-2.03-.5-2.89.7-.62,1.23-1.44,1.49-2.4h0c.73-2.65-.85-5.41-3.5-6.13l-22.08-6.04c-2.65-.72-5.41.85-6.13,3.5h0c-.59,2.14.33,4.35,2.1,5.51-2.04.41-3.7,2.08-3.98,4.26h0c-.31,2.39,1.15,4.62,3.35,5.37-2.35.42-4.13,2.5-4.11,4.97h0c.03,2.75,2.3,4.97,5.05,4.94h1.17Z"/>
        <path class="cls-8" d="M143.54,276.68c-2.04.41-3.7,2.08-3.98,4.26-.31,2.39,1.23,4.46,3.43,5.21-2.35.43-4.22,2.66-4.19,5.12.03,2.75,2.12,3.98,4.87,3.95h1.17s-1.65.24-1.65.24c-2.71.41-4.42,3.95-4.02,6.67.13.87.49,1.66,1,2.32l-4.44.67c-2.72.41-5.27-1.48-5.68-4.19s1.48-5.27,4.19-5.68l1.65-.25h-1.17c-2.75.04-5.02-2.18-5.05-4.93-.03-2.46,1.76-4.54,4.11-4.97-2.2-.75-3.65-2.98-3.35-5.37.28-2.17,1.94-3.85,3.98-4.26-1.77-1.15-2.68-3.37-2.1-5.51.72-2.65,3.48-4.22,6.13-3.5l5.63,1.54c-1.25.61-2.24,1.73-2.63,3.17-.59,2.14.33,4.35,2.1,5.51Z"/>
        <path class="cls-8" d="M159.58,294.38c.37-.03.64-.34.62-.71-.02-.37-.34-.64-.71-.62l-21.73,1.54c-.37.02-.64.34-.61.71.02.37.34.64.71.61l21.73-1.54Z"/>
        <path class="cls-8" d="M160.27,287.22c.37.02.68-.26.7-.63.02-.37-.26-.68-.63-.7l-24.28-1.19c-.37-.02-.68.26-.7.63-.02.37.26.68.63.7l24.28,1.19Z"/>
        <path class="cls-8" d="M160.44,281.37c.36.07.71-.16.78-.52.07-.36-.16-.71-.52-.78l-22.64-4.51c-.36-.07-.71.16-.78.52-.07.36.16.71.52.78l22.63,4.51Z"/>
        <path class="cls-3" d="M159.38,345c-.82,1.22-.5,2.87.72,3.7,1.22.82,2.87.5,3.7-.71l19.05-28.34c.83-1.22.5-2.87-.71-3.7-1.22-.82-2.87-.5-3.7.71l-19.05,28.34Z"/>
      </g>
      <g>
        <g>
          <path class="cls-10" d="M266.25,346.17c2.47-5.26,6.83-9.03,11.89-10.86,5.04-1.83,10.79-1.72,16.07.75,5.26,2.46,9.03,6.83,10.86,11.89,1.83,5.04,1.72,10.8-.75,16.07-1.6,3.42-3.96,6.18-6.76,8.17-2.94,2.1-6.42,3.41-10.08,3.81-1.87.2-3.78.15-5.68-.17-1.82-.3-3.65-.87-5.44-1.71l-10.13,21.66c3.78,1.77,7.7,2.97,11.67,3.64,4.08.68,8.19.79,12.21.35,7.62-.82,14.96-3.62,21.26-8.12,6.12-4.37,11.22-10.29,14.6-17.5,5.26-11.22,5.46-23.53,1.54-34.36-3.91-10.81-11.95-20.13-23.18-25.39-11.22-5.26-23.53-5.46-34.36-1.54-10.81,3.91-20.13,11.95-25.39,23.17l21.66,10.13Z"/>
          <path class="cls-7" d="M294.2,336.06c5.26,2.46,9.03,6.83,10.86,11.89,1.83,5.04,1.72,10.8-.75,16.07l21.66,10.13c5.26-11.22,5.46-23.53,1.54-34.36-3.91-10.81-11.95-20.13-23.18-25.39l-10.13,21.66Z"/>
        </g>
        <g>
          <path class="cls-8" d="M319.03,249.77c-6.94-12.2-1.99-28.11,11.06-35.53,13.05-7.42,29.25-3.55,36.19,8.66,6.94,12.2,1.99,28.11-11.06,35.53-13.05,7.42-29.25,3.54-36.19-8.66Z"/>
          <path class="cls-9" d="M369.41,235.48c-3.02-.89-6.21-1.16-9.42-.9-4.58.37-9.21,1.83-13.49,4.16-4.29,2.33-8.22,5.53-11.39,9.37-2.72,3.29-4.88,7.04-6.23,11.12-.46-.24-.91-.49-1.35-.76,1.42-4.16,3.64-7.98,6.41-11.33,3.3-3.99,7.38-7.31,11.84-9.73,4.46-2.43,9.3-3.95,14.09-4.34,3.24-.26,6.46,0,9.54.83.02.53.02,1.05,0,1.58Z"/>
        </g>
        <path class="cls-10" d="M360.88,246.1c2.06,4.01,3.94,8.5,5.5,13.31,3.44,10.64,5.51,23.13,4.62,35.42-.95,13.02-5.13,25.89-14.31,36.49-6.75,7.8-16.07,14.19-28.62,18.25l-7.02-21.5c8.32-2.69,14.33-6.74,18.53-11.59,5.61-6.48,8.2-14.74,8.82-23.25.67-9.24-.91-18.7-3.52-26.79-1.21-3.76-2.59-7.13-4.01-9.96-2.77-5.52,15.71-18.74,20.02-10.36Z"/>
        <path class="cls-9" d="M328.35,319.41l15,31.95c1.8,3.83.14,8.44-3.7,10.24h0c-3.83,1.8-8.44.14-10.24-3.7l-15-31.95c-1.8-3.83-.14-8.44,3.7-10.24h0c3.83-1.8,8.44-.14,10.24,3.7Z"/>
        <path class="cls-9" d="M369.46,306.07l1.7.53c2.79.87,4.36,3.86,3.49,6.65h0c-.87,2.79-3.86,4.36-6.65,3.49l-23.26-7.24c-2.79-.87-4.36-3.86-3.49-6.65h0c.35-1.13,1.05-2.05,1.94-2.7-.78-1.1-1.15-2.5-.92-3.93h0c.18-1.12.72-2.11,1.46-2.86-.68-.92-1.08-2.06-1.05-3.29h0c.03-1.1.39-2.12.99-2.96-.63-.76-1.06-1.71-1.18-2.77h0c-.34-2.9,1.77-5.55,4.67-5.89l24.2-2.79c2.9-.33,5.55,1.77,5.89,4.67h0c.27,2.35-1.05,4.53-3.1,5.45,2.08.76,3.56,2.79,3.5,5.12h0c-.06,2.56-1.95,4.67-4.39,5.1,2.4.82,3.94,3.3,3.52,5.89h0c-.47,2.88-3.22,4.85-6.1,4.38l-1.22-.2Z"/>
        <path class="cls-8" d="M364.36,285.58c2.08.76,3.56,2.79,3.5,5.12-.06,2.56-2.01,4.49-4.45,4.93,2.4.83,4,3.48,3.58,6.07-.47,2.88-2.88,3.84-5.76,3.37l-1.22-.2,1.7.53c2.79.87,4.02,4.87,3.15,7.66-.28.9-.78,1.67-1.42,2.28l4.57,1.42c2.79.87,5.78-.7,6.65-3.49s-.7-5.78-3.49-6.65l-1.7-.53,1.22.2c2.88.47,5.63-1.5,6.1-4.38.42-2.59-1.12-5.06-3.52-5.89,2.43-.43,4.32-2.54,4.39-5.1.06-2.33-1.42-4.36-3.5-5.12,2.05-.93,3.37-3.11,3.1-5.45-.33-2.9-2.98-5-5.89-4.67l-6.17.71c1.21.84,2.08,2.18,2.26,3.76.27,2.35-1.05,4.53-3.1,5.45Z"/>
        <path class="cls-8" d="M344.64,301.61c-.38-.09-.62-.46-.53-.85.08-.38.46-.62.84-.53l22.61,5.13c.38.08.62.46.53.84-.08.38-.46.62-.84.53l-22.61-5.13Z"/>
        <path class="cls-8" d="M345.07,293.96c-.39-.04-.67-.39-.63-.78.04-.39.39-.67.78-.64l25.73,2.67c.39.04.67.39.63.78-.04.39-.39.67-.78.63l-25.73-2.66Z"/>
        <path class="cls-8" d="M345.83,287.78c-.39.02-.72-.29-.74-.67-.02-.39.28-.72.67-.74l24.54-1.1c.39-.02.72.28.74.68.02.39-.28.72-.67.74l-24.54,1.09Z"/>
        <path class="cls-3" d="M336.67,354.88c.67,1.41.07,3.11-1.35,3.78-1.41.67-3.1.07-3.77-1.35l-15.46-32.89c-.67-1.41-.07-3.1,1.35-3.78,1.42-.67,3.11-.07,3.78,1.35l15.46,32.89Z"/>
      </g>
    </g>
    <g>
      <path class="cls-9" d="M256,316.37c49.45,0,89.53-42.57,89.53-79.26s-40.08-53.61-89.53-53.61-89.53,16.92-89.53,53.61,40.08,79.26,89.53,79.26Z"/>
      <path class="cls-10" d="M318.08,195.9c-16.1-8.37-37.97-12.4-62.08-12.4s-45.98,4.02-62.08,12.4c18.1,5.19,39.34,7.7,62.08,7.7s43.98-2.52,62.08-7.7Z"/>
      <g>
        <path class="cls-8" d="M185.13,201.34c6.45,10.61,17.03,18.56,29.65,23.83,2.75,1.15,5.6,2.17,8.52,3.07-.65,1.22-1.23,2.48-1.75,3.77-2.86-.89-5.65-1.91-8.36-3.04-13.22-5.52-24.36-13.87-31.31-25.06,1.04-.89,2.12-1.75,3.25-2.58h0ZM288.71,228.25c2.92-.89,5.77-1.92,8.52-3.07,12.61-5.27,23.19-13.22,29.65-23.83,1.13.83,2.21,1.69,3.25,2.58-6.95,11.18-18.09,19.53-31.31,25.06-2.7,1.13-5.49,2.14-8.36,3.04-.51-1.29-1.1-2.55-1.75-3.77Z"/>
        <path class="cls-8" d="M185.77,283.28c6.5-10.1,16.8-17.71,29.01-22.81,2.06-.86,4.18-1.65,6.34-2.37-.46-1.29-.85-2.61-1.17-3.95-2.3.76-4.56,1.6-6.75,2.52-12.52,5.23-23.17,12.99-30.17,23.29.88,1.12,1.8,2.23,2.74,3.32h0ZM290.89,258.11c2.16.72,4.28,1.51,6.34,2.37,12.21,5.1,22.5,12.71,29,22.81.94-1.09,1.86-2.2,2.74-3.32-7-10.3-17.65-18.06-30.17-23.29-2.2-.92-4.45-1.76-6.75-2.52-.32,1.35-.71,2.67-1.17,3.95Z"/>
      </g>
      <path class="cls-10" d="M256,277.68c17.65,0,32.04-14.39,32.04-32.04s-14.39-32.04-32.04-32.04-32.04,14.39-32.04,32.04,14.39,32.04,32.04,32.04Z"/>
      <path class="cls-6" d="M256,270.76c13.84,0,25.12-11.28,25.12-25.12s-11.28-25.12-25.12-25.12-25.12,11.28-25.12,25.12,11.28,25.12,25.12,25.12Z"/>
      <path class="cls-5" d="M256,264.6c10.44,0,18.95-8.52,18.95-18.96s-8.51-18.95-18.95-18.95-18.95,8.52-18.95,18.95,8.51,18.96,18.95,18.96Z"/>
      <path class="cls-3" d="M265.29,225.6c-5.79,0-10.48,4.69-10.48,10.48s4.69,10.48,10.48,10.48,10.48-4.69,10.48-10.48-4.69-10.48-10.48-10.48Z"/>
      <path class="cls-8" d="M256,210.15c-9.8,0-18.67,3.97-25.1,10.4-6.42,6.42-10.39,15.29-10.39,25.1s3.97,18.67,10.39,25.1c6.42,6.42,15.3,10.4,25.1,10.4s18.67-3.97,25.1-10.4c6.42-6.42,10.4-15.3,10.4-25.1s-3.97-18.67-10.4-25.1c-6.42-6.42-15.3-10.4-25.1-10.4h0ZM228.72,218.36c6.98-6.98,16.63-11.3,27.28-11.3s20.3,4.32,27.28,11.3c6.98,6.98,11.3,16.63,11.3,27.28s-4.32,20.3-11.3,27.28c-6.98,6.98-16.63,11.3-27.28,11.3s-20.3-4.32-27.28-11.3c-6.98-6.98-11.3-16.63-11.3-27.28s4.32-20.3,11.3-27.28Z"/>
      <path class="cls-3" d="M253.55,243.89c-2.17,0-3.93,1.76-3.93,3.93s1.76,3.93,3.93,3.93,3.93-1.76,3.93-3.93-1.76-3.93-3.93-3.93Z"/>
      <path class="cls-8" d="M256,311.76c23.83,0,43.15-9.88,43.15-18.37s-19.32,5.38-43.15,5.38-43.15-13.87-43.15-5.38,19.32,18.37,43.15,18.37Z"/>
    </g>
    <g>
      <g>
        <path class="cls-9" d="M306.87,12.4c63.3,16.24,101.45,80.67,90.11,124.86-11.34,44.19-67.88,51.4-131.17,35.15-63.29-16.24-109.38-49.79-98.04-93.98C179.11,34.25,243.58-3.84,306.87,12.4Z"/>
        <path class="cls-8" d="M301.93,31.67c11.11,2.85,21.6,7.73,30.97,14.24,9.42,6.55,17.7,14.74,24.32,24.18,5.87,8.37,10.69,18.25,13.17,28.56,2.17,9.05,2.54,18.43.23,27.44-.84,3.28-2.03,6.42-3.57,9.38-1.51,2.89-3.36,5.6-5.56,8.1-8.92,10.13-21.78,15.05-35.73,16.83-18.96,2.41-39.92-1-55.58-5.02-15.66-4.02-35.67-11.12-51.13-22.37-11.37-8.27-20.27-18.78-23.21-31.95-.72-3.25-1.04-6.51-.97-9.77.07-3.33.54-6.66,1.38-9.94,2.31-9,7.15-17.05,13.41-23.94,7.13-7.84,16.11-14.18,25.29-18.69,10.35-5.08,21.55-8.28,32.96-9.48,11.35-1.19,22.89-.42,34,2.43h0ZM331.74,47.58c-9.16-6.36-19.43-11.14-30.32-13.93-10.89-2.79-22.19-3.55-33.28-2.39-11.17,1.18-22.14,4.31-32.28,9.29-8.96,4.4-17.73,10.58-24.68,18.22-6.05,6.65-10.72,14.41-12.95,23.08-.81,3.14-1.26,6.31-1.32,9.48-.07,3.09.23,6.2.92,9.28,2.82,12.63,11.42,22.75,22.41,30.75,15.19,11.06,34.96,18.06,50.44,22.04,15.48,3.97,36.18,7.35,54.82,4.98,13.49-1.72,25.9-6.45,34.45-16.16,2.09-2.37,3.85-4.95,5.28-7.69,1.47-2.81,2.6-5.8,3.4-8.94,2.22-8.66,1.87-17.72-.23-26.46-2.41-10.04-7.12-19.68-12.85-27.86-6.49-9.25-14.59-17.27-23.82-23.68Z"/>
        <path class="cls-10" d="M299.6,40.73c43.14,11.07,69.44,53.87,61.96,83.03-7.48,29.16-45.91,33.63-89.06,22.56-43.14-11.07-74.67-33.5-67.19-62.65,7.48-29.16,51.14-54.01,94.28-42.94Z"/>
        <g>
          <path class="cls-8" d="M196.37,36.77c3.32,13.44,1.94,28.69-2.23,42.71-4.53,15.24-12.39,29.06-21.14,37.51-.35-.61-.69-1.23-1.01-1.85,8.34-8.23,15.83-21.53,20.2-36.24,3.98-13.36,5.36-27.85,2.44-40.67.58-.49,1.15-.98,1.74-1.46Z"/>
          <path class="cls-8" d="M392.81,89.09c-8.73,9.83-14.5,23.19-17.45,36.82-3.25,14.99-3.09,30.26.26,41.49-.58.39-1.18.76-1.78,1.13-3.59-11.62-3.83-27.51-.47-43.06,3.1-14.29,9.24-28.32,18.62-38.5.28.71.56,1.41.82,2.12Z"/>
        </g>
        <path class="cls-3" d="M305.9,16.18c28.31,7.26,49.04,21.78,47.14,29.19s-21.74-10.58-50.05-17.85-54.36-1.05-52.46-8.46,27.06-10.15,55.37-2.88Z"/>
      </g>
      <g>
        <path class="cls-3" d="M308.07,120.63c-.31-4.42-2.92-8.81-7.14-12.45-3.89-3.36-9.21-6.14-15.33-7.72s-12.12-1.69-17.16-.62c-5.44,1.16-9.84,3.75-12.24,7.47l4.93,3.17c1.52-2.36,4.59-4.05,8.52-4.89,4.18-.89,9.24-.77,14.49.58s9.74,3.68,12.97,6.47c3.05,2.63,4.92,5.6,5.12,8.39l5.85-.4Z"/>
        <g>
          <g>
            <path class="cls-6" d="M257.99,67.08l8.4,14.2c1.12,1.89.49,4.35-1.4,5.47-1.89,1.12-4.35.49-5.47-1.4l-8.4-14.2c-1.12-1.89-.49-4.35,1.4-5.47,1.89-1.12,4.35-.49,5.47,1.4Z"/>
            <path class="cls-6" d="M263.82,68.58l-14.2,8.4c-1.89,1.12-2.52,3.57-1.4,5.46,1.12,1.89,3.58,2.52,5.47,1.4l14.2-8.4c1.89-1.12,2.52-3.58,1.4-5.47-1.12-1.89-3.57-2.52-5.47-1.4Z"/>
          </g>
          <g>
            <path class="cls-6" d="M320.04,83.01l8.4,14.2c1.12,1.89.49,4.35-1.4,5.47-1.89,1.12-4.35.49-5.47-1.4l-8.4-14.2c-1.12-1.89-.49-4.35,1.4-5.47,1.89-1.12,4.35-.49,5.46,1.4Z"/>
            <path class="cls-6" d="M325.88,84.51l-14.2,8.4c-1.89,1.12-2.52,3.57-1.4,5.47,1.12,1.89,3.57,2.52,5.46,1.4l14.2-8.4c1.89-1.12,2.52-3.58,1.4-5.47-1.12-1.89-3.57-2.52-5.46-1.4Z"/>
          </g>
        </g>
      </g>
    </g>
  </g>
</svg>