<?xml version="1.0" encoding="UTF-8"?>
<svg id="Layer_1" data-name="Layer 1" xmlns="http://www.w3.org/2000/svg" viewBox="0 0 512 512">
  <defs>
    <style>
      .cls-1, .cls-2, .cls-3, .cls-4, .cls-5, .cls-6, .cls-7, .cls-8 {
        fill-rule: evenodd;
      }

      .cls-1, .cls-9 {
        fill: #fff;
      }

      .cls-2 {
        fill: #62626b;
      }

      .cls-3 {
        fill: #5391cc;
      }

      .cls-4 {
        fill: #6db8da;
      }

      .cls-5 {
        fill: #5f5d65;
      }

      .cls-6 {
        fill: #a5a8ae;
      }

      .cls-7 {
        fill: #ced4d9;
      }

      .cls-10, .cls-8 {
        fill: #383540;
      }
    </style>
  </defs>
  <path class="cls-7" d="M256,482.41c92.02,0,167.07-8.41,167.07-18.73s-75.05-18.73-167.07-18.73-167.07,8.41-167.07,18.73,75.05,18.73,167.07,18.73Z"/>
  <g>
    <g>
      <g>
        <rect class="cls-10" x="239.56" y="276.46" width="32.88" height="61.4" transform="translate(-3.81 3.21) rotate(-.71)"/>
        <path class="cls-6" d="M256,335.78c28.98,0,52.48,20.65,52.48,38.45,0,9.33-6.45,12.26-16.77,12.94-8.24.54-70.28.37-75.59-.44-7.85-1.2-12.6-4.5-12.6-12.5,0-17.8,23.5-38.45,52.48-38.45Z"/>
        <path class="cls-7" d="M256,335.78c22.55,0,41.78,12.5,49.2,26.43-3.14,2.92-8.4,4.01-15.13,4.3-14.81.63-55.16.78-69.36-.06-6.15-.36-10.97-1.49-13.92-4.24,7.42-13.93,26.65-26.43,49.2-26.43Z"/>
        <path class="cls-1" d="M256,339.9c-12.7,0-22.99,3.75-22.99,8.37s10.3,8.37,22.99,8.37,23-3.75,23-8.37-10.29-8.37-23-8.37Z"/>
      </g>
      <g>
        <g>
          <g>
            <path class="cls-7" d="M125.26,419.61c0-11.66,8.31-21.11,15.47-21.11s4.95,9.45,4.95,21.11,2.21,21.11-4.95,21.11-15.47-9.45-15.47-21.11Z"/>
            <path class="cls-7" d="M386.74,419.61c0-11.66-8.31-21.11-15.47-21.11s-4.95,9.45-4.95,21.11-2.21,21.11,4.95,21.11,15.47-9.45,15.47-21.11Z"/>
          </g>
          <path class="cls-10" d="M161.05,373.87h189.9c12.55,0,22.74,10.19,22.74,22.74v45.98c0,12.55-10.19,22.74-22.74,22.74h-189.9c-12.55,0-22.74-10.19-22.74-22.74v-45.98c0-12.55,10.19-22.74,22.74-22.74Z"/>
          <path class="cls-2" d="M156.37,391.31c-1.71,0-3.1-1.39-3.1-3.09s1.39-3.09,3.1-3.09h199.25c1.71,0,3.1,1.39,3.1,3.09s-1.39,3.09-3.1,3.09h-199.25Z"/>
          <path class="cls-2" d="M156.37,407.01c-1.71,0-3.1-1.39-3.1-3.1s1.39-3.09,3.1-3.09h199.25c1.71,0,3.1,1.39,3.1,3.09s-1.39,3.1-3.1,3.1h-199.25Z"/>
          <path class="cls-2" d="M156.37,422.7c-1.71,0-3.1-1.39-3.1-3.09s1.39-3.1,3.1-3.1h199.25c1.71,0,3.1,1.39,3.1,3.1s-1.39,3.09-3.1,3.09h-199.25Z"/>
          <path class="cls-2" d="M156.37,438.39c-1.71,0-3.1-1.39-3.1-3.09s1.39-3.1,3.1-3.1h199.25c1.71,0,3.1,1.39,3.1,3.1s-1.39,3.09-3.1,3.09h-199.25Z"/>
          <path class="cls-2" d="M156.37,454.09c-1.71,0-3.1-1.39-3.1-3.1s1.39-3.09,3.1-3.09h199.25c1.71,0,3.1,1.39,3.1,3.09s-1.39,3.1-3.1,3.1h-199.25Z"/>
          <path class="cls-6" d="M138.31,440.38v-15.29c-4.8-1.32-9.64-6.39-11.83-13.13-.77,2.37-1.22,4.95-1.22,7.64,0,10.36,6.56,18.98,13.05,20.77Z"/>
          <path class="cls-6" d="M373.69,425.09v15.29c6.49-1.79,13.05-10.41,13.05-20.77,0-2.7-.44-5.27-1.22-7.64-2.19,6.74-7.04,11.8-11.83,13.13Z"/>
        </g>
        <g>
          <g>
            <path class="cls-8" d="M158.59,461.15h12.39c2.06,0,3.74,1.68,3.74,3.74h0c0,2.06-1.68,3.74-3.74,3.74h-12.39c-2.06,0-3.74-1.68-3.74-3.74h0c0-2.06,1.68-3.74,3.74-3.74Z"/>
            <path class="cls-8" d="M184.66,461.15h12.39c2.06,0,3.74,1.68,3.74,3.74h0c0,2.06-1.68,3.74-3.74,3.74h-12.39c-2.06,0-3.74-1.68-3.74-3.74h0c0-2.06,1.68-3.74,3.74-3.74Z"/>
            <path class="cls-8" d="M210.72,461.15h12.39c2.05,0,3.74,1.68,3.74,3.74h0c0,2.06-1.68,3.74-3.74,3.74h-12.39c-2.06,0-3.74-1.68-3.74-3.74h0c0-2.06,1.68-3.74,3.74-3.74Z"/>
            <path class="cls-8" d="M236.78,461.15h12.39c2.06,0,3.74,1.68,3.74,3.74h0c0,2.06-1.68,3.74-3.74,3.74h-12.39c-2.06,0-3.74-1.68-3.74-3.74h0c0-2.06,1.68-3.74,3.74-3.74Z"/>
            <path class="cls-8" d="M262.84,461.15h12.39c2.06,0,3.74,1.68,3.74,3.74h0c0,2.06-1.68,3.74-3.74,3.74h-12.39c-2.06,0-3.74-1.68-3.74-3.74h0c0-2.06,1.68-3.74,3.74-3.74Z"/>
            <path class="cls-8" d="M288.9,461.15h12.39c2.05,0,3.74,1.68,3.74,3.74h0c0,2.06-1.68,3.74-3.74,3.74h-12.39c-2.05,0-3.74-1.68-3.74-3.74h0c0-2.06,1.68-3.74,3.74-3.74Z"/>
            <path class="cls-8" d="M314.96,461.15h12.39c2.06,0,3.74,1.68,3.74,3.74h0c0,2.06-1.68,3.74-3.74,3.74h-12.39c-2.06,0-3.74-1.68-3.74-3.74h0c0-2.06,1.68-3.74,3.74-3.74Z"/>
            <path class="cls-8" d="M341.02,461.15h12.39c2.06,0,3.74,1.68,3.74,3.74h0c0,2.06-1.68,3.74-3.74,3.74h-12.39c-2.06,0-3.74-1.68-3.74-3.74h0c0-2.06,1.68-3.74,3.74-3.74Z"/>
          </g>
          <g>
            <path class="cls-8" d="M158.59,370.58h12.39c2.06,0,3.74,1.68,3.74,3.74h0c0,2.06-1.68,3.74-3.74,3.74h-12.39c-2.06,0-3.74-1.68-3.74-3.74h0c0-2.05,1.68-3.74,3.74-3.74Z"/>
            <path class="cls-8" d="M184.66,370.58h12.39c2.06,0,3.74,1.68,3.74,3.74h0c0,2.06-1.68,3.74-3.74,3.74h-12.39c-2.06,0-3.74-1.68-3.74-3.74h0c0-2.05,1.68-3.74,3.74-3.74Z"/>
            <path class="cls-8" d="M210.72,370.58h12.39c2.05,0,3.74,1.68,3.74,3.74h0c0,2.06-1.68,3.74-3.74,3.74h-12.39c-2.06,0-3.74-1.68-3.74-3.74h0c0-2.05,1.68-3.74,3.74-3.74Z"/>
            <path class="cls-8" d="M236.78,370.58h12.39c2.06,0,3.74,1.68,3.74,3.74h0c0,2.06-1.68,3.74-3.74,3.74h-12.39c-2.06,0-3.74-1.68-3.74-3.74h0c0-2.05,1.68-3.74,3.74-3.74Z"/>
            <path class="cls-8" d="M262.84,370.58h12.39c2.06,0,3.74,1.68,3.74,3.74h0c0,2.06-1.68,3.74-3.74,3.74h-12.39c-2.06,0-3.74-1.68-3.74-3.74h0c0-2.05,1.68-3.74,3.74-3.74Z"/>
            <path class="cls-8" d="M288.9,370.58h12.39c2.05,0,3.74,1.68,3.74,3.74h0c0,2.06-1.68,3.74-3.74,3.74h-12.39c-2.05,0-3.74-1.68-3.74-3.74h0c0-2.05,1.68-3.74,3.74-3.74Z"/>
            <path class="cls-8" d="M314.96,370.58h12.39c2.06,0,3.74,1.68,3.74,3.74h0c0,2.06-1.68,3.74-3.74,3.74h-12.39c-2.06,0-3.74-1.68-3.74-3.74h0c0-2.05,1.68-3.74,3.74-3.74Z"/>
            <path class="cls-8" d="M341.02,370.58h12.39c2.06,0,3.74,1.68,3.74,3.74h0c0,2.06-1.68,3.74-3.74,3.74h-12.39c-2.06,0-3.74-1.68-3.74-3.74h0c0-2.05,1.68-3.74,3.74-3.74Z"/>
          </g>
        </g>
      </g>
    </g>
    <g>
      <g>
        <g>
          <path class="cls-8" d="M171.4,359.07c.84-5.4-.58-10.62-3.56-14.7-2.97-4.07-7.51-7.01-12.91-7.85-5.39-.84-10.62.58-14.7,3.56-4.07,2.97-7.01,7.51-7.85,12.91-.55,3.5-.16,6.89.97,9.92,1.19,3.18,3.21,6.03,5.85,8.26,1.35,1.14,2.86,2.1,4.51,2.85,1.58.72,3.3,1.24,5.14,1.53l-3.48,22.2c-3.87-.6-7.56-1.73-11-3.3-3.54-1.61-6.8-3.69-9.7-6.14-5.51-4.64-9.76-10.68-12.31-17.49-2.48-6.62-3.34-13.91-2.19-21.3,1.79-11.5,8.1-21.2,16.84-27.59,8.72-6.37,19.88-9.41,31.39-7.62,11.5,1.8,21.2,8.1,27.58,16.84,6.37,8.72,9.41,19.88,7.62,31.39l-22.2-3.48Z"/>
          <path class="cls-5" d="M154.92,336.51c-5.39-.84-10.62.58-14.7,3.56-4.07,2.97-7.01,7.51-7.85,12.91l-22.2-3.48c1.79-11.5,8.1-21.2,16.84-27.59,8.72-6.37,19.88-9.41,31.39-7.62l-3.48,22.2Z"/>
        </g>
        <g>
          <path class="cls-6" d="M180.89,256.22c11.82-5.87,16.31-20.86,10.04-33.5-6.27-12.63-20.93-18.12-32.75-12.26-11.82,5.87-16.31,20.86-10.04,33.5,6.27,12.63,20.94,18.12,32.75,12.26Z"/>
          <path class="cls-7" d="M149.13,218.64c2.82.9,5.45,2.35,7.81,4.24,3.38,2.7,6.22,6.27,8.33,10.33,2.12,4.07,3.5,8.63,3.96,13.28.39,3.99.1,8.05-.98,11.94.48.05.96.09,1.45.12,1.07-3.99,1.35-8.13.95-12.2-.48-4.84-1.91-9.58-4.11-13.8-2.2-4.23-5.17-7.96-8.71-10.78-2.39-1.91-5.03-3.4-7.87-4.36-.29.4-.57.81-.84,1.23Z"/>
        </g>
        <path class="cls-8" d="M150.21,231.39c-3.71,2.04-7.54,4.56-11.27,7.48-8.27,6.48-16.44,15.13-22.2,25.18-6.1,10.64-9.59,22.87-8.01,35.95,1.17,9.62,5.08,19.49,12.72,29.25l16.76-13.07c-5.07-6.46-7.63-12.77-8.36-18.76-.97-8,1.34-15.79,5.33-22.75,4.33-7.55,10.52-14.1,16.82-19.03,2.92-2.29,5.76-4.2,8.36-5.66,5.06-2.85-2.4-22.85-10.16-18.59Z"/>
        <path class="cls-7" d="M137.06,305.6l-28.46,17.02c-3.41,2.04-4.54,6.51-2.5,9.92h0c2.04,3.41,6.51,4.54,9.92,2.49l28.46-17.02c3.41-2.04,4.54-6.51,2.5-9.92h0c-2.04-3.41-6.51-4.54-9.92-2.49Z"/>
        <path class="cls-7" d="M112.02,273.62l-1.6-.48c-2.63-.79-5.43.72-6.21,3.35h0c-.79,2.63.72,5.43,3.35,6.21l21.93,6.57c2.63.79,5.43-.72,6.21-3.35h0c.32-1.06.26-2.15-.09-3.12,1.19-.45,2.21-1.34,2.78-2.58h0c.45-.97.55-2.02.36-3,1.02-.36,1.93-1.04,2.55-2.02h0c.56-.87.81-1.86.78-2.83.89-.26,1.72-.78,2.37-1.54h0c1.79-2.09,1.54-5.25-.55-7.04l-17.4-14.88c-2.09-1.79-5.25-1.54-7.04.55h0c-1.44,1.69-1.56,4.08-.45,5.88-2.02-.5-4.24.31-5.42,2.15h0c-1.3,2.03-.93,4.66.74,6.28-2.3-.62-4.81.5-5.83,2.74h0c-1.14,2.5-.04,5.47,2.46,6.62l1.06.49Z"/>
        <path class="cls-6" d="M126.76,260.33c-2.02-.5-4.24.31-5.42,2.15-1.3,2.03-.79,4.56.88,6.17-2.31-.62-4.95.61-5.97,2.85-1.14,2.5.22,4.5,2.72,5.65l1.06.49-1.6-.48c-2.63-.79-5.69,1.69-6.48,4.32-.25.85-.27,1.71-.09,2.52l-4.31-1.29c-2.63-.79-4.14-3.58-3.35-6.21s3.58-4.14,6.21-3.35l1.6.48-1.06-.49c-2.5-1.14-3.6-4.12-2.46-6.62,1.03-2.24,3.53-3.36,5.83-2.74-1.67-1.62-2.03-4.25-.74-6.28,1.18-1.85,3.4-2.66,5.42-2.15-1.11-1.8-.99-4.19.45-5.88,1.79-2.09,4.95-2.33,7.04-.55l4.43,3.79c-1.39.02-2.76.61-3.73,1.74-1.44,1.69-1.56,4.08-.45,5.88Z"/>
        <path class="cls-6" d="M133.71,283.18c.34.13.73-.04.86-.38.13-.34-.04-.73-.38-.86l-20.31-7.87c-.34-.13-.73.04-.86.38-.13.34.04.73.38.86l20.31,7.88Z"/>
        <path class="cls-6" d="M137.39,276.99c.32.17.73.05.9-.27.17-.33.05-.73-.27-.9l-21.45-11.43c-.32-.17-.73-.05-.9.27-.17.32-.05.73.27.9l21.45,11.43Z"/>
        <path class="cls-6" d="M140.05,271.78c.3.22.71.16.93-.14.22-.29.16-.71-.14-.93l-18.55-13.74c-.29-.22-.71-.16-.93.14-.22.29-.16.71.14.93l18.55,13.74Z"/>
        <path class="cls-1" d="M111.95,328.88c-1.26.75-1.68,2.39-.93,3.65.75,1.26,2.38,1.68,3.65.93l29.32-17.51c1.27-.75,1.68-2.38.93-3.65-.75-1.27-2.39-1.68-3.65-.93l-29.32,17.51Z"/>
      </g>
      <g>
        <g>
          <path class="cls-8" d="M345.06,367.03c-1.1-5.71.22-11.32,3.24-15.77,3.01-4.44,7.72-7.73,13.44-8.84,5.71-1.1,11.32.22,15.77,3.24,4.44,3.01,7.74,7.72,8.84,13.44.71,3.7.43,7.32-.66,10.58-1.15,3.43-3.19,6.53-5.92,9-1.39,1.26-2.97,2.34-4.69,3.2-1.65.82-3.46,1.44-5.41,1.82l4.53,23.48c4.1-.79,7.98-2.12,11.58-3.92,3.7-1.84,7.09-4.18,10.09-6.89,5.68-5.14,9.97-11.72,12.43-19.07,2.39-7.13,3.03-14.92,1.53-22.74-2.34-12.17-9.41-22.25-18.94-28.71-9.52-6.45-21.5-9.26-33.67-6.92-12.17,2.34-22.25,9.41-28.7,18.95-6.45,9.52-9.26,21.5-6.92,33.67l23.48-4.53Z"/>
          <path class="cls-5" d="M361.74,342.43c5.71-1.1,11.32.22,15.77,3.24,4.44,3.01,7.74,7.72,8.84,13.44l23.48-4.53c-2.34-12.17-9.41-22.25-18.94-28.71-9.52-6.45-21.5-9.26-33.67-6.92l4.53,23.48Z"/>
        </g>
        <g>
          <path class="cls-6" d="M331.1,258.01c-12.79-5.79-18.13-21.57-11.93-35.25,6.19-13.67,21.58-20.06,34.37-14.27,12.79,5.79,18.13,21.57,11.93,35.25-6.2,13.67-21.58,20.06-34.37,14.27Z"/>
          <path class="cls-7" d="M363.47,216.84c-2.97,1.06-5.71,2.71-8.15,4.8-3.49,2.99-6.38,6.9-8.47,11.3-2.1,4.41-3.4,9.31-3.71,14.28-.27,4.25.19,8.56,1.49,12.66-.51.07-1.02.13-1.54.18-1.29-4.2-1.74-8.6-1.47-12.94.32-5.17,1.67-10.26,3.85-14.83,2.18-4.58,5.2-8.66,8.85-11.79,2.47-2.12,5.22-3.8,8.21-4.93.33.41.64.84.93,1.27Z"/>
        </g>
        <path class="cls-8" d="M362.8,230.45c4.02,2.03,8.19,4.56,12.27,7.53,9.04,6.58,18.05,15.47,24.55,25.95,6.89,11.09,11.06,23.97,9.87,37.93-.88,10.27-4.67,20.92-12.43,31.58l-18.32-13.27c5.15-7.06,7.64-13.87,8.18-20.26.73-8.55-2.02-16.74-6.53-24-4.89-7.87-11.72-14.6-18.6-19.61-3.19-2.33-6.29-4.25-9.1-5.7-5.48-2.84,1.69-24.4,10.11-20.15Z"/>
        <path class="cls-7" d="M379.58,308.88l30.91,17.03c3.71,2.04,5.07,6.75,3.03,10.46h0c-2.04,3.71-6.75,5.07-10.46,3.03l-30.91-17.03c-3.71-2.04-5.07-6.75-3.03-10.46h0c2.04-3.71,6.75-5.07,10.46-3.03Z"/>
        <path class="cls-7" d="M405,273.93l1.69-.57c2.77-.94,5.8.56,6.74,3.33h0c.94,2.77-.56,5.8-3.33,6.74l-23.08,7.81c-2.77.94-5.8-.56-6.74-3.33h0c-.38-1.12-.36-2.28-.02-3.33-1.28-.43-2.4-1.35-3.05-2.64h0c-.51-1.02-.66-2.13-.5-3.18-1.09-.34-2.09-1.04-2.78-2.05h0c-.63-.91-.93-1.95-.94-2.98-.96-.25-1.86-.76-2.58-1.54h0c-1.98-2.15-1.83-5.53.32-7.51l17.94-16.48c2.15-1.98,5.53-1.83,7.51.32h0c1.6,1.74,1.81,4.28.7,6.23,2.13-.61,4.52.17,5.84,2.08h0c1.46,2.11,1.17,4.93-.55,6.71,2.43-.74,5.13.35,6.31,2.7h0c1.31,2.61.25,5.82-2.36,7.13l-1.11.56Z"/>
        <path class="cls-6" d="M388.82,260.35c2.13-.61,4.52.17,5.84,2.08,1.46,2.11,1.01,4.82-.7,6.6,2.43-.74,5.29.46,6.46,2.8,1.31,2.61-.07,4.8-2.68,6.11l-1.11.56,1.69-.57c2.77-.94,6.11,1.58,7.05,4.35.3.89.35,1.81.19,2.68l4.53-1.53c2.77-.94,4.27-3.97,3.33-6.74s-3.97-4.27-6.74-3.33l-1.69.57,1.11-.56c2.61-1.31,3.68-4.52,2.36-7.13-1.18-2.34-3.88-3.44-6.31-2.7,1.71-1.78,2-4.6.55-6.71-1.32-1.92-3.71-2.7-5.84-2.08,1.11-1.95.9-4.49-.7-6.23-1.98-2.15-5.36-2.3-7.51-.32l-4.57,4.2c1.48-.03,2.96.54,4.03,1.71,1.6,1.74,1.81,4.28.7,6.23Z"/>
        <path class="cls-6" d="M382.29,284.9c-.36.15-.77-.01-.93-.37-.15-.36.01-.77.37-.93l21.31-9.14c.36-.15.77.01.93.37.15.36-.01.77-.37.93l-21.31,9.14Z"/>
        <path class="cls-6" d="M378.14,278.47c-.34.2-.77.08-.97-.25-.2-.34-.08-.77.25-.97l22.39-12.97c.34-.2.77-.08.97.25.2.34.08.77-.26.97l-22.38,12.97Z"/>
        <path class="cls-6" d="M375.12,273.02c-.31.24-.75.19-1-.11-.24-.3-.19-.75.11-.99l19.21-15.31c.31-.24.75-.19.99.11.24.3.19.75-.11.99l-19.21,15.31Z"/>
        <path class="cls-1" d="M407.16,332.69c1.37.75,1.88,2.47,1.13,3.85-.75,1.37-2.47,1.88-3.85,1.13l-31.84-17.52c-1.38-.75-1.88-2.47-1.13-3.85.75-1.37,2.47-1.88,3.85-1.13l31.84,17.52Z"/>
      </g>
    </g>
    <g>
      <path class="cls-7" d="M256,316.37c49.45,0,89.53-42.57,89.53-79.26s-40.08-53.61-89.53-53.61-89.53,16.92-89.53,53.61,40.08,79.26,89.53,79.26Z"/>
      <path class="cls-8" d="M318.08,195.9c-16.1-8.37-37.97-12.4-62.08-12.4s-45.98,4.02-62.08,12.4c18.1,5.19,39.34,7.7,62.08,7.7s43.98-2.52,62.08-7.7Z"/>
      <g>
        <path class="cls-6" d="M185.13,201.34c6.45,10.61,17.03,18.56,29.65,23.83,2.75,1.15,5.6,2.17,8.52,3.07-.65,1.22-1.23,2.48-1.75,3.77-2.86-.89-5.65-1.91-8.36-3.04-13.22-5.52-24.36-13.87-31.31-25.06,1.04-.89,2.12-1.75,3.25-2.58h0ZM288.71,228.25c2.92-.89,5.77-1.92,8.52-3.07,12.61-5.27,23.19-13.22,29.65-23.83,1.13.83,2.21,1.69,3.25,2.58-6.95,11.18-18.09,19.53-31.31,25.06-2.7,1.13-5.49,2.14-8.36,3.04-.51-1.29-1.1-2.55-1.75-3.77Z"/>
        <path class="cls-6" d="M185.77,283.28c6.5-10.1,16.8-17.71,29.01-22.81,2.06-.86,4.18-1.65,6.34-2.37-.46-1.29-.85-2.61-1.17-3.95-2.3.76-4.56,1.6-6.75,2.52-12.52,5.23-23.17,12.99-30.17,23.29.88,1.12,1.8,2.23,2.74,3.32h0ZM290.89,258.11c2.16.72,4.28,1.51,6.34,2.37,12.21,5.1,22.5,12.71,29,22.81.94-1.09,1.86-2.2,2.74-3.32-7-10.3-17.65-18.06-30.17-23.29-2.2-.92-4.45-1.76-6.75-2.52-.32,1.35-.71,2.67-1.17,3.95Z"/>
      </g>
      <path class="cls-8" d="M256,277.68c17.65,0,32.04-14.39,32.04-32.04s-14.39-32.04-32.04-32.04-32.04,14.39-32.04,32.04,14.39,32.04,32.04,32.04Z"/>
      <path class="cls-4" d="M256,270.76c13.84,0,25.12-11.28,25.12-25.12s-11.28-25.12-25.12-25.12-25.12,11.28-25.12,25.12,11.28,25.12,25.12,25.12Z"/>
      <path class="cls-3" d="M256,264.6c10.44,0,18.95-8.52,18.95-18.96s-8.51-18.95-18.95-18.95-18.95,8.52-18.95,18.95,8.51,18.96,18.95,18.96Z"/>
      <path class="cls-1" d="M265.29,225.6c-5.79,0-10.48,4.69-10.48,10.48s4.69,10.48,10.48,10.48,10.48-4.69,10.48-10.48-4.69-10.48-10.48-10.48Z"/>
      <path class="cls-6" d="M256,210.15c-9.8,0-18.67,3.97-25.1,10.4-6.42,6.42-10.39,15.29-10.39,25.1s3.97,18.67,10.39,25.1c6.42,6.42,15.3,10.4,25.1,10.4s18.67-3.97,25.1-10.4c6.42-6.42,10.4-15.3,10.4-25.1s-3.97-18.67-10.4-25.1c-6.42-6.42-15.3-10.4-25.1-10.4h0ZM228.72,218.36c6.98-6.98,16.63-11.3,27.28-11.3s20.3,4.32,27.28,11.3c6.98,6.98,11.3,16.63,11.3,27.28s-4.32,20.3-11.3,27.28c-6.98,6.98-16.63,11.3-27.28,11.3s-20.3-4.32-27.28-11.3c-6.98-6.98-11.3-16.63-11.3-27.28s4.32-20.3,11.3-27.28Z"/>
      <path class="cls-1" d="M253.55,243.89c-2.17,0-3.93,1.76-3.93,3.93s1.76,3.93,3.93,3.93,3.93-1.76,3.93-3.93-1.76-3.93-3.93-3.93Z"/>
      <path class="cls-6" d="M256,311.76c23.83,0,43.15-9.88,43.15-18.37s-19.32,5.38-43.15,5.38-43.15-13.87-43.15-5.38,19.32,18.37,43.15,18.37Z"/>
    </g>
    <g>
      <g>
        <path class="cls-7" d="M255.76,30.64c65.66,0,118.9,53.18,118.9,99.02s-53.23,66.98-118.9,66.98-118.9-21.14-118.9-66.98S190.1,30.64,255.76,30.64Z"/>
        <path class="cls-6" d="M255.76,50.64c11.53,0,22.96,2.13,33.7,6.12,10.81,4.02,20.91,9.93,29.71,17.46,7.81,6.68,14.96,15.09,19.95,24.51,4.38,8.27,7.08,17.31,7.08,26.65,0,3.4-.37,6.76-1.14,10.02-.75,3.19-1.87,6.29-3.38,9.27-6.15,12.09-17.44,20.09-30.57,25.3-17.86,7.09-39.11,9-55.35,9s-37.5-1.91-55.35-9c-13.13-5.21-24.42-13.22-30.57-25.3-1.52-2.98-2.64-6.08-3.38-9.27-.76-3.26-1.13-6.61-1.13-10.02,0-9.34,2.7-18.38,7.08-26.65,4.98-9.41,12.14-17.82,19.95-24.51,8.8-7.53,18.91-13.44,29.71-17.46,10.75-4,22.18-6.12,33.7-6.12h0ZM288.75,58.67c-10.51-3.91-21.7-5.99-32.99-5.99s-22.48,2.08-32.99,5.99c-10.58,3.94-20.47,9.72-29.1,17.1-7.63,6.53-14.62,14.73-19.47,23.9-4.23,7.98-6.83,16.71-6.83,25.69,0,3.26.35,6.45,1.08,9.55.71,3.03,1.78,5.97,3.22,8.81,5.9,11.59,16.8,19.3,29.5,24.34,17.55,6.97,38.54,8.85,54.6,8.85s37.05-1.88,54.6-8.85c12.7-5.04,23.6-12.75,29.5-24.34,1.44-2.83,2.51-5.78,3.22-8.81.73-3.1,1.08-6.3,1.08-9.55,0-8.99-2.61-17.71-6.84-25.69-4.85-9.17-11.84-17.38-19.47-23.9-8.62-7.38-18.52-13.17-29.1-17.1Z"/>
        <path class="cls-8" d="M255.76,60.03c44.76,0,81.04,35.09,81.04,65.34s-36.29,44.2-81.04,44.2-81.05-13.95-81.05-44.2,36.29-65.34,81.05-65.34Z"/>
        <g>
          <path class="cls-6" d="M154.29,81.96c6.59,12.26,9.06,27.44,8.5,42.13-.61,15.97-4.81,31.38-11.21,41.79-.49-.51-.98-1.02-1.45-1.55,6.05-10.09,10.03-24.92,10.61-40.32.53-14-1.74-28.44-7.78-40.19.44-.62.88-1.24,1.33-1.86Z"/>
          <path class="cls-6" d="M358.56,83.82c-6.05,11.75-8.32,26.19-7.79,40.19.59,15.4,4.55,30.23,10.61,40.32-.47.52-.95,1.04-1.45,1.55-6.4-10.41-10.6-25.82-11.21-41.79-.56-14.68,1.91-29.87,8.5-42.13.45.62.89,1.24,1.33,1.86Z"/>
        </g>
        <path class="cls-1" d="M255.76,34.57c29.37,0,53.17,8.95,53.17,16.64s-23.81-4.87-53.17-4.87-53.17,12.56-53.17,4.87,23.81-16.64,53.17-16.64Z"/>
      </g>
      <g>
        <g>
          <g>
            <path class="cls-4" d="M223.8,115.03c7,.06,12.77-6.56,12.85-14.75s-5.57-14.91-12.57-14.98-12.77,6.56-12.85,14.75c-.08,8.19,5.57,14.92,12.57,14.98Z"/>
            <path class="cls-4" d="M289.19,115.63c7,.06,12.77-6.56,12.85-14.75.08-8.19-5.57-14.91-12.57-14.98s-12.77,6.56-12.85,14.75,5.57,14.92,12.57,14.98Z"/>
          </g>
          <path class="cls-1" d="M227.76,99.8c3,.03,5.47-2.4,5.5-5.4s-2.4-5.47-5.4-5.5-5.48,2.4-5.5,5.4,2.4,5.47,5.4,5.5Z"/>
          <path class="cls-1" d="M293.15,100.4c3,.03,5.47-2.4,5.5-5.4s-2.4-5.47-5.4-5.5-5.47,2.4-5.5,5.4,2.4,5.47,5.4,5.5Z"/>
        </g>
        <rect class="cls-9" x="224" y="131" width="63" height="9" transform="translate(-28.46 80.67) rotate(-17.01)"/>
      </g>
    </g>
  </g>
</svg>