<?xml version="1.0" encoding="UTF-8"?>
<svg id="Layer_1" data-name="Layer 1" xmlns="http://www.w3.org/2000/svg" viewBox="0 0 512 512">
  <defs>
    <style>
      .cls-1 {
        fill: #fff;
      }

      .cls-1, .cls-2, .cls-3, .cls-4, .cls-5, .cls-6, .cls-7, .cls-8 {
        fill-rule: evenodd;
      }

      .cls-2 {
        fill: #62626b;
      }

      .cls-3 {
        fill: #5391cc;
      }

      .cls-4 {
        fill: #6db8da;
      }

      .cls-5 {
        fill: #5f5d65;
      }

      .cls-6 {
        fill: #a5a8ae;
      }

      .cls-7 {
        fill: #ced4d9;
      }

      .cls-9, .cls-8 {
        fill: #383540;
      }
    </style>
  </defs>
  <path class="cls-7" d="M256,482.41c92.02,0,167.07-8.41,167.07-18.73s-75.05-18.73-167.07-18.73-167.07,8.41-167.07,18.73,75.05,18.73,167.07,18.73Z"/>
  <g>
    <g>
      <g>
        <rect class="cls-9" x="239.56" y="276.46" width="32.88" height="61.4" transform="translate(-3.81 3.21) rotate(-.71)"/>
        <path class="cls-6" d="M256,335.78c28.98,0,52.48,20.65,52.48,38.45,0,9.33-6.45,12.26-16.77,12.94-8.24.54-70.28.37-75.59-.44-7.85-1.2-12.6-4.5-12.6-12.5,0-17.8,23.5-38.45,52.48-38.45Z"/>
        <path class="cls-7" d="M256,335.78c22.55,0,41.78,12.5,49.2,26.43-3.14,2.92-8.4,4.01-15.13,4.3-14.81.63-55.16.78-69.36-.06-6.15-.36-10.97-1.49-13.92-4.24,7.42-13.93,26.65-26.43,49.2-26.43Z"/>
        <path class="cls-1" d="M256,339.9c-12.7,0-22.99,3.75-22.99,8.37s10.3,8.37,22.99,8.37,23-3.75,23-8.37-10.29-8.37-23-8.37Z"/>
      </g>
      <g>
        <g>
          <g>
            <path class="cls-7" d="M125.26,419.61c0-11.66,8.31-21.11,15.47-21.11s4.95,9.45,4.95,21.11,2.21,21.11-4.95,21.11-15.47-9.45-15.47-21.11Z"/>
            <path class="cls-7" d="M386.74,419.61c0-11.66-8.31-21.11-15.47-21.11s-4.95,9.45-4.95,21.11-2.21,21.11,4.95,21.11,15.47-9.45,15.47-21.11Z"/>
          </g>
          <path class="cls-9" d="M161.05,373.87h189.9c12.55,0,22.74,10.19,22.74,22.74v45.98c0,12.55-10.19,22.74-22.74,22.74h-189.9c-12.55,0-22.74-10.19-22.74-22.74v-45.98c0-12.55,10.19-22.74,22.74-22.74Z"/>
          <path class="cls-2" d="M156.37,391.31c-1.71,0-3.1-1.39-3.1-3.09s1.39-3.09,3.1-3.09h199.25c1.71,0,3.1,1.39,3.1,3.09s-1.39,3.09-3.1,3.09h-199.25Z"/>
          <path class="cls-2" d="M156.37,407.01c-1.71,0-3.1-1.39-3.1-3.1s1.39-3.09,3.1-3.09h199.25c1.71,0,3.1,1.39,3.1,3.09s-1.39,3.1-3.1,3.1h-199.25Z"/>
          <path class="cls-2" d="M156.37,422.7c-1.71,0-3.1-1.39-3.1-3.09s1.39-3.1,3.1-3.1h199.25c1.71,0,3.1,1.39,3.1,3.1s-1.39,3.09-3.1,3.09h-199.25Z"/>
          <path class="cls-2" d="M156.37,438.39c-1.71,0-3.1-1.39-3.1-3.09s1.39-3.1,3.1-3.1h199.25c1.71,0,3.1,1.39,3.1,3.1s-1.39,3.09-3.1,3.09h-199.25Z"/>
          <path class="cls-2" d="M156.37,454.09c-1.71,0-3.1-1.39-3.1-3.1s1.39-3.09,3.1-3.09h199.25c1.71,0,3.1,1.39,3.1,3.09s-1.39,3.1-3.1,3.1h-199.25Z"/>
          <path class="cls-6" d="M138.31,440.38v-15.29c-4.8-1.32-9.64-6.39-11.83-13.13-.77,2.37-1.22,4.95-1.22,7.64,0,10.36,6.56,18.98,13.05,20.77Z"/>
          <path class="cls-6" d="M373.69,425.09v15.29c6.49-1.79,13.05-10.41,13.05-20.77,0-2.7-.44-5.27-1.22-7.64-2.19,6.74-7.04,11.8-11.83,13.13Z"/>
        </g>
        <g>
          <g>
            <path class="cls-8" d="M158.59,461.15h12.39c2.06,0,3.74,1.68,3.74,3.74h0c0,2.06-1.68,3.74-3.74,3.74h-12.39c-2.06,0-3.74-1.68-3.74-3.74h0c0-2.06,1.68-3.74,3.74-3.74Z"/>
            <path class="cls-8" d="M184.66,461.15h12.39c2.06,0,3.74,1.68,3.74,3.74h0c0,2.06-1.68,3.74-3.74,3.74h-12.39c-2.06,0-3.74-1.68-3.74-3.74h0c0-2.06,1.68-3.74,3.74-3.74Z"/>
            <path class="cls-8" d="M210.72,461.15h12.39c2.05,0,3.74,1.68,3.74,3.74h0c0,2.06-1.68,3.74-3.74,3.74h-12.39c-2.06,0-3.74-1.68-3.74-3.74h0c0-2.06,1.68-3.74,3.74-3.74Z"/>
            <path class="cls-8" d="M236.78,461.15h12.39c2.06,0,3.74,1.68,3.74,3.74h0c0,2.06-1.68,3.74-3.74,3.74h-12.39c-2.06,0-3.74-1.68-3.74-3.74h0c0-2.06,1.68-3.74,3.74-3.74Z"/>
            <path class="cls-8" d="M262.84,461.15h12.39c2.06,0,3.74,1.68,3.74,3.74h0c0,2.06-1.68,3.74-3.74,3.74h-12.39c-2.06,0-3.74-1.68-3.74-3.74h0c0-2.06,1.68-3.74,3.74-3.74Z"/>
            <path class="cls-8" d="M288.9,461.15h12.39c2.05,0,3.74,1.68,3.74,3.74h0c0,2.06-1.68,3.74-3.74,3.74h-12.39c-2.05,0-3.74-1.68-3.74-3.74h0c0-2.06,1.68-3.74,3.74-3.74Z"/>
            <path class="cls-8" d="M314.96,461.15h12.39c2.06,0,3.74,1.68,3.74,3.74h0c0,2.06-1.68,3.74-3.74,3.74h-12.39c-2.06,0-3.74-1.68-3.74-3.74h0c0-2.06,1.68-3.74,3.74-3.74Z"/>
            <path class="cls-8" d="M341.02,461.15h12.39c2.06,0,3.74,1.68,3.74,3.74h0c0,2.06-1.68,3.74-3.74,3.74h-12.39c-2.06,0-3.74-1.68-3.74-3.74h0c0-2.06,1.68-3.74,3.74-3.74Z"/>
          </g>
          <g>
            <path class="cls-8" d="M158.59,370.58h12.39c2.06,0,3.74,1.68,3.74,3.74h0c0,2.06-1.68,3.74-3.74,3.74h-12.39c-2.06,0-3.74-1.68-3.74-3.74h0c0-2.05,1.68-3.74,3.74-3.74Z"/>
            <path class="cls-8" d="M184.66,370.58h12.39c2.06,0,3.74,1.68,3.74,3.74h0c0,2.06-1.68,3.74-3.74,3.74h-12.39c-2.06,0-3.74-1.68-3.74-3.74h0c0-2.05,1.68-3.74,3.74-3.74Z"/>
            <path class="cls-8" d="M210.72,370.58h12.39c2.05,0,3.74,1.68,3.74,3.74h0c0,2.06-1.68,3.74-3.74,3.74h-12.39c-2.06,0-3.74-1.68-3.74-3.74h0c0-2.05,1.68-3.74,3.74-3.74Z"/>
            <path class="cls-8" d="M236.78,370.58h12.39c2.06,0,3.74,1.68,3.74,3.74h0c0,2.06-1.68,3.74-3.74,3.74h-12.39c-2.06,0-3.74-1.68-3.74-3.74h0c0-2.05,1.68-3.74,3.74-3.74Z"/>
            <path class="cls-8" d="M262.84,370.58h12.39c2.06,0,3.74,1.68,3.74,3.74h0c0,2.06-1.68,3.74-3.74,3.74h-12.39c-2.06,0-3.74-1.68-3.74-3.74h0c0-2.05,1.68-3.74,3.74-3.74Z"/>
            <path class="cls-8" d="M288.9,370.58h12.39c2.05,0,3.74,1.68,3.74,3.74h0c0,2.06-1.68,3.74-3.74,3.74h-12.39c-2.05,0-3.74-1.68-3.74-3.74h0c0-2.05,1.68-3.74,3.74-3.74Z"/>
            <path class="cls-8" d="M314.96,370.58h12.39c2.06,0,3.74,1.68,3.74,3.74h0c0,2.06-1.68,3.74-3.74,3.74h-12.39c-2.06,0-3.74-1.68-3.74-3.74h0c0-2.05,1.68-3.74,3.74-3.74Z"/>
            <path class="cls-8" d="M341.02,370.58h12.39c2.06,0,3.74,1.68,3.74,3.74h0c0,2.06-1.68,3.74-3.74,3.74h-12.39c-2.06,0-3.74-1.68-3.74-3.74h0c0-2.05,1.68-3.74,3.74-3.74Z"/>
          </g>
        </g>
      </g>
    </g>
    <g>
      <g>
        <g>
          <path class="cls-8" d="M108.41,121.99c3.49,4.2,4.94,9.42,4.48,14.45-.46,5.02-2.86,9.87-7.06,13.36-4.2,3.49-9.42,4.94-14.45,4.48-5.02-.46-9.87-2.85-13.36-7.06-2.27-2.73-3.67-5.84-4.25-9.01-.61-3.34-.33-6.83.79-10.09.58-1.67,1.38-3.27,2.41-4.76.99-1.43,2.2-2.76,3.63-3.94l-14.37-17.28c-3.02,2.5-5.61,5.36-7.76,8.47-2.21,3.2-3.95,6.65-5.18,10.24-2.35,6.81-2.9,14.17-1.6,21.33,1.27,6.95,4.26,13.66,9.04,19.41,7.44,8.96,17.82,14.05,28.6,15.05,10.76,1,21.89-2.11,30.86-9.55,8.96-7.44,14.05-17.82,15.05-28.6,1-10.76-2.11-21.89-9.55-30.86l-17.28,14.37Z"/>
          <path class="cls-5" d="M105.82,149.8c-4.2,3.49-9.42,4.94-14.45,4.48-5.02-.46-9.87-2.85-13.36-7.06l-17.28,14.37c7.44,8.96,17.82,14.05,28.6,15.05,10.76,1,21.89-2.11,30.86-9.55l-14.37-17.28Z"/>
        </g>
        <g>
          <path class="cls-6" d="M169.28,205.42c13.15-1.02,24.7,9.55,25.79,23.61,1.09,14.06-8.68,26.29-21.83,27.31-13.15,1.02-24.7-9.55-25.79-23.61-1.09-14.06,8.68-26.29,21.83-27.31Z"/>
          <path class="cls-7" d="M161.28,253.98c1.96-2.22,3.47-4.82,4.53-7.65,1.52-4.05,2.13-8.57,1.86-13.14-.27-4.58-1.42-9.2-3.41-13.44-1.71-3.62-4.04-6.96-6.97-9.75.39-.29.78-.57,1.18-.84,2.97,2.87,5.33,6.29,7.07,9.98,2.07,4.4,3.27,9.2,3.54,13.96.28,4.76-.36,9.49-1.95,13.72-1.07,2.86-2.58,5.5-4.52,7.78-.46-.19-.9-.4-1.35-.63Z"/>
        </g>
        <path class="cls-8" d="M155.67,242.47c-4.23.15-8.81-.05-13.51-.65-10.42-1.33-21.87-4.56-31.97-10.24-10.69-6.01-19.96-14.72-25.31-26.76-3.93-8.86-5.64-19.34-4.07-31.63l21.09,2.63c-1.04,8.15,0,14.88,2.44,20.39,3.27,7.37,9.25,12.87,16.25,16.8,7.59,4.27,16.26,6.71,24.19,7.72,3.68.47,7.1.65,10.08.57,5.8-.15,9.66,20.85.81,21.17Z"/>
        <path class="cls-7" d="M106.33,185.5l-33.16-.02c-3.98,0-7.23-3.26-7.23-7.24h0c0-3.98,3.26-7.23,7.24-7.23l33.16.02c3.98,0,7.23,3.26,7.23,7.24h0c0,3.98-3.26,7.23-7.24,7.23Z"/>
        <path class="cls-7" d="M101.23,225.79l-1.13,1.23c-1.85,2.03-5.03,2.16-7.05.31h0c-2.03-1.85-2.17-5.03-.31-7.05l15.46-16.89c1.85-2.02,5.03-2.16,7.05-.31h0c.82.75,1.33,1.71,1.52,2.73,1.25-.23,2.59.02,3.71.79h0c.88.61,1.51,1.45,1.85,2.39,1.06-.21,2.19-.09,3.22.42h0c.93.46,1.65,1.18,2.12,2.03.9-.23,1.88-.22,2.82.1h0c2.6.88,4.01,3.72,3.14,6.32l-7.31,21.7c-.88,2.6-3.72,4.01-6.32,3.14h0c-2.1-.71-3.43-2.7-3.4-4.81-1.48,1.47-3.8,1.91-5.76.93h0c-2.15-1.08-3.19-3.53-2.59-5.77-1.66,1.71-4.38,2.03-6.41.64h0c-2.26-1.56-2.84-4.68-1.28-6.94l.66-.96Z"/>
        <path class="cls-6" d="M120.7,229.65c-1.48,1.47-3.8,1.91-5.76.93-2.15-1.08-3.02-3.51-2.41-5.75-1.66,1.71-4.56,2.01-6.59.62-2.26-1.56-2.12-3.98-.56-6.24l.66-.96-1.13,1.23c-1.85,2.03-5.75,1.47-7.78-.39-.65-.6-1.11-1.33-1.37-2.12l-3.03,3.32c-1.86,2.02-1.71,5.2.31,7.05s5.2,1.71,7.05-.31l1.13-1.23-.66.96c-1.56,2.26-.98,5.39,1.28,6.94,2.03,1.39,4.75,1.07,6.41-.64-.6,2.24.43,4.69,2.59,5.77,1.96.98,4.28.54,5.76-.93-.03,2.11,1.3,4.11,3.4,4.81,2.6.88,5.45-.54,6.32-3.14l1.86-5.53c-1.2.7-2.68.89-4.1.42-2.1-.71-3.43-2.7-3.4-4.81Z"/>
        <path class="cls-6" d="M114.96,206.47c.23-.29.64-.34.93-.12.29.22.34.64.12.93l-13.4,17.18c-.22.29-.64.34-.93.11-.29-.22-.34-.64-.12-.93l13.4-17.18Z"/>
        <path class="cls-6" d="M121.29,209.89c.19-.31.6-.42.91-.23.32.19.42.6.23.91l-12.56,20.81c-.19.32-.6.42-.91.23-.31-.19-.42-.6-.23-.91l12.55-20.81Z"/>
        <path class="cls-6" d="M126.24,213c.14-.34.53-.5.87-.36.34.14.5.53.36.87l-8.88,21.31c-.14.34-.53.5-.87.36-.34-.14-.5-.53-.36-.87l8.88-21.3Z"/>
        <path class="cls-1" d="M72.84,178.39c-1.47,0-2.67-1.19-2.67-2.66,0-1.47,1.18-2.67,2.65-2.67h34.15c1.47,0,2.67,1.19,2.67,2.66,0,1.47-1.19,2.67-2.66,2.67h-34.15Z"/>
      </g>
      <g>
        <g>
          <path class="cls-8" d="M403.26,111.05c-3.52,4.63-4.83,10.24-4.11,15.57.72,5.31,3.48,10.36,8.12,13.89,4.62,3.52,10.23,4.83,15.57,4.1,5.31-.72,10.36-3.48,13.89-8.12,2.28-3,3.64-6.37,4.11-9.78.49-3.58.04-7.27-1.3-10.7-.69-1.75-1.62-3.42-2.78-4.95-1.11-1.47-2.46-2.83-4.04-4.03l14.49-19.02c3.32,2.53,6.2,5.45,8.63,8.65,2.5,3.3,4.5,6.89,5.98,10.66,2.8,7.13,3.73,14.93,2.67,22.6-1.03,7.45-3.91,14.71-8.73,21.05-7.5,9.86-18.31,15.75-29.72,17.3-11.39,1.55-23.37-1.25-33.24-8.76-9.86-7.5-15.75-18.31-17.3-29.72-1.55-11.39,1.25-23.37,8.76-33.24l19.02,14.49Z"/>
          <path class="cls-5" d="M407.27,140.5c4.62,3.52,10.23,4.83,15.57,4.1,5.31-.72,10.36-3.48,13.89-8.12l19.02,14.49c-7.5,9.86-18.31,15.75-29.72,17.3-11.39,1.55-23.37-1.25-33.24-8.76l14.49-19.02Z"/>
        </g>
        <g>
          <path class="cls-6" d="M342.33,202.52c-14.03-.49-25.83,11.28-26.35,26.28-.52,15,10.42,27.56,24.45,28.05,14.03.49,25.83-11.28,26.35-26.28.52-15-10.43-27.56-24.45-28.05Z"/>
          <path class="cls-7" d="M353.04,253.78c-2.19-2.27-3.91-4.96-5.17-7.92-1.8-4.23-2.65-9.01-2.57-13.88.08-4.88,1.09-9.85,3.02-14.44,1.65-3.93,3.97-7.58,6.96-10.68-.42-.29-.86-.57-1.3-.84-3.02,3.19-5.38,6.93-7.07,10.94-2.01,4.77-3.06,9.93-3.14,15-.08,5.08.81,10.07,2.69,14.5,1.27,2.99,2.99,5.73,5.16,8.06.48-.23.94-.47,1.4-.73Z"/>
        </g>
        <path class="cls-8" d="M358.49,241.29c4.51-.03,9.36-.45,14.34-1.3,11.02-1.88,23.05-5.84,33.52-12.34,11.1-6.88,20.56-16.56,25.69-29.6,3.78-9.59,5.11-20.82,2.89-33.82l-22.31,3.75c1.47,8.61.68,15.82-1.67,21.79-3.14,7.98-9.25,14.1-16.51,18.6-7.87,4.88-16.99,7.87-25.37,9.3-3.89.67-7.52,1.01-10.69,1.06-6.17.11-9.32,22.61.11,22.54Z"/>
        <path class="cls-7" d="M408.36,178.48l35.26-1.53c4.23-.18,7.54-3.79,7.36-8.02h0c-.18-4.23-3.79-7.54-8.02-7.36l-35.26,1.53c-4.23.18-7.54,3.79-7.36,8.02h0c.18,4.23,3.79,7.54,8.02,7.36Z"/>
        <path class="cls-7" d="M415.61,221.08l1.26,1.26c2.06,2.07,5.44,2.07,7.51,0h0c2.07-2.06,2.07-5.44,0-7.51l-17.2-17.25c-2.06-2.07-5.44-2.07-7.51,0h0c-.83.83-1.33,1.88-1.5,2.97-1.34-.18-2.75.14-3.91,1.01h0c-.91.69-1.54,1.61-1.86,2.63-1.13-.18-2.33,0-3.4.6h0c-.96.53-1.7,1.33-2.16,2.25-.97-.21-2.01-.14-3,.24h0c-2.73,1.05-4.1,4.14-3.05,6.87l8.75,22.74c1.05,2.73,4.14,4.1,6.87,3.05h0c2.2-.85,3.52-3.03,3.39-5.27,1.64,1.49,4.12,1.86,6.16.73h0c2.24-1.24,3.23-3.9,2.49-6.25,1.84,1.75,4.75,1.96,6.85.39h0c2.33-1.76,2.81-5.11,1.05-7.44l-.75-.99Z"/>
        <path class="cls-6" d="M395.08,226.07c1.64,1.49,4.12,1.86,6.16.73,2.24-1.24,3.05-3.87,2.3-6.22,1.85,1.74,4.94,1.93,7.03.36,2.33-1.76,2.07-4.33.31-6.66l-.75-.99,1.26,1.26c2.06,2.07,6.18,1.3,8.25-.77.67-.66,1.12-1.47,1.36-2.31l3.38,3.39c2.06,2.07,2.06,5.45,0,7.51s-5.45,2.06-7.51,0l-1.26-1.26.75.99c1.76,2.33,1.29,5.68-1.05,7.44-2.09,1.58-5,1.36-6.85-.39.74,2.36-.25,5.01-2.49,6.25-2.04,1.13-4.52.77-6.16-.73.13,2.24-1.19,4.42-3.39,5.27-2.73,1.05-5.82-.32-6.87-3.05l-2.23-5.79c1.31.69,2.9.83,4.37.26,2.2-.85,3.52-3.03,3.39-5.27Z"/>
        <path class="cls-6" d="M400.14,201.16c-.25-.3-.7-.33-1-.08-.3.25-.33.7-.08,1l15.03,17.65c.25.3.7.33,1,.08.3-.25.33-.7.08-.99l-15.03-17.65Z"/>
        <path class="cls-6" d="M393.56,205.09c-.22-.33-.66-.42-.98-.2-.33.22-.42.65-.2.98l14.3,21.56c.22.33.65.42.98.2.33-.21.42-.66.2-.98l-14.29-21.56Z"/>
        <path class="cls-6" d="M388.44,208.62c-.17-.35-.59-.51-.94-.34-.35.16-.51.59-.34.94l10.41,22.25c.17.35.59.51.94.34.35-.16.51-.59.34-.94l-10.41-22.25Z"/>
        <path class="cls-1" d="M443.64,169.4c1.56-.06,2.78-1.38,2.72-2.95-.06-1.56-1.38-2.78-2.94-2.72l-36.31,1.55c-1.56.06-2.78,1.38-2.72,2.94.06,1.56,1.38,2.78,2.95,2.72l36.31-1.55Z"/>
      </g>
    </g>
    <g>
      <path class="cls-7" d="M256,316.37c49.45,0,89.53-42.57,89.53-79.26s-40.08-53.61-89.53-53.61-89.53,16.92-89.53,53.61,40.08,79.26,89.53,79.26Z"/>
      <path class="cls-8" d="M318.08,195.9c-16.1-8.37-37.97-12.4-62.08-12.4s-45.98,4.02-62.08,12.4c18.1,5.19,39.34,7.7,62.08,7.7s43.98-2.52,62.08-7.7Z"/>
      <g>
        <path class="cls-6" d="M185.13,201.34c6.45,10.61,17.03,18.56,29.65,23.83,2.75,1.15,5.6,2.17,8.52,3.07-.65,1.22-1.23,2.48-1.75,3.77-2.86-.89-5.65-1.91-8.36-3.04-13.22-5.52-24.36-13.87-31.31-25.06,1.04-.89,2.12-1.75,3.25-2.58h0ZM288.71,228.25c2.92-.89,5.77-1.92,8.52-3.07,12.61-5.27,23.19-13.22,29.65-23.83,1.13.83,2.21,1.69,3.25,2.58-6.95,11.18-18.09,19.53-31.31,25.06-2.7,1.13-5.49,2.14-8.36,3.04-.51-1.29-1.1-2.55-1.75-3.77Z"/>
        <path class="cls-6" d="M185.77,283.28c6.5-10.1,16.8-17.71,29.01-22.81,2.06-.86,4.18-1.65,6.34-2.37-.46-1.29-.85-2.61-1.17-3.95-2.3.76-4.56,1.6-6.75,2.52-12.52,5.23-23.17,12.99-30.17,23.29.88,1.12,1.8,2.23,2.74,3.32h0ZM290.89,258.11c2.16.72,4.28,1.51,6.34,2.37,12.21,5.1,22.5,12.71,29,22.81.94-1.09,1.86-2.2,2.74-3.32-7-10.3-17.65-18.06-30.17-23.29-2.2-.92-4.45-1.76-6.75-2.52-.32,1.35-.71,2.67-1.17,3.95Z"/>
      </g>
      <path class="cls-8" d="M256,277.68c17.65,0,32.04-14.39,32.04-32.04s-14.39-32.04-32.04-32.04-32.04,14.39-32.04,32.04,14.39,32.04,32.04,32.04Z"/>
      <path class="cls-4" d="M256,270.76c13.84,0,25.12-11.28,25.12-25.12s-11.28-25.12-25.12-25.12-25.12,11.28-25.12,25.12,11.28,25.12,25.12,25.12Z"/>
      <path class="cls-3" d="M256,264.6c10.44,0,18.95-8.52,18.95-18.96s-8.51-18.95-18.95-18.95-18.95,8.52-18.95,18.95,8.51,18.96,18.95,18.96Z"/>
      <path class="cls-1" d="M265.29,225.6c-5.79,0-10.48,4.69-10.48,10.48s4.69,10.48,10.48,10.48,10.48-4.69,10.48-10.48-4.69-10.48-10.48-10.48Z"/>
      <path class="cls-6" d="M256,210.15c-9.8,0-18.67,3.97-25.1,10.4-6.42,6.42-10.39,15.29-10.39,25.1s3.97,18.67,10.39,25.1c6.42,6.42,15.3,10.4,25.1,10.4s18.67-3.97,25.1-10.4c6.42-6.42,10.4-15.3,10.4-25.1s-3.97-18.67-10.4-25.1c-6.42-6.42-15.3-10.4-25.1-10.4h0ZM228.72,218.36c6.98-6.98,16.63-11.3,27.28-11.3s20.3,4.32,27.28,11.3c6.98,6.98,11.3,16.63,11.3,27.28s-4.32,20.3-11.3,27.28c-6.98,6.98-16.63,11.3-27.28,11.3s-20.3-4.32-27.28-11.3c-6.98-6.98-11.3-16.63-11.3-27.28s4.32-20.3,11.3-27.28Z"/>
      <path class="cls-1" d="M253.55,243.89c-2.17,0-3.93,1.76-3.93,3.93s1.76,3.93,3.93,3.93,3.93-1.76,3.93-3.93-1.76-3.93-3.93-3.93Z"/>
      <path class="cls-6" d="M256,311.76c23.83,0,43.15-9.88,43.15-18.37s-19.32,5.38-43.15,5.38-43.15-13.87-43.15-5.38,19.32,18.37,43.15,18.37Z"/>
    </g>
    <g>
      <g>
        <path class="cls-7" d="M256.34,31.81c65.35,0,118.32,52.92,118.32,98.54s-52.97,66.66-118.32,66.66-118.32-21.04-118.32-66.66,52.97-98.54,118.32-98.54Z"/>
        <path class="cls-6" d="M256.34,51.7c11.47,0,22.85,2.12,33.54,6.09,10.75,4,20.81,9.88,29.57,17.38,7.77,6.65,14.89,15.02,19.85,24.39,4.35,8.23,7.04,17.22,7.04,26.52,0,3.39-.37,6.72-1.13,9.97-.74,3.18-1.86,6.26-3.37,9.23-6.12,12.03-17.36,20-30.42,25.18-17.77,7.05-38.92,8.96-55.08,8.96s-37.32-1.91-55.08-8.96c-13.06-5.19-24.3-13.16-30.42-25.18-1.51-2.96-2.62-6.05-3.37-9.23-.76-3.25-1.13-6.58-1.13-9.97,0-9.29,2.69-18.29,7.04-26.52,4.96-9.37,12.08-17.74,19.85-24.39,8.76-7.5,18.81-13.38,29.57-17.38,10.69-3.98,22.07-6.09,33.54-6.09h0ZM289.17,59.7c-10.45-3.89-21.59-5.96-32.83-5.96s-22.37,2.07-32.83,5.96c-10.53,3.92-20.37,9.67-28.96,17.02-7.59,6.49-14.54,14.66-19.37,23.79-4.21,7.95-6.8,16.63-6.8,25.57,0,3.24.35,6.42,1.07,9.51.7,3.01,1.77,5.95,3.2,8.76,5.87,11.53,16.72,19.2,29.35,24.22,17.47,6.93,38.35,8.81,54.33,8.81s36.87-1.87,54.33-8.81c12.64-5.02,23.49-12.68,29.35-24.22,1.43-2.82,2.5-5.75,3.2-8.76.72-3.09,1.07-6.27,1.07-9.51,0-8.94-2.6-17.62-6.8-25.57-4.83-9.13-11.79-17.29-19.37-23.79-8.58-7.35-18.43-13.1-28.96-17.02Z"/>
        <path class="cls-8" d="M256.34,61.05c44.54,0,80.65,34.92,80.65,65.03s-36.11,43.99-80.65,43.99-80.65-13.88-80.65-43.99,36.11-65.03,80.65-65.03Z"/>
        <g>
          <path class="cls-6" d="M155.36,82.88c6.55,12.2,9.02,27.31,8.46,41.92-.6,15.89-4.78,31.23-11.15,41.59-.49-.51-.97-1.02-1.44-1.54,6.03-10.04,9.98-24.79,10.56-40.12.53-13.93-1.73-28.3-7.75-40,.44-.62.88-1.24,1.32-1.85Z"/>
          <path class="cls-6" d="M358.64,84.73c-6.02,11.69-8.28,26.07-7.75,40,.58,15.33,4.53,30.08,10.56,40.12-.47.52-.95,1.03-1.44,1.54-6.37-10.36-10.55-25.7-11.16-41.59-.55-14.61,1.91-29.72,8.46-41.92.45.61.89,1.23,1.32,1.85Z"/>
        </g>
        <path class="cls-1" d="M256.34,35.71c29.23,0,52.91,8.9,52.91,16.56s-23.69-4.85-52.91-4.85-52.92,12.5-52.92,4.85,23.69-16.56,52.92-16.56Z"/>
      </g>
      <g>
        <path class="cls-1" d="M284.21,127.7c-1.46,4.38-5.22,8.12-10.41,10.7-4.8,2.38-10.87,3.81-17.45,3.81s-12.66-1.43-17.45-3.81c-5.19-2.58-8.95-6.33-10.41-10.7l5.79-1.91c.92,2.77,3.58,5.27,7.33,7.14,3.98,1.98,9.12,3.17,14.75,3.17s10.77-1.19,14.75-3.17c3.75-1.86,6.4-4.37,7.32-7.14l5.79,1.91Z"/>
        <path class="cls-4" d="M220.3,102.47h10.36c2.46,0,4.47,2.01,4.47,4.47s-2.01,4.47-4.47,4.47h-10.36c-2.46,0-4.48-2.01-4.48-4.47s2.01-4.47,4.48-4.47h0ZM282.03,102.47h10.36c2.46,0,4.47,2.01,4.47,4.47s-2.01,4.47-4.47,4.47h-10.36c-2.46,0-4.48-2.01-4.48-4.47s2.01-4.47,4.48-4.47Z"/>
      </g>
    </g>
  </g>
</svg>