<?xml version="1.0" encoding="UTF-8"?>
<svg id="Layer_1" data-name="Layer 1" xmlns="http://www.w3.org/2000/svg" viewBox="0 0 512 512">
  <defs>
    <style>
      .cls-1 {
        fill: #fff;
      }

      .cls-1, .cls-2, .cls-3, .cls-4, .cls-5, .cls-6, .cls-7, .cls-8 {
        fill-rule: evenodd;
      }

      .cls-2 {
        fill: #62626b;
      }

      .cls-3 {
        fill: #5391cc;
      }

      .cls-4 {
        fill: #6db8da;
      }

      .cls-5 {
        fill: #5f5d65;
      }

      .cls-6 {
        fill: #a5a8ae;
      }

      .cls-7 {
        fill: #ced4d9;
      }

      .cls-9, .cls-8 {
        fill: #383540;
      }
    </style>
  </defs>
  <path class="cls-7" d="M256,482.41c92.02,0,167.07-8.41,167.07-18.73s-75.05-18.73-167.07-18.73-167.07,8.41-167.07,18.73,75.05,18.73,167.07,18.73Z"/>
  <g>
    <g>
      <g>
        <rect class="cls-9" x="239.56" y="276.46" width="32.88" height="61.4" transform="translate(-3.81 3.21) rotate(-.71)"/>
        <path class="cls-6" d="M256,335.78c28.98,0,52.48,20.65,52.48,38.45,0,9.33-6.45,12.26-16.77,12.94-8.24.54-70.28.37-75.59-.44-7.85-1.2-12.6-4.5-12.6-12.5,0-17.8,23.5-38.45,52.48-38.45Z"/>
        <path class="cls-7" d="M256,335.78c22.55,0,41.78,12.5,49.2,26.43-3.14,2.92-8.4,4.01-15.13,4.3-14.81.63-55.16.78-69.36-.06-6.15-.36-10.97-1.49-13.92-4.24,7.42-13.93,26.65-26.43,49.2-26.43Z"/>
        <path class="cls-1" d="M256,339.9c-12.7,0-22.99,3.75-22.99,8.37s10.3,8.37,22.99,8.37,23-3.75,23-8.37-10.29-8.37-23-8.37Z"/>
      </g>
      <g>
        <g>
          <g>
            <path class="cls-7" d="M125.26,419.61c0-11.66,8.31-21.11,15.47-21.11s4.95,9.45,4.95,21.11,2.21,21.11-4.95,21.11-15.47-9.45-15.47-21.11Z"/>
            <path class="cls-7" d="M386.74,419.61c0-11.66-8.31-21.11-15.47-21.11s-4.95,9.45-4.95,21.11-2.21,21.11,4.95,21.11,15.47-9.45,15.47-21.11Z"/>
          </g>
          <path class="cls-9" d="M161.05,373.87h189.9c12.55,0,22.74,10.19,22.74,22.74v45.98c0,12.55-10.19,22.74-22.74,22.74h-189.9c-12.55,0-22.74-10.19-22.74-22.74v-45.98c0-12.55,10.19-22.74,22.74-22.74Z"/>
          <path class="cls-2" d="M156.37,391.31c-1.71,0-3.1-1.39-3.1-3.09s1.39-3.09,3.1-3.09h199.25c1.71,0,3.1,1.39,3.1,3.09s-1.39,3.09-3.1,3.09h-199.25Z"/>
          <path class="cls-2" d="M156.37,407.01c-1.71,0-3.1-1.39-3.1-3.1s1.39-3.09,3.1-3.09h199.25c1.71,0,3.1,1.39,3.1,3.09s-1.39,3.1-3.1,3.1h-199.25Z"/>
          <path class="cls-2" d="M156.37,422.7c-1.71,0-3.1-1.39-3.1-3.09s1.39-3.1,3.1-3.1h199.25c1.71,0,3.1,1.39,3.1,3.1s-1.39,3.09-3.1,3.09h-199.25Z"/>
          <path class="cls-2" d="M156.37,438.39c-1.71,0-3.1-1.39-3.1-3.09s1.39-3.1,3.1-3.1h199.25c1.71,0,3.1,1.39,3.1,3.1s-1.39,3.09-3.1,3.09h-199.25Z"/>
          <path class="cls-2" d="M156.37,454.09c-1.71,0-3.1-1.39-3.1-3.1s1.39-3.09,3.1-3.09h199.25c1.71,0,3.1,1.39,3.1,3.09s-1.39,3.1-3.1,3.1h-199.25Z"/>
          <path class="cls-6" d="M138.31,440.38v-15.29c-4.8-1.32-9.64-6.39-11.83-13.13-.77,2.37-1.22,4.95-1.22,7.64,0,10.36,6.56,18.98,13.05,20.77Z"/>
          <path class="cls-6" d="M373.69,425.09v15.29c6.49-1.79,13.05-10.41,13.05-20.77,0-2.7-.44-5.27-1.22-7.64-2.19,6.74-7.04,11.8-11.83,13.13Z"/>
        </g>
        <g>
          <g>
            <path class="cls-8" d="M158.59,461.15h12.39c2.06,0,3.74,1.68,3.74,3.74h0c0,2.06-1.68,3.74-3.74,3.74h-12.39c-2.06,0-3.74-1.68-3.74-3.74h0c0-2.06,1.68-3.74,3.74-3.74Z"/>
            <path class="cls-8" d="M184.66,461.15h12.39c2.06,0,3.74,1.68,3.74,3.74h0c0,2.06-1.68,3.74-3.74,3.74h-12.39c-2.06,0-3.74-1.68-3.74-3.74h0c0-2.06,1.68-3.74,3.74-3.74Z"/>
            <path class="cls-8" d="M210.72,461.15h12.39c2.05,0,3.74,1.68,3.74,3.74h0c0,2.06-1.68,3.74-3.74,3.74h-12.39c-2.06,0-3.74-1.68-3.74-3.74h0c0-2.06,1.68-3.74,3.74-3.74Z"/>
            <path class="cls-8" d="M236.78,461.15h12.39c2.06,0,3.74,1.68,3.74,3.74h0c0,2.06-1.68,3.74-3.74,3.74h-12.39c-2.06,0-3.74-1.68-3.74-3.74h0c0-2.06,1.68-3.74,3.74-3.74Z"/>
            <path class="cls-8" d="M262.84,461.15h12.39c2.06,0,3.74,1.68,3.74,3.74h0c0,2.06-1.68,3.74-3.74,3.74h-12.39c-2.06,0-3.74-1.68-3.74-3.74h0c0-2.06,1.68-3.74,3.74-3.74Z"/>
            <path class="cls-8" d="M288.9,461.15h12.39c2.05,0,3.74,1.68,3.74,3.74h0c0,2.06-1.68,3.74-3.74,3.74h-12.39c-2.05,0-3.74-1.68-3.74-3.74h0c0-2.06,1.68-3.74,3.74-3.74Z"/>
            <path class="cls-8" d="M314.96,461.15h12.39c2.06,0,3.74,1.68,3.74,3.74h0c0,2.06-1.68,3.74-3.74,3.74h-12.39c-2.06,0-3.74-1.68-3.74-3.74h0c0-2.06,1.68-3.74,3.74-3.74Z"/>
            <path class="cls-8" d="M341.02,461.15h12.39c2.06,0,3.74,1.68,3.74,3.74h0c0,2.06-1.68,3.74-3.74,3.74h-12.39c-2.06,0-3.74-1.68-3.74-3.74h0c0-2.06,1.68-3.74,3.74-3.74Z"/>
          </g>
          <g>
            <path class="cls-8" d="M158.59,370.58h12.39c2.06,0,3.74,1.68,3.74,3.74h0c0,2.06-1.68,3.74-3.74,3.74h-12.39c-2.06,0-3.74-1.68-3.74-3.74h0c0-2.05,1.68-3.74,3.74-3.74Z"/>
            <path class="cls-8" d="M184.66,370.58h12.39c2.06,0,3.74,1.68,3.74,3.74h0c0,2.06-1.68,3.74-3.74,3.74h-12.39c-2.06,0-3.74-1.68-3.74-3.74h0c0-2.05,1.68-3.74,3.74-3.74Z"/>
            <path class="cls-8" d="M210.72,370.58h12.39c2.05,0,3.74,1.68,3.74,3.74h0c0,2.06-1.68,3.74-3.74,3.74h-12.39c-2.06,0-3.74-1.68-3.74-3.74h0c0-2.05,1.68-3.74,3.74-3.74Z"/>
            <path class="cls-8" d="M236.78,370.58h12.39c2.06,0,3.74,1.68,3.74,3.74h0c0,2.06-1.68,3.74-3.74,3.74h-12.39c-2.06,0-3.74-1.68-3.74-3.74h0c0-2.05,1.68-3.74,3.74-3.74Z"/>
            <path class="cls-8" d="M262.84,370.58h12.39c2.06,0,3.74,1.68,3.74,3.74h0c0,2.06-1.68,3.74-3.74,3.74h-12.39c-2.06,0-3.74-1.68-3.74-3.74h0c0-2.05,1.68-3.74,3.74-3.74Z"/>
            <path class="cls-8" d="M288.9,370.58h12.39c2.05,0,3.74,1.68,3.74,3.74h0c0,2.06-1.68,3.74-3.74,3.74h-12.39c-2.05,0-3.74-1.68-3.74-3.74h0c0-2.05,1.68-3.74,3.74-3.74Z"/>
            <path class="cls-8" d="M314.96,370.58h12.39c2.06,0,3.74,1.68,3.74,3.74h0c0,2.06-1.68,3.74-3.74,3.74h-12.39c-2.06,0-3.74-1.68-3.74-3.74h0c0-2.05,1.68-3.74,3.74-3.74Z"/>
            <path class="cls-8" d="M341.02,370.58h12.39c2.06,0,3.74,1.68,3.74,3.74h0c0,2.06-1.68,3.74-3.74,3.74h-12.39c-2.06,0-3.74-1.68-3.74-3.74h0c0-2.05,1.68-3.74,3.74-3.74Z"/>
          </g>
        </g>
      </g>
    </g>
    <g>
      <g>
        <g>
          <path class="cls-8" d="M170.44,354.7c.93-5.38-.41-10.63-3.32-14.76-2.9-4.12-7.39-7.13-12.78-8.07-5.38-.93-10.63.4-14.76,3.32-4.12,2.9-7.13,7.39-8.07,12.78-.61,3.49-.27,6.89.81,9.93,1.14,3.2,3.11,6.08,5.72,8.36,1.33,1.16,2.83,2.15,4.46,2.92,1.57.74,3.28,1.29,5.11,1.61l-3.85,22.14c-3.86-.67-7.53-1.86-10.95-3.48-3.51-1.67-6.73-3.8-9.6-6.3-5.43-4.73-9.58-10.84-12.01-17.7-2.37-6.66-3.11-13.96-1.83-21.34,1.99-11.47,8.45-21.07,17.3-27.3,8.83-6.22,20.03-9.08,31.52-7.09,11.47,1.99,21.06,8.45,27.3,17.3,6.22,8.83,9.08,20.03,7.09,31.52l-22.14-3.85Z"/>
          <path class="cls-5" d="M154.34,331.87c-5.38-.93-10.63.4-14.76,3.32-4.12,2.9-7.13,7.39-8.07,12.78l-22.14-3.85c1.99-11.47,8.45-21.07,17.3-27.3,8.83-6.22,20.03-9.08,31.52-7.09l-3.85,22.14Z"/>
        </g>
        <g>
          <path class="cls-6" d="M181.65,252.03c11.91-5.67,16.66-20.59,10.59-33.32-6.06-12.74-20.63-18.47-32.54-12.8-11.91,5.67-16.66,20.59-10.6,33.32,6.06,12.74,20.63,18.47,32.54,12.8Z"/>
          <path class="cls-7" d="M150.52,213.91c2.81.94,5.41,2.45,7.74,4.37,3.33,2.75,6.11,6.37,8.16,10.46,2.05,4.1,3.36,8.68,3.74,13.35.32,3.99-.03,8.05-1.18,11.92.48.06.96.11,1.45.14,1.14-3.97,1.49-8.11,1.16-12.18-.39-4.85-1.75-9.61-3.88-13.87-2.13-4.27-5.04-8.04-8.52-10.92-2.36-1.95-4.97-3.48-7.8-4.49-.3.39-.58.8-.86,1.21Z"/>
        </g>
        <path class="cls-8" d="M151.38,226.68c-3.74,1.98-7.61,4.43-11.39,7.29-8.38,6.34-16.69,14.85-22.61,24.81-6.28,10.54-9.98,22.71-8.61,35.81,1,9.64,4.75,19.58,12.23,29.45l16.98-12.79c-4.96-6.55-7.42-12.9-8.04-18.9-.84-8.02,1.61-15.77,5.71-22.66,4.45-7.48,10.76-13.92,17.13-18.75,2.96-2.24,5.83-4.1,8.45-5.52,5.1-2.76-2.02-22.89-9.85-18.75Z"/>
        <path class="cls-7" d="M136.99,300.67l-28.74,16.54c-3.45,1.98-4.65,6.43-2.66,9.88h0c1.98,3.45,6.43,4.64,9.88,2.66l28.74-16.54c3.45-1.98,4.64-6.43,2.66-9.88h0c-1.98-3.45-6.43-4.64-9.88-2.66Z"/>
        <path class="cls-7" d="M112.5,268.27l-1.59-.51c-2.62-.83-5.44.63-6.27,3.25h0c-.83,2.62.63,5.44,3.25,6.27l21.82,6.94c2.62.83,5.44-.63,6.27-3.24h0c.34-1.06.3-2.15-.04-3.13,1.2-.43,2.23-1.31,2.82-2.54h0c.46-.97.58-2.01.41-2.99,1.02-.34,1.94-1.01,2.58-1.97h0c.57-.86.84-1.85.83-2.81.9-.25,1.74-.75,2.4-1.5h0c1.82-2.05,1.62-5.23-.43-7.05l-17.15-15.17c-2.06-1.82-5.23-1.63-7.05.43h0c-1.47,1.66-1.63,4.05-.55,5.87-2.01-.54-4.24.23-5.45,2.06h0c-1.33,2.01-1.01,4.65.63,6.29-2.29-.66-4.81.42-5.88,2.64h0c-1.19,2.48-.13,5.47,2.35,6.66l1.05.5Z"/>
        <path class="cls-6" d="M127.46,255.23c-2.01-.54-4.24.23-5.45,2.06-1.33,2.01-.87,4.55.78,6.19-2.3-.65-4.96.53-6.02,2.75-1.19,2.48.15,4.51,2.62,5.69l1.05.5-1.59-.51c-2.62-.83-5.72,1.59-6.55,4.21-.27.84-.3,1.71-.13,2.52l-4.28-1.36c-2.62-.83-4.08-3.65-3.25-6.27s3.65-4.08,6.27-3.25l1.59.51-1.05-.5c-2.48-1.19-3.53-4.18-2.35-6.66,1.06-2.22,3.58-3.3,5.88-2.64-1.64-1.64-1.96-4.29-.63-6.29,1.21-1.83,3.44-2.6,5.45-2.06-1.08-1.82-.92-4.2.55-5.87,1.82-2.06,4.99-2.25,7.05-.43l4.37,3.87c-1.39,0-2.77.56-3.76,1.68-1.47,1.66-1.63,4.05-.55,5.87Z"/>
        <path class="cls-6" d="M134.03,278.19c.34.14.73-.02.87-.36.14-.34-.02-.73-.36-.87l-20.18-8.21c-.34-.14-.73.02-.86.36-.14.34.02.73.36.86l20.18,8.21Z"/>
        <path class="cls-6" d="M137.81,272.07c.32.18.73.06.91-.26.18-.32.06-.73-.26-.91l-21.26-11.79c-.32-.18-.73-.07-.91.26-.18.32-.06.73.26.91l21.26,11.79Z"/>
        <path class="cls-6" d="M140.55,266.9c.29.22.71.17.93-.12.22-.29.17-.71-.12-.93l-18.32-14.05c-.29-.22-.71-.17-.93.12-.22.29-.17.71.12.93l18.31,14.05Z"/>
        <path class="cls-1" d="M111.5,323.52c-1.28.73-1.72,2.36-.99,3.64.73,1.28,2.36,1.72,3.63.99l29.61-17.02c1.28-.73,1.72-2.36.99-3.63-.73-1.28-2.36-1.72-3.64-.99l-29.61,17.02Z"/>
      </g>
      <g>
        <g>
          <path class="cls-8" d="M340.95,362.71c-.9-5.74.61-11.3,3.78-15.65,3.16-4.33,7.99-7.46,13.74-8.37,5.74-.9,11.3.61,15.65,3.78,4.33,3.16,7.47,7.99,8.37,13.73.59,3.73.18,7.34-1.03,10.55-1.26,3.39-3.41,6.42-6.22,8.8-1.43,1.21-3.04,2.24-4.8,3.04-1.68.77-3.51,1.32-5.47,1.63l3.72,23.62c4.12-.65,8.05-1.85,11.71-3.52,3.76-1.72,7.23-3.93,10.32-6.54,5.85-4.94,10.37-11.37,13.08-18.63,2.63-7.05,3.54-14.8,2.31-22.67-1.92-12.24-8.64-22.56-17.95-29.34-9.29-6.77-21.16-10-33.41-8.07-12.24,1.92-22.56,8.64-29.34,17.95-6.77,9.29-10,21.16-8.08,33.41l23.62-3.72Z"/>
          <path class="cls-5" d="M358.46,338.69c5.74-.9,11.3.61,15.65,3.78,4.33,3.16,7.47,7.99,8.37,13.73l23.62-3.72c-1.92-12.24-8.64-22.56-17.95-29.34-9.29-6.77-21.16-10-33.41-8.07l3.72,23.62Z"/>
        </g>
        <g>
          <path class="cls-6" d="M330.75,253.28c-12.58-6.23-17.38-22.19-10.71-35.64,6.66-13.45,22.26-19.31,34.84-13.08,12.58,6.23,17.38,22.19,10.72,35.64-6.66,13.45-22.26,19.31-34.84,13.08Z"/>
          <path class="cls-7" d="M364.51,213.25c-3,.96-5.8,2.51-8.31,4.52-3.59,2.87-6.61,6.67-8.86,11-2.25,4.33-3.72,9.18-4.2,14.14-.41,4.24-.1,8.56,1.06,12.71-.51.06-1.03.1-1.54.13-1.15-4.24-1.45-8.65-1.03-12.98.5-5.15,2.03-10.19,4.36-14.69,2.34-4.51,5.5-8.48,9.25-11.48,2.54-2.03,5.35-3.62,8.37-4.65.31.42.61.86.89,1.3Z"/>
        </g>
        <path class="cls-8" d="M363.38,226.82c3.95,2.17,8.03,4.84,12,7.95,8.81,6.89,17.51,16.09,23.65,26.77,6.5,11.32,10.23,24.33,8.56,38.25-1.23,10.24-5.38,20.75-13.51,31.14l-17.85-13.89c5.39-6.88,8.11-13.6,8.87-19.97,1.02-8.52-1.45-16.8-5.7-24.21-4.61-8.03-11.21-14.99-17.91-20.23-3.11-2.43-6.14-4.46-8.9-6.01-5.38-3.03,2.53-24.32,10.8-19.79Z"/>
        <path class="cls-7" d="M377.45,305.78l30.31,18.09c3.64,2.17,4.84,6.92,2.67,10.55h0c-2.17,3.63-6.92,4.83-10.55,2.66l-30.31-18.09c-3.64-2.17-4.83-6.92-2.67-10.55h0c2.17-3.63,6.92-4.83,10.55-2.66Z"/>
        <path class="cls-7" d="M404.06,271.72l1.7-.51c2.8-.84,5.78.76,6.62,3.56h0c.84,2.8-.76,5.78-3.56,6.62l-23.33,7.01c-2.8.84-5.78-.76-6.62-3.56h0c-.34-1.13-.28-2.29.09-3.32-1.27-.47-2.35-1.43-2.96-2.75h0c-.48-1.04-.59-2.15-.39-3.19-1.08-.38-2.05-1.11-2.71-2.14h0c-.59-.93-.86-1.98-.83-3.01-.95-.28-1.83-.83-2.53-1.63h0c-1.9-2.22-1.64-5.59.58-7.49l18.5-15.85c2.22-1.9,5.59-1.64,7.49.58h0c1.54,1.79,1.66,4.34.48,6.25,2.15-.54,4.51.32,5.77,2.28h0c1.38,2.16,1,4.96-.78,6.68,2.45-.66,5.11.53,6.21,2.91h0c1.22,2.66.05,5.83-2.61,7.05l-1.13.52Z"/>
        <path class="cls-6" d="M388.36,257.59c2.15-.54,4.51.32,5.77,2.28,1.38,2.16.85,4.85-.93,6.57,2.45-.66,5.27.64,6.36,3.02,1.22,2.66-.23,4.79-2.89,6.01l-1.13.52,1.7-.51c2.8-.84,6.06,1.79,6.9,4.59.27.9.29,1.82.1,2.68l4.58-1.38c2.8-.84,4.4-3.82,3.56-6.62s-3.82-4.4-6.62-3.56l-1.7.51,1.13-.52c2.66-1.22,3.83-4.39,2.61-7.05-1.1-2.38-3.76-3.57-6.21-2.91,1.77-1.72,2.16-4.53.78-6.68-1.26-1.96-3.62-2.82-5.77-2.28,1.18-1.91,1.05-4.46-.48-6.25-1.9-2.22-5.27-2.48-7.49-.58l-4.71,4.04c1.48.02,2.94.65,3.97,1.85,1.54,1.79,1.66,4.34.48,6.25Z"/>
        <path class="cls-6" d="M380.98,281.91c-.36.14-.77-.04-.92-.4-.14-.36.04-.77.4-.91l21.61-8.4c.36-.14.77.04.91.4.14.36-.04.77-.4.91l-21.61,8.4Z"/>
        <path class="cls-6" d="M377.06,275.34c-.34.18-.77.05-.96-.29-.19-.35-.06-.77.29-.96l22.82-12.19c.34-.18.77-.06.96.29.18.34.05.77-.29.96l-22.82,12.19Z"/>
        <path class="cls-6" d="M374.23,269.79c-.31.23-.76.17-.99-.15-.23-.31-.17-.76.15-.99l19.72-14.64c.31-.23.76-.17.99.15.23.31.17.76-.15.99l-19.72,14.64Z"/>
        <path class="cls-1" d="M404.19,330.53c1.35.8,1.79,2.54,1,3.89-.8,1.35-2.54,1.79-3.88,1l-31.22-18.6c-1.35-.8-1.79-2.54-1-3.88.8-1.35,2.54-1.79,3.89-1l31.22,18.6Z"/>
      </g>
    </g>
    <g>
      <path class="cls-7" d="M256,316.37c49.45,0,89.53-42.57,89.53-79.26s-40.08-53.61-89.53-53.61-89.53,16.92-89.53,53.61,40.08,79.26,89.53,79.26Z"/>
      <path class="cls-8" d="M318.08,195.9c-16.1-8.37-37.97-12.4-62.08-12.4s-45.98,4.02-62.08,12.4c18.1,5.19,39.34,7.7,62.08,7.7s43.98-2.52,62.08-7.7Z"/>
      <g>
        <path class="cls-6" d="M185.13,201.34c6.45,10.61,17.03,18.56,29.65,23.83,2.75,1.15,5.6,2.17,8.52,3.07-.65,1.22-1.23,2.48-1.75,3.77-2.86-.89-5.65-1.91-8.36-3.04-13.22-5.52-24.36-13.87-31.31-25.06,1.04-.89,2.12-1.75,3.25-2.58h0ZM288.71,228.25c2.92-.89,5.77-1.92,8.52-3.07,12.61-5.27,23.19-13.22,29.65-23.83,1.13.83,2.21,1.69,3.25,2.58-6.95,11.18-18.09,19.53-31.31,25.06-2.7,1.13-5.49,2.14-8.36,3.04-.51-1.29-1.1-2.55-1.75-3.77Z"/>
        <path class="cls-6" d="M185.77,283.28c6.5-10.1,16.8-17.71,29.01-22.81,2.06-.86,4.18-1.65,6.34-2.37-.46-1.29-.85-2.61-1.17-3.95-2.3.76-4.56,1.6-6.75,2.52-12.52,5.23-23.17,12.99-30.17,23.29.88,1.12,1.8,2.23,2.74,3.32h0ZM290.89,258.11c2.16.72,4.28,1.51,6.34,2.37,12.21,5.1,22.5,12.71,29,22.81.94-1.09,1.86-2.2,2.74-3.32-7-10.3-17.65-18.06-30.17-23.29-2.2-.92-4.45-1.76-6.75-2.52-.32,1.35-.71,2.67-1.17,3.95Z"/>
      </g>
      <path class="cls-8" d="M256,277.68c17.65,0,32.04-14.39,32.04-32.04s-14.39-32.04-32.04-32.04-32.04,14.39-32.04,32.04,14.39,32.04,32.04,32.04Z"/>
      <path class="cls-4" d="M256,270.76c13.84,0,25.12-11.28,25.12-25.12s-11.28-25.12-25.12-25.12-25.12,11.28-25.12,25.12,11.28,25.12,25.12,25.12Z"/>
      <path class="cls-3" d="M256,264.6c10.44,0,18.95-8.52,18.95-18.96s-8.51-18.95-18.95-18.95-18.95,8.52-18.95,18.95,8.51,18.96,18.95,18.96Z"/>
      <path class="cls-1" d="M265.29,225.6c-5.79,0-10.48,4.69-10.48,10.48s4.69,10.48,10.48,10.48,10.48-4.69,10.48-10.48-4.69-10.48-10.48-10.48Z"/>
      <path class="cls-6" d="M256,210.15c-9.8,0-18.67,3.97-25.1,10.4-6.42,6.42-10.39,15.29-10.39,25.1s3.97,18.67,10.39,25.1c6.42,6.42,15.3,10.4,25.1,10.4s18.67-3.97,25.1-10.4c6.42-6.42,10.4-15.3,10.4-25.1s-3.97-18.67-10.4-25.1c-6.42-6.42-15.3-10.4-25.1-10.4h0ZM228.72,218.36c6.98-6.98,16.63-11.3,27.28-11.3s20.3,4.32,27.28,11.3c6.98,6.98,11.3,16.63,11.3,27.28s-4.32,20.3-11.3,27.28c-6.98,6.98-16.63,11.3-27.28,11.3s-20.3-4.32-27.28-11.3c-6.98-6.98-11.3-16.63-11.3-27.28s4.32-20.3,11.3-27.28Z"/>
      <path class="cls-1" d="M253.55,243.89c-2.17,0-3.93,1.76-3.93,3.93s1.76,3.93,3.93,3.93,3.93-1.76,3.93-3.93-1.76-3.93-3.93-3.93Z"/>
      <path class="cls-6" d="M256,311.76c23.83,0,43.15-9.88,43.15-18.37s-19.32,5.38-43.15,5.38-43.15-13.87-43.15-5.38,19.32,18.37,43.15,18.37Z"/>
    </g>
    <g>
      <g>
        <path class="cls-7" d="M256.34,31.81c65.35,0,118.32,52.92,118.32,98.54s-52.97,66.66-118.32,66.66-118.32-21.04-118.32-66.66,52.97-98.54,118.32-98.54Z"/>
        <path class="cls-6" d="M256.34,51.7c11.47,0,22.85,2.12,33.54,6.09,10.75,4,20.81,9.88,29.57,17.38,7.77,6.65,14.89,15.02,19.85,24.39,4.35,8.23,7.04,17.22,7.04,26.52,0,3.39-.37,6.72-1.13,9.97-.74,3.18-1.86,6.26-3.37,9.23-6.12,12.03-17.36,20-30.42,25.18-17.77,7.05-38.92,8.96-55.08,8.96s-37.32-1.91-55.08-8.96c-13.06-5.19-24.3-13.16-30.42-25.18-1.51-2.96-2.62-6.05-3.37-9.23-.76-3.25-1.13-6.58-1.13-9.97,0-9.29,2.69-18.29,7.04-26.52,4.96-9.37,12.08-17.74,19.85-24.39,8.76-7.5,18.81-13.38,29.57-17.38,10.69-3.98,22.07-6.09,33.54-6.09h0ZM289.17,59.7c-10.45-3.89-21.59-5.96-32.83-5.96s-22.37,2.07-32.83,5.96c-10.53,3.92-20.37,9.67-28.96,17.02-7.59,6.49-14.54,14.66-19.37,23.79-4.21,7.95-6.8,16.63-6.8,25.57,0,3.24.35,6.42,1.07,9.51.7,3.01,1.77,5.95,3.2,8.76,5.87,11.53,16.72,19.2,29.35,24.22,17.47,6.93,38.35,8.81,54.33,8.81s36.87-1.87,54.33-8.81c12.64-5.02,23.49-12.68,29.35-24.22,1.43-2.82,2.5-5.75,3.2-8.76.72-3.09,1.07-6.27,1.07-9.51,0-8.94-2.6-17.62-6.8-25.57-4.83-9.13-11.79-17.29-19.37-23.79-8.58-7.35-18.43-13.1-28.96-17.02Z"/>
        <path class="cls-8" d="M256.34,61.05c44.54,0,80.65,34.92,80.65,65.03s-36.11,43.99-80.65,43.99-80.65-13.88-80.65-43.99,36.11-65.03,80.65-65.03Z"/>
        <g>
          <path class="cls-6" d="M155.36,82.88c6.55,12.2,9.02,27.31,8.46,41.92-.6,15.89-4.78,31.23-11.15,41.59-.49-.51-.97-1.02-1.44-1.54,6.03-10.04,9.98-24.79,10.56-40.12.53-13.93-1.73-28.3-7.75-40,.44-.62.88-1.24,1.32-1.85Z"/>
          <path class="cls-6" d="M358.64,84.73c-6.02,11.69-8.28,26.07-7.75,40,.58,15.33,4.53,30.08,10.56,40.12-.47.52-.95,1.03-1.44,1.54-6.37-10.36-10.55-25.7-11.16-41.59-.55-14.61,1.91-29.72,8.46-41.92.45.61.89,1.23,1.32,1.85Z"/>
        </g>
        <path class="cls-1" d="M256.34,35.71c29.23,0,52.91,8.9,52.91,16.56s-23.69-4.85-52.91-4.85-52.92,12.5-52.92,4.85,23.69-16.56,52.92-16.56Z"/>
      </g>
      <g>
        <path class="cls-1" d="M287.49,142.21c-1.6-4.79-5.72-8.9-11.4-11.72-5.25-2.61-11.91-4.17-19.11-4.17s-13.86,1.57-19.11,4.17c-5.68,2.82-9.8,6.93-11.4,11.72l6.34,2.1c1.01-3.03,3.91-5.77,8.02-7.81,4.36-2.17,9.98-3.47,16.15-3.47s11.79,1.3,16.15,3.47c4.1,2.04,7.01,4.78,8.02,7.81l6.34-2.1Z"/>
        <path class="cls-4" d="M215.72,106.24l8.02-8.02c1.91-1.91,5.02-1.91,6.93,0s1.91,5.02,0,6.93l-8.02,8.02c-1.91,1.91-5.02,1.91-6.93,0s-1.91-5.02,0-6.93h0ZM290.23,98.22l8.02,8.02c1.91,1.91,1.91,5.02,0,6.93s-5.02,1.91-6.93,0l-8.02-8.02c-1.91-1.91-1.91-5.02,0-6.93s5.02-1.91,6.93,0Z"/>
      </g>
    </g>
  </g>
</svg>