<?xml version="1.0" encoding="UTF-8"?>
<svg id="Layer_1" data-name="Layer 1" xmlns="http://www.w3.org/2000/svg" viewBox="0 0 512 512">
  <defs>
    <style>
      .cls-1, .cls-2, .cls-3, .cls-4, .cls-5, .cls-6, .cls-7, .cls-8 {
        fill-rule: evenodd;
      }

      .cls-1, .cls-9 {
        fill: #fff;
      }

      .cls-2 {
        fill: #62626b;
      }

      .cls-3 {
        fill: #5391cc;
      }

      .cls-4 {
        fill: #6db8da;
      }

      .cls-5 {
        fill: #5f5d65;
      }

      .cls-6 {
        fill: #a5a8ae;
      }

      .cls-7 {
        fill: #ced4d9;
      }

      .cls-10, .cls-8 {
        fill: #383540;
      }
    </style>
  </defs>
  <path class="cls-7" d="M256,482.41c92.02,0,167.07-8.41,167.07-18.73s-75.05-18.73-167.07-18.73-167.07,8.41-167.07,18.73,75.05,18.73,167.07,18.73Z"/>
  <g>
    <g>
      <g>
        <rect class="cls-10" x="239.56" y="276.46" width="32.88" height="61.4" transform="translate(-3.81 3.21) rotate(-.71)"/>
        <path class="cls-6" d="M256,335.78c28.98,0,52.48,20.65,52.48,38.45,0,9.33-6.45,12.26-16.77,12.94-8.24.54-70.28.37-75.59-.44-7.85-1.2-12.6-4.5-12.6-12.5,0-17.8,23.5-38.45,52.48-38.45Z"/>
        <path class="cls-7" d="M256,335.78c22.55,0,41.78,12.5,49.2,26.43-3.14,2.92-8.4,4.01-15.13,4.3-14.81.63-55.16.78-69.36-.06-6.15-.36-10.97-1.49-13.92-4.24,7.42-13.93,26.65-26.43,49.2-26.43Z"/>
        <path class="cls-1" d="M256,339.9c-12.7,0-22.99,3.75-22.99,8.37s10.3,8.37,22.99,8.37,23-3.75,23-8.37-10.29-8.37-23-8.37Z"/>
      </g>
      <g>
        <g>
          <g>
            <path class="cls-7" d="M125.26,419.61c0-11.66,8.31-21.11,15.47-21.11s4.95,9.45,4.95,21.11,2.21,21.11-4.95,21.11-15.47-9.45-15.47-21.11Z"/>
            <path class="cls-7" d="M386.74,419.61c0-11.66-8.31-21.11-15.47-21.11s-4.95,9.45-4.95,21.11-2.21,21.11,4.95,21.11,15.47-9.45,15.47-21.11Z"/>
          </g>
          <path class="cls-10" d="M161.05,373.87h189.9c12.55,0,22.74,10.19,22.74,22.74v45.98c0,12.55-10.19,22.74-22.74,22.74h-189.9c-12.55,0-22.74-10.19-22.74-22.74v-45.98c0-12.55,10.19-22.74,22.74-22.74Z"/>
          <path class="cls-2" d="M156.37,391.31c-1.71,0-3.1-1.39-3.1-3.09s1.39-3.09,3.1-3.09h199.25c1.71,0,3.1,1.39,3.1,3.09s-1.39,3.09-3.1,3.09h-199.25Z"/>
          <path class="cls-2" d="M156.37,407.01c-1.71,0-3.1-1.39-3.1-3.1s1.39-3.09,3.1-3.09h199.25c1.71,0,3.1,1.39,3.1,3.09s-1.39,3.1-3.1,3.1h-199.25Z"/>
          <path class="cls-2" d="M156.37,422.7c-1.71,0-3.1-1.39-3.1-3.09s1.39-3.1,3.1-3.1h199.25c1.71,0,3.1,1.39,3.1,3.1s-1.39,3.09-3.1,3.09h-199.25Z"/>
          <path class="cls-2" d="M156.37,438.39c-1.71,0-3.1-1.39-3.1-3.09s1.39-3.1,3.1-3.1h199.25c1.71,0,3.1,1.39,3.1,3.1s-1.39,3.09-3.1,3.09h-199.25Z"/>
          <path class="cls-2" d="M156.37,454.09c-1.71,0-3.1-1.39-3.1-3.1s1.39-3.09,3.1-3.09h199.25c1.71,0,3.1,1.39,3.1,3.09s-1.39,3.1-3.1,3.1h-199.25Z"/>
          <path class="cls-6" d="M138.31,440.38v-15.29c-4.8-1.32-9.64-6.39-11.83-13.13-.77,2.37-1.22,4.95-1.22,7.64,0,10.36,6.56,18.98,13.05,20.77Z"/>
          <path class="cls-6" d="M373.69,425.09v15.29c6.49-1.79,13.05-10.41,13.05-20.77,0-2.7-.44-5.27-1.22-7.64-2.19,6.74-7.04,11.8-11.83,13.13Z"/>
        </g>
        <g>
          <g>
            <path class="cls-8" d="M158.59,461.15h12.39c2.06,0,3.74,1.68,3.74,3.74h0c0,2.06-1.68,3.74-3.74,3.74h-12.39c-2.06,0-3.74-1.68-3.74-3.74h0c0-2.06,1.68-3.74,3.74-3.74Z"/>
            <path class="cls-8" d="M184.66,461.15h12.39c2.06,0,3.74,1.68,3.74,3.74h0c0,2.06-1.68,3.74-3.74,3.74h-12.39c-2.06,0-3.74-1.68-3.74-3.74h0c0-2.06,1.68-3.74,3.74-3.74Z"/>
            <path class="cls-8" d="M210.72,461.15h12.39c2.05,0,3.74,1.68,3.74,3.74h0c0,2.06-1.68,3.74-3.74,3.74h-12.39c-2.06,0-3.74-1.68-3.74-3.74h0c0-2.06,1.68-3.74,3.74-3.74Z"/>
            <path class="cls-8" d="M236.78,461.15h12.39c2.06,0,3.74,1.68,3.74,3.74h0c0,2.06-1.68,3.74-3.74,3.74h-12.39c-2.06,0-3.74-1.68-3.74-3.74h0c0-2.06,1.68-3.74,3.74-3.74Z"/>
            <path class="cls-8" d="M262.84,461.15h12.39c2.06,0,3.74,1.68,3.74,3.74h0c0,2.06-1.68,3.74-3.74,3.74h-12.39c-2.06,0-3.74-1.68-3.74-3.74h0c0-2.06,1.68-3.74,3.74-3.74Z"/>
            <path class="cls-8" d="M288.9,461.15h12.39c2.05,0,3.74,1.68,3.74,3.74h0c0,2.06-1.68,3.74-3.74,3.74h-12.39c-2.05,0-3.74-1.68-3.74-3.74h0c0-2.06,1.68-3.74,3.74-3.74Z"/>
            <path class="cls-8" d="M314.96,461.15h12.39c2.06,0,3.74,1.68,3.74,3.74h0c0,2.06-1.68,3.74-3.74,3.74h-12.39c-2.06,0-3.74-1.68-3.74-3.74h0c0-2.06,1.68-3.74,3.74-3.74Z"/>
            <path class="cls-8" d="M341.02,461.15h12.39c2.06,0,3.74,1.68,3.74,3.74h0c0,2.06-1.68,3.74-3.74,3.74h-12.39c-2.06,0-3.74-1.68-3.74-3.74h0c0-2.06,1.68-3.74,3.74-3.74Z"/>
          </g>
          <g>
            <path class="cls-8" d="M158.59,370.58h12.39c2.06,0,3.74,1.68,3.74,3.74h0c0,2.06-1.68,3.74-3.74,3.74h-12.39c-2.06,0-3.74-1.68-3.74-3.74h0c0-2.05,1.68-3.74,3.74-3.74Z"/>
            <path class="cls-8" d="M184.66,370.58h12.39c2.06,0,3.74,1.68,3.74,3.74h0c0,2.06-1.68,3.74-3.74,3.74h-12.39c-2.06,0-3.74-1.68-3.74-3.74h0c0-2.05,1.68-3.74,3.74-3.74Z"/>
            <path class="cls-8" d="M210.72,370.58h12.39c2.05,0,3.74,1.68,3.74,3.74h0c0,2.06-1.68,3.74-3.74,3.74h-12.39c-2.06,0-3.74-1.68-3.74-3.74h0c0-2.05,1.68-3.74,3.74-3.74Z"/>
            <path class="cls-8" d="M236.78,370.58h12.39c2.06,0,3.74,1.68,3.74,3.74h0c0,2.06-1.68,3.74-3.74,3.74h-12.39c-2.06,0-3.74-1.68-3.74-3.74h0c0-2.05,1.68-3.74,3.74-3.74Z"/>
            <path class="cls-8" d="M262.84,370.58h12.39c2.06,0,3.74,1.68,3.74,3.74h0c0,2.06-1.68,3.74-3.74,3.74h-12.39c-2.06,0-3.74-1.68-3.74-3.74h0c0-2.05,1.68-3.74,3.74-3.74Z"/>
            <path class="cls-8" d="M288.9,370.58h12.39c2.05,0,3.74,1.68,3.74,3.74h0c0,2.06-1.68,3.74-3.74,3.74h-12.39c-2.05,0-3.74-1.68-3.74-3.74h0c0-2.05,1.68-3.74,3.74-3.74Z"/>
            <path class="cls-8" d="M314.96,370.58h12.39c2.06,0,3.74,1.68,3.74,3.74h0c0,2.06-1.68,3.74-3.74,3.74h-12.39c-2.06,0-3.74-1.68-3.74-3.74h0c0-2.05,1.68-3.74,3.74-3.74Z"/>
            <path class="cls-8" d="M341.02,370.58h12.39c2.06,0,3.74,1.68,3.74,3.74h0c0,2.06-1.68,3.74-3.74,3.74h-12.39c-2.06,0-3.74-1.68-3.74-3.74h0c0-2.05,1.68-3.74,3.74-3.74Z"/>
          </g>
        </g>
      </g>
    </g>
    <g>
      <g>
        <g>
          <path class="cls-8" d="M77.98,147.66c4.61,2.92,7.6,7.44,8.71,12.37,1.1,4.92.32,10.27-2.6,14.89-2.92,4.61-7.43,7.6-12.37,8.71-4.92,1.1-10.27.32-14.89-2.6-3-1.9-5.29-4.42-6.82-7.27-1.61-2.99-2.42-6.39-2.36-9.85.03-1.76.31-3.54.83-5.27.5-1.66,1.24-3.3,2.24-4.87l-18.99-12.01c-2.1,3.31-3.68,6.83-4.77,10.45-1.12,3.72-1.71,7.54-1.78,11.34-.14,7.2,1.6,14.37,5.05,20.78,3.35,6.22,8.26,11.68,14.58,15.68,9.84,6.23,21.28,7.88,31.84,5.51,10.54-2.37,20.18-8.75,26.41-18.59,6.23-9.84,7.88-21.29,5.51-31.84-2.37-10.54-8.75-20.18-18.59-26.42l-12.01,18.99Z"/>
          <path class="cls-5" d="M84.09,174.91c-2.92,4.61-7.43,7.6-12.37,8.71-4.92,1.1-10.27.32-14.89-2.6l-12.01,18.99c9.84,6.23,21.28,7.88,31.84,5.51,10.54-2.37,20.18-8.75,26.41-18.59l-18.99-12.01Z"/>
        </g>
        <g>
          <path class="cls-6" d="M161.59,208.29c12.2-5.02,26.44,1.48,31.81,14.52,5.37,13.04-.16,27.69-12.36,32.71-12.2,5.02-26.44-1.48-31.81-14.52-5.37-13.04.16-27.69,12.36-32.71Z"/>
          <path class="cls-7" d="M168.93,256.94c1.19-2.71,1.82-5.65,1.96-8.67.2-4.32-.62-8.81-2.28-13.07-1.67-4.27-4.18-8.32-7.38-11.73-2.74-2.92-5.98-5.38-9.63-7.13.28-.4.57-.79.87-1.17,3.71,1.82,7.01,4.34,9.8,7.32,3.33,3.55,5.94,7.75,7.67,12.19,1.73,4.45,2.58,9.14,2.37,13.65-.14,3.05-.76,6.03-1.91,8.79-.49-.04-.98-.11-1.47-.18Z"/>
        </g>
        <path class="cls-8" d="M160.05,247.73c-3.98,1.45-8.39,2.67-13.05,3.55-10.32,1.95-22.21,2.4-33.57.1-12.02-2.42-23.53-7.85-32.32-17.66-6.47-7.22-11.32-16.66-13.62-28.84l20.88-4c1.52,8.07,4.58,14.16,8.6,18.65,5.38,6,12.76,9.39,20.63,10.98,8.53,1.72,17.54,1.37,25.39-.11,3.65-.69,6.95-1.57,9.76-2.56,5.47-1.93,15.61,16.86,7.29,19.89Z"/>
        <path class="cls-7" d="M95.56,208.72l-31.56,10.19c-3.79,1.22-7.88-.87-9.11-4.66h0c-1.22-3.79.87-7.88,4.66-9.11l31.56-10.19c3.79-1.22,7.88.87,9.11,4.66h0c1.22,3.79-.87,7.88-4.66,9.11Z"/>
        <path class="cls-7" d="M103.12,248.62l-.7,1.52c-1.14,2.5-4.12,3.61-6.61,2.47h0c-2.5-1.14-3.61-4.12-2.47-6.61l9.51-20.83c1.14-2.5,4.12-3.61,6.61-2.47h0c1.01.46,1.79,1.22,2.29,2.13,1.12-.6,2.47-.78,3.78-.39h0c1.03.31,1.88.92,2.5,1.7.94-.53,2.05-.76,3.19-.59h0c1.02.15,1.93.62,2.64,1.28.79-.5,1.72-.78,2.72-.77h0c2.74.03,4.96,2.31,4.93,5.05l-.27,22.89c-.03,2.75-2.3,4.97-5.05,4.93h0c-2.22-.03-4.09-1.51-4.72-3.53-.95,1.85-3.02,2.99-5.19,2.66h0c-2.38-.36-4.12-2.37-4.24-4.69-1.05,2.14-3.54,3.28-5.9,2.58h0c-2.63-.78-4.14-3.58-3.36-6.21l.33-1.12Z"/>
        <path class="cls-6" d="M122.83,246.29c-.95,1.85-3.02,2.99-5.19,2.66-2.38-.36-3.95-2.41-4.06-4.73-1.06,2.14-3.72,3.32-6.08,2.62-2.63-.78-3.24-3.14-2.46-5.77l.33-1.12-.7,1.52c-1.14,2.5-5.02,3.17-7.52,2.03-.8-.37-1.47-.93-1.95-1.59l-1.87,4.09c-1.14,2.5-.03,5.47,2.47,6.61s5.47.03,6.61-2.47l.7-1.52-.33,1.12c-.78,2.63.73,5.43,3.36,6.21,2.36.7,4.85-.44,5.9-2.58.12,2.32,1.86,4.33,4.24,4.69,2.17.33,4.24-.81,5.19-2.66.62,2.02,2.5,3.51,4.72,3.53,2.75.03,5.02-2.19,5.05-4.93l.07-5.83c-.93,1.03-2.28,1.68-3.77,1.66-2.22-.03-4.09-1.51-4.72-3.53Z"/>
        <path class="cls-6" d="M110.23,226.01c.13-.34.51-.52.85-.4.34.12.52.51.4.85l-7.46,20.47c-.12.34-.51.52-.85.4-.34-.12-.52-.5-.4-.85l7.46-20.47Z"/>
        <path class="cls-6" d="M117.31,227.32c.08-.36.44-.58.8-.5.36.08.58.44.5.8l-5.54,23.67c-.08.36-.44.58-.8.5-.36-.08-.58-.44-.5-.8l5.53-23.67Z"/>
        <path class="cls-6" d="M122.97,228.76c.03-.37.35-.64.72-.61.37.03.64.35.61.72l-1.89,23c-.03.37-.35.64-.72.61-.37-.03-.64-.35-.61-.72l1.89-23Z"/>
        <path class="cls-1" d="M61.51,212.27c-1.4.46-2.9-.31-3.36-1.71-.46-1.4.31-2.9,1.7-3.36l32.49-10.52c1.4-.46,2.9.31,3.36,1.7.46,1.4-.31,2.9-1.7,3.36l-32.49,10.52Z"/>
      </g>
      <g>
        <g>
          <path class="cls-8" d="M455.23,155.71c-5.33,2.32-9.21,6.58-11.17,11.59-1.96,4.99-2.01,10.74.32,16.08,2.32,5.33,6.58,9.21,11.59,11.17,4.99,1.96,10.75,2.01,16.08-.32,3.46-1.51,6.28-3.79,8.35-6.53,2.18-2.88,3.58-6.33,4.08-9.97.25-1.86.25-3.77-.01-5.68-.26-1.83-.77-3.67-1.56-5.49l21.93-9.55c1.67,3.82,2.76,7.78,3.32,11.77.57,4.1.57,8.21.02,12.22-1.03,7.59-4.03,14.86-8.69,21.04-4.53,6-10.59,10.94-17.89,14.12-11.36,4.95-23.67,4.83-34.39.62-10.7-4.2-19.8-12.49-24.76-23.85-4.95-11.36-4.82-23.67-.61-34.39,4.2-10.7,12.49-19.8,23.85-24.76l9.55,21.93Z"/>
          <path class="cls-5" d="M444.37,183.38c2.32,5.33,6.58,9.21,11.59,11.17,4.99,1.96,10.75,2.01,16.08-.32l9.55,21.92c-11.36,4.95-23.67,4.83-34.39.62-10.7-4.2-19.8-12.49-24.76-23.85l21.93-9.55Z"/>
        </g>
        <g>
          <path class="cls-6" d="M357.43,205.87c-12.01-7.27-28.05-2.75-35.82,10.1-7.77,12.84-4.33,29.15,7.68,36.41,12.01,7.27,28.05,2.75,35.82-10.1,7.77-12.84,4.33-29.15-7.68-36.41Z"/>
          <path class="cls-7" d="M341.79,255.84c-.81-3.05-1-6.24-.65-9.44.49-4.57,2.08-9.16,4.52-13.38,2.45-4.22,5.75-8.07,9.67-11.14,3.36-2.63,7.17-4.68,11.29-5.93-.23-.46-.47-.92-.72-1.37-4.2,1.31-8.08,3.43-11.5,6.1-4.08,3.19-7.51,7.18-10.05,11.57-2.54,4.39-4.2,9.19-4.72,13.97-.35,3.23-.18,6.46.58,9.56.53.03,1.05.05,1.58.05Z"/>
        </g>
        <path class="cls-8" d="M352.63,247.6c3.95,2.17,8.39,4.17,13.15,5.85,10.54,3.73,22.97,6.13,35.28,5.57,13.04-.59,26.02-4.43,36.86-13.32,7.98-6.54,14.61-15.68,19.01-28.12l-21.31-7.6c-2.91,8.24-7.12,14.14-12.08,18.21-6.63,5.44-14.95,7.8-23.48,8.19-9.25.42-18.67-1.41-26.69-4.25-3.72-1.32-7.06-2.78-9.85-4.28-5.44-2.92-19.16,15.2-10.9,19.73Z"/>
        <path class="cls-7" d="M426.8,217.07l31.53,15.85c3.78,1.9,8.43.36,10.33-3.42h0c1.9-3.78.36-8.43-3.42-10.33l-31.53-15.86c-3.78-1.9-8.43-.36-10.33,3.42h0c-1.9,3.78-.36,8.43,3.42,10.33Z"/>
        <path class="cls-7" d="M412.36,257.8l.48,1.71c.79,2.81,3.74,4.46,6.55,3.67h0c2.81-.79,4.47-3.74,3.67-6.55l-6.61-23.45c-.79-2.81-3.74-4.46-6.55-3.67h0c-1.13.32-2.08.99-2.75,1.86-1.08-.81-2.47-1.22-3.91-1.02h0c-1.13.15-2.13.66-2.9,1.39-.9-.71-2.03-1.14-3.26-1.14h0c-1.1,0-2.13.34-2.99.91-.75-.65-1.68-1.1-2.73-1.25h0c-2.89-.41-5.6,1.62-6.01,4.51l-3.44,24.12c-.41,2.89,1.62,5.6,4.51,6.01h0c2.34.33,4.55-.93,5.53-2.95.7,2.1,2.69,3.63,5.03,3.64h0c2.56,0,4.72-1.83,5.22-4.25.76,2.42,3.19,4.03,5.79,3.68h0c2.9-.4,4.94-3.09,4.54-5.98l-.17-1.23Z"/>
        <path class="cls-6" d="M392.01,252.15c.7,2.1,2.69,3.63,5.03,3.64,2.56,0,4.55-1.89,5.04-4.31.76,2.42,3.37,4.1,5.97,3.74,2.9-.4,3.92-2.77,3.52-5.67l-.17-1.23.48,1.71c.79,2.81,4.76,4.15,7.58,3.35.9-.26,1.69-.74,2.31-1.36l1.3,4.6c.79,2.81-.86,5.76-3.67,6.55s-5.76-.86-6.55-3.67l-.48-1.71.17,1.23c.4,2.9-1.65,5.59-4.54,5.98-2.6.35-5.03-1.25-5.79-3.68-.5,2.42-2.66,4.25-5.22,4.25-2.33,0-4.32-1.54-5.03-3.64-.98,2.02-3.2,3.28-5.53,2.95-2.89-.41-4.92-3.12-4.51-6.01l.88-6.15c.81,1.24,2.12,2.13,3.69,2.36,2.34.33,4.55-.93,5.53-2.95Z"/>
        <path class="cls-6" d="M408.56,232.87c-.08-.38-.45-.63-.83-.56-.38.07-.63.45-.56.83l4.52,22.74c.07.38.45.63.83.55.38-.07.63-.45.56-.83l-4.52-22.74Z"/>
        <path class="cls-6" d="M400.91,233.09c-.03-.39-.37-.68-.76-.65-.39.03-.68.37-.66.76l1.97,25.79c.03.39.37.68.76.65.39-.03.68-.37.65-.76l-1.97-25.79Z"/>
        <path class="cls-6" d="M394.71,233.68c.03-.39-.27-.73-.65-.76-.39-.03-.73.27-.76.65l-1.76,24.5c-.03.39.26.73.66.76.39.03.73-.26.76-.65l1.76-24.5Z"/>
        <path class="cls-1" d="M462.04,226.34c1.4.71,3.1.15,3.81-1.25.71-1.39.15-3.1-1.24-3.81l-32.46-16.35c-1.4-.71-3.1-.15-3.81,1.24-.71,1.4-.15,3.1,1.25,3.81l32.46,16.35Z"/>
      </g>
    </g>
    <g>
      <path class="cls-7" d="M256,316.37c49.45,0,89.53-42.57,89.53-79.26s-40.08-53.61-89.53-53.61-89.53,16.92-89.53,53.61,40.08,79.26,89.53,79.26Z"/>
      <path class="cls-8" d="M318.08,195.9c-16.1-8.37-37.97-12.4-62.08-12.4s-45.98,4.02-62.08,12.4c18.1,5.19,39.34,7.7,62.08,7.7s43.98-2.52,62.08-7.7Z"/>
      <g>
        <path class="cls-6" d="M185.13,201.34c6.45,10.61,17.03,18.56,29.65,23.83,2.75,1.15,5.6,2.17,8.52,3.07-.65,1.22-1.23,2.48-1.75,3.77-2.86-.89-5.65-1.91-8.36-3.04-13.22-5.52-24.36-13.87-31.31-25.06,1.04-.89,2.12-1.75,3.25-2.58h0ZM288.71,228.25c2.92-.89,5.77-1.92,8.52-3.07,12.61-5.27,23.19-13.22,29.65-23.83,1.13.83,2.21,1.69,3.25,2.58-6.95,11.18-18.09,19.53-31.31,25.06-2.7,1.13-5.49,2.14-8.36,3.04-.51-1.29-1.1-2.55-1.75-3.77Z"/>
        <path class="cls-6" d="M185.77,283.28c6.5-10.1,16.8-17.71,29.01-22.81,2.06-.86,4.18-1.65,6.34-2.37-.46-1.29-.85-2.61-1.17-3.95-2.3.76-4.56,1.6-6.75,2.52-12.52,5.23-23.17,12.99-30.17,23.29.88,1.12,1.8,2.23,2.74,3.32h0ZM290.89,258.11c2.16.72,4.28,1.51,6.34,2.37,12.21,5.1,22.5,12.71,29,22.81.94-1.09,1.86-2.2,2.74-3.32-7-10.3-17.65-18.06-30.17-23.29-2.2-.92-4.45-1.76-6.75-2.52-.32,1.35-.71,2.67-1.17,3.95Z"/>
      </g>
      <path class="cls-8" d="M256,277.68c17.65,0,32.04-14.39,32.04-32.04s-14.39-32.04-32.04-32.04-32.04,14.39-32.04,32.04,14.39,32.04,32.04,32.04Z"/>
      <path class="cls-4" d="M256,270.76c13.84,0,25.12-11.28,25.12-25.12s-11.28-25.12-25.12-25.12-25.12,11.28-25.12,25.12,11.28,25.12,25.12,25.12Z"/>
      <path class="cls-3" d="M256,264.6c10.44,0,18.95-8.52,18.95-18.96s-8.51-18.95-18.95-18.95-18.95,8.52-18.95,18.95,8.51,18.96,18.95,18.96Z"/>
      <path class="cls-1" d="M265.29,225.6c-5.79,0-10.48,4.69-10.48,10.48s4.69,10.48,10.48,10.48,10.48-4.69,10.48-10.48-4.69-10.48-10.48-10.48Z"/>
      <path class="cls-6" d="M256,210.15c-9.8,0-18.67,3.97-25.1,10.4-6.42,6.42-10.39,15.29-10.39,25.1s3.97,18.67,10.39,25.1c6.42,6.42,15.3,10.4,25.1,10.4s18.67-3.97,25.1-10.4c6.42-6.42,10.4-15.3,10.4-25.1s-3.97-18.67-10.4-25.1c-6.42-6.42-15.3-10.4-25.1-10.4h0ZM228.72,218.36c6.98-6.98,16.63-11.3,27.28-11.3s20.3,4.32,27.28,11.3c6.98,6.98,11.3,16.63,11.3,27.28s-4.32,20.3-11.3,27.28c-6.98,6.98-16.63,11.3-27.28,11.3s-20.3-4.32-27.28-11.3c-6.98-6.98-11.3-16.63-11.3-27.28s4.32-20.3,11.3-27.28Z"/>
      <path class="cls-1" d="M253.55,243.89c-2.17,0-3.93,1.76-3.93,3.93s1.76,3.93,3.93,3.93,3.93-1.76,3.93-3.93-1.76-3.93-3.93-3.93Z"/>
      <path class="cls-6" d="M256,311.76c23.83,0,43.15-9.88,43.15-18.37s-19.32,5.38-43.15,5.38-43.15-13.87-43.15-5.38,19.32,18.37,43.15,18.37Z"/>
    </g>
    <g>
      <g>
        <path class="cls-7" d="M255.76,30.64c65.66,0,118.9,53.18,118.9,99.02s-53.23,66.98-118.9,66.98-118.9-21.14-118.9-66.98S190.1,30.64,255.76,30.64Z"/>
        <path class="cls-6" d="M255.76,50.64c11.53,0,22.96,2.13,33.7,6.12,10.81,4.02,20.91,9.93,29.71,17.46,7.81,6.68,14.96,15.09,19.95,24.51,4.38,8.27,7.08,17.31,7.08,26.65,0,3.4-.37,6.76-1.14,10.02-.75,3.19-1.87,6.29-3.38,9.27-6.15,12.09-17.44,20.09-30.57,25.3-17.86,7.09-39.11,9-55.35,9s-37.5-1.91-55.35-9c-13.13-5.21-24.42-13.22-30.57-25.3-1.52-2.98-2.64-6.08-3.38-9.27-.76-3.26-1.13-6.61-1.13-10.02,0-9.34,2.7-18.38,7.08-26.65,4.98-9.41,12.14-17.82,19.95-24.51,8.8-7.53,18.91-13.44,29.71-17.46,10.75-4,22.18-6.12,33.7-6.12h0ZM288.75,58.67c-10.51-3.91-21.7-5.99-32.99-5.99s-22.48,2.08-32.99,5.99c-10.58,3.94-20.47,9.72-29.1,17.1-7.63,6.53-14.62,14.73-19.47,23.9-4.23,7.98-6.83,16.71-6.83,25.69,0,3.26.35,6.45,1.08,9.55.71,3.03,1.78,5.97,3.22,8.81,5.9,11.59,16.8,19.3,29.5,24.34,17.55,6.97,38.54,8.85,54.6,8.85s37.05-1.88,54.6-8.85c12.7-5.04,23.6-12.75,29.5-24.34,1.44-2.83,2.51-5.78,3.22-8.81.73-3.1,1.08-6.3,1.08-9.55,0-8.99-2.61-17.71-6.84-25.69-4.85-9.17-11.84-17.38-19.47-23.9-8.62-7.38-18.52-13.17-29.1-17.1Z"/>
        <path class="cls-8" d="M255.76,60.03c44.76,0,81.04,35.09,81.04,65.34s-36.29,44.2-81.04,44.2-81.05-13.95-81.05-44.2,36.29-65.34,81.05-65.34Z"/>
        <g>
          <path class="cls-6" d="M154.29,81.96c6.59,12.26,9.06,27.44,8.5,42.13-.61,15.97-4.81,31.38-11.21,41.79-.49-.51-.98-1.02-1.45-1.55,6.05-10.09,10.03-24.92,10.61-40.32.53-14-1.74-28.44-7.78-40.19.44-.62.88-1.24,1.33-1.86Z"/>
          <path class="cls-6" d="M358.56,83.82c-6.05,11.75-8.32,26.19-7.79,40.19.59,15.4,4.55,30.23,10.61,40.32-.47.52-.95,1.04-1.45,1.55-6.4-10.41-10.6-25.82-11.21-41.79-.56-14.68,1.91-29.87,8.5-42.13.45.62.89,1.24,1.33,1.86Z"/>
        </g>
        <path class="cls-1" d="M255.76,34.57c29.37,0,53.17,8.95,53.17,16.64s-23.81-4.87-53.17-4.87-53.17,12.56-53.17,4.87,23.81-16.64,53.17-16.64Z"/>
      </g>
      <g>
        <g>
          <g>
            <path class="cls-4" d="M223.8,115.03c7,.06,12.77-6.56,12.85-14.75s-5.57-14.91-12.57-14.98-12.77,6.56-12.85,14.75c-.08,8.19,5.57,14.92,12.57,14.98Z"/>
            <path class="cls-4" d="M289.19,115.63c7,.06,12.77-6.56,12.85-14.75.08-8.19-5.57-14.91-12.57-14.98s-12.77,6.56-12.85,14.75,5.57,14.92,12.57,14.98Z"/>
          </g>
          <path class="cls-1" d="M227.76,99.8c3,.03,5.47-2.4,5.5-5.4s-2.4-5.47-5.4-5.5-5.48,2.4-5.5,5.4,2.4,5.47,5.4,5.5Z"/>
          <path class="cls-1" d="M293.15,100.4c3,.03,5.47-2.4,5.5-5.4s-2.4-5.47-5.4-5.5-5.47,2.4-5.5,5.4,2.4,5.47,5.4,5.5Z"/>
        </g>
        <circle class="cls-9" cx="256" cy="139" r="15"/>
      </g>
    </g>
  </g>
</svg>