<?xml version="1.0" encoding="UTF-8"?>
<svg viewBox="0 0 110 90" version="1.1" xmlns="http://www.w3.org/2000/svg" xmlns:xlink="http://www.w3.org/1999/xlink">
    <path d="M14.5938,80.6562 C22.6562,80.6562 29.1875,74.125 29.1875,66.0625 C29.1875,58.0312 22.6562,51.4688 14.5938,51.4688 C6.53125,51.4688 0,58.0312 0,66.0625 C0,74.125 6.53125,80.6562 14.5938,80.6562 Z M14.5938,75.9688 C9.125,75.9688 4.71875,71.5312 4.71875,66.0625 C4.71875,60.5938 9.125,56.1875 14.5938,56.1875 C20.0625,56.1875 24.4688,60.5938 24.4688,66.0625 C24.4375,71.5625 20.0625,75.9375 14.5938,75.9688 Z M14.5938,70.0938 C16.8125,70.0938 18.5938,68.2812 18.5938,66.0625 C18.5938,63.875 16.8438,62.0625 14.5938,62.0625 C12.3438,62.0625 10.625,63.8438 10.5938,66.0625 C10.5625,68.2812 12.3125,70.0938 14.5938,70.0938 Z M88,80.6562 C96.0625,80.6562 102.594,74.125 102.594,66.0625 C102.594,58.0312 96.0625,51.4688 88,51.4688 C79.9375,51.4688 73.4062,58.0312 73.4062,66.0625 C73.4062,74.125 79.9375,80.6562 88,80.6562 Z M88,75.9688 C82.5312,75.9688 78.125,71.5312 78.125,66.0625 C78.125,60.5938 82.5312,56.1875 88,56.1875 C93.4688,56.1875 97.875,60.5938 97.875,66.0625 C97.875,71.5312 93.4688,75.9688 88,75.9688 Z M88,70.0938 C90.1875,70.0938 92,68.2812 92,66.0625 C92,63.875 90.2188,62.0625 88,62.0625 C85.75,62.0625 84.0312,63.8438 84,66.0625 C83.9688,68.2812 85.7188,70.0938 88,70.0938 Z M15.5312,68.6875 L58.3125,68.6875 C59.8125,68.6875 60.7188,68.25 62,66.8438 L82.1875,44.5938 L80.4375,38.25 L58.4375,63 C58.0625,63.375 57.9375,63.4688 57.4688,63.4688 L15.5312,63.4688 L15.5312,68.6875 Z M56.3125,2.6875 C56.3125,4.125 57.4688,5.28125 58.9062,5.28125 L69.6562,5.28125 C70.0625,5.28125 70.25,5.40625 70.3125,5.71875 L85.25,66.9375 L90.25,65.6875 L74.4375,2.4375 C74.0625,0.875 72.875,0.0625 70.6875,0.0625 L58.9062,0.0625 C57.4688,0.0625 56.3125,1.21875 56.3125,2.6875 Z" id="Shape" fill-opacity="0.85"></path>
</svg>