<?xml version="1.0" encoding="UTF-8"?>
<svg viewBox="0 0 110 90" version="1.1" xmlns="http://www.w3.org/2000/svg" xmlns:xlink="http://www.w3.org/1999/xlink">
    <path d="M5.375,71.9062 C5.375,74.375 6.09375,76.3125 7.4375,77.6875 L7.4375,87.625 C7.4375,90.5312 9.71875,92.8438 12.6875,92.8438 L17.375,92.8438 C20.3438,92.8438 22.625,90.5625 22.625,87.625 L22.625,81.1875 C29.1562,81.6562 36.3125,81.9062 43.9062,81.9062 C51.5,81.9062 58.6875,81.6562 65.25,81.2188 L65.25,87.625 C65.25,90.5625 67.5312,92.8438 70.5,92.8438 L75.1875,92.8438 C78.1562,92.8438 80.4375,90.5312 80.4375,87.625 L80.4375,77.6875 C81.7812,76.3125 82.5,74.375 82.5,71.9062 L82.5,10 C82.5,4.9375 79.5,2.125 74.2812,1.53125 C65.8125,0.53125 54.875,0 43.9062,0 C32.9375,0 22,0.53125 13.5938,1.53125 C8.34375,2.125 5.375,4.9375 5.375,10 L5.375,71.9062 Z M43.9062,77.2812 C32.3125,77.2812 22.3125,76.7812 14.75,75.875 C11.25,75.4375 9.96875,73.75 9.96875,70.625 L9.96875,11.25 C9.96875,8.1875 11.5625,6.40625 14.75,6 C22.1875,5.09375 32.7188,4.59375 43.9062,4.59375 C54.875,4.625 65.4062,5.09375 73.0938,6 C76.625,6.4375 77.9062,8.15625 77.9062,11.25 L77.9062,70.625 C77.9062,73.75 76.625,75.4688 73.0938,75.875 C65.2812,76.7812 55.2812,77.2812 43.9062,77.2812 Z M17.75,54.5938 C33.5625,56.875 54.125,56.9375 70.125,54.5938 C72.5625,54.2188 73.7812,52.8125 73.7812,50.2188 L73.7812,14.8125 C73.7812,11.9688 72.4375,10.375 69.7188,10.125 C53.2188,8.46875 34.8125,8.46875 18.2188,10.125 C15.5,10.375 14.0938,11.9688 14.0938,14.8125 L14.0938,50.2188 C14.0938,52.8125 15.3438,54.2188 17.75,54.5938 Z M5.375,37.625 L5.375,14.7812 L3.53125,14.7812 C1.40625,14.7812 0,16.0625 0,18.0625 L0,34.3438 C0,36.3438 1.40625,37.625 3.53125,37.625 L5.375,37.625 Z M82.5,37.625 L84.3125,37.625 C86.4688,37.625 87.875,36.3438 87.875,34.3438 L87.875,18.0625 C87.875,16.0625 86.4688,14.7812 84.3125,14.7812 L82.5,14.7812 L82.5,37.625 Z M20.9062,70.5938 C23.5625,70.5938 25.5312,68.625 25.5312,65.9688 C25.5312,63.3438 23.5625,61.3438 20.9062,61.3438 C18.2812,61.3438 16.2812,63.3438 16.2812,65.9688 C16.2812,68.625 18.2812,70.5938 20.9062,70.5938 Z M34.25,69.25 L53.4688,69.25 C55.4375,69.25 56.8125,67.9062 56.8125,65.9062 C56.8125,63.9375 55.4375,62.625 53.4688,62.625 L34.25,62.625 C32.2812,62.625 30.9062,63.9375 30.9062,65.9062 C30.9062,67.9062 32.2812,69.25 34.25,69.25 Z M66.9375,70.5938 C69.5938,70.5938 71.5938,68.625 71.5938,65.9688 C71.5938,63.3438 69.5938,61.3438 66.9375,61.3438 C64.3125,61.3438 62.3125,63.3438 62.3125,65.9688 C62.3125,68.625 64.3125,70.5938 66.9375,70.5938 Z" id="Shape" fill-opacity="0.85"></path>
</svg>