<?xml version="1.0" encoding="UTF-8"?>
<svg viewBox="0 0 110 100" version="1.1" xmlns="http://www.w3.org/2000/svg" xmlns:xlink="http://www.w3.org/1999/xlink">
    <path d="M14.6562,84.4688 L57.375,84.4688 C66.9062,84.4688 72.0312,78.0938 72.0312,69.4688 L72.0312,44.6562 C72.0312,33.25 70.4688,21.7812 68.6562,14.7188 C66.75,6.84375 61.2188,1.6875 53.75,0.875 C50.7188,0.53125 43.7188,0 36.0312,0 C27.6875,0 21.3125,0.53125 18.2812,0.875 C10.8125,1.6875 5.28125,6.84375 3.375,14.7188 C1.5625,21.7812 0,32.9688 0,44.375 L0,69.4688 C0,78.0938 5.125,84.4688 14.6562,84.4688 Z M15.375,79.9062 C7.75,79.9062 4.59375,75.375 4.59375,69.4688 L4.59375,44.375 C4.59375,33.2188 6.21875,22.4062 7.875,15.6875 C9.3125,9.75 13.25,6.0625 18.75,5.40625 C22.0625,5 28.1562,4.59375 36.0312,4.59375 C43.2188,4.59375 49.9688,5 53.2812,5.40625 C58.7812,6.0625 62.7188,9.75 64.1562,15.6875 C65.8125,22.4062 67.4375,33.5 67.4375,44.6562 L67.4375,69.4688 C67.4375,75.375 64.2812,79.9062 56.6562,79.9062 L15.375,79.9062 Z M25.5938,15.125 L46.4688,15.125 C47.8438,15.125 48.7188,14.1875 48.7188,12.8125 C48.7188,11.4688 47.8438,10.5938 46.4688,10.5938 L25.5938,10.5938 C24.1875,10.5938 23.3125,11.4688 23.3125,12.8125 C23.3125,14.1875 24.1875,15.125 25.5938,15.125 Z M36.0312,56.9688 C45.6875,56.9062 53.1875,56.5312 57.7188,56 C60.25,55.7188 61.3438,54.0938 61.3438,51.7188 L61.3438,42.2188 C61.3438,34.4062 60.5,27.875 59.75,24.5 C59.3438,22.5938 58.0938,21.25 56.1562,21 C51.7188,20.5 46.6562,20.1875 36.0312,20.1562 C25.3125,20.1875 20.2812,20.5 15.6562,21.0312 C13.8125,21.25 12.6562,22.5938 12.2188,24.5 C11.5,27.875 10.6562,34.4062 10.6562,42.2188 L10.6562,51.7188 C10.6562,54.0938 11.75,55.7188 14.2812,56 C18.8125,56.5312 26.3125,56.9062 36.0312,56.9688 Z M17.2188,73.1875 C20.2812,73.1875 22.5938,70.9375 22.5938,67.8438 C22.5938,64.7812 20.3438,62.5312 17.2188,62.5312 C14.1562,62.5312 11.9375,64.7812 11.9375,67.8438 C11.9375,70.9375 14.1562,73.1875 17.2188,73.1875 Z M54.7812,73.2188 C57.75,73.2188 60.125,70.9062 60.125,67.8438 C60.125,64.8125 57.8125,62.5 54.7812,62.5 C51.7188,62.5 49.375,64.8125 49.375,67.8438 C49.375,70.9062 51.7188,73.2188 54.7812,73.2188 Z M8.34375,99.9688 L10.4375,99.9688 C11.4688,99.9688 12.0312,99.6562 12.5938,98.7812 L23.5312,81.1562 L16.5312,81.1562 L6.75,96.875 C5.8125,98.375 6.65625,99.9688 8.34375,99.9688 Z M12.0625,95.0625 L60.0312,95.0625 L60.0312,89.5312 L12.0625,89.5312 L12.0625,95.0625 Z M61.6875,99.9688 L63.7812,99.9688 C65.5,99.9688 66.2188,98.3438 65.3125,96.875 L55.5938,81.1562 L48.625,81.1562 L59.5625,98.7812 C60.0938,99.6562 60.6562,99.9688 61.6875,99.9688 Z" id="Shape" fill-opacity="0.85"></path>
</svg>