<svg xmlns="http://www.w3.org/2000/svg" viewBox="0 0 120 48" width="120" height="48"><path d="M87.803 39.763c1.097 0 1.675.518 1.675 1.542v1.838c0 1.007-.578 1.541-1.675 1.541s-1.66-.534-1.66-1.541v-1.838c0-1.024.563-1.542 1.66-1.542m0-1.097c-1.942 0-2.846 1.008-2.846 2.713v1.69c0 1.69.904 2.712 2.846 2.712s2.861-1.022 2.861-2.713v-1.69c0-1.704-.919-2.712-2.86-2.712m-8.01 4.832c-.859 0-1.496-.563-1.496-1.586v-.578c0-1.008.637-1.571 1.497-1.571.935 0 1.765.534 1.765 1.497v.726c0 .979-.83 1.512-1.765 1.512m2.194-4.684c-.148 0-.237.074-.252.222l-.089.549c-.474-.593-1.215-.92-2.03-.92-1.469 0-2.506.905-2.506 2.595v.726c0 1.69 1.037 2.61 2.505 2.61.771 0 1.468-.297 1.943-.816v1.171c0 1.023-.579 1.556-1.557 1.556-.815 0-1.304-.43-1.394-1.037-.014-.148-.088-.222-.237-.222h-.726c-.149 0-.238.089-.223.237.105 1.141.935 2.075 2.58 2.075 1.823 0 2.742-1.008 2.742-2.713v-5.796c0-.148-.089-.237-.237-.237h-.519Zm-9.254-.148c-.86 0-1.69.415-2.15 1.17-.34-.785-1.038-1.17-1.957-1.17-.77 0-1.526.34-2 .948l-.104-.578c-.016-.148-.105-.222-.252-.222h-.52c-.147 0-.237.09-.237.237v6.344c0 .149.09.238.237.238h.712c.149 0 .237-.09.237-.238v-3.883c0-1.157.875-1.75 1.72-1.75.727 0 1.215.43 1.215 1.409v4.224c0 .149.09.238.237.238h.712c.149 0 .237-.09.237-.238v-3.883c0-1.157.875-1.75 1.72-1.75.727 0 1.2.43 1.2 1.409v4.224c0 .149.09.238.238.238h.712c.148 0 .237-.09.237-.238v-4.298c0-1.646-.875-2.431-2.194-2.431m-12.278 1.053c1.098 0 1.676.533 1.676 1.511v.341h-3.336v-.311c0-1.008.563-1.541 1.66-1.541m-1.66 2.653h4.284c.149 0 .237-.089.237-.237v-.801c0-1.66-.919-2.668-2.86-2.668-1.942 0-2.846 1.008-2.846 2.713v1.69c0 1.69.904 2.712 2.845 2.712 1.809 0 2.729-.978 2.847-2.015.014-.15-.074-.238-.223-.238h-.727c-.147 0-.207.074-.251.222-.119.534-.682.964-1.646.964-1.097 0-1.66-.519-1.66-1.542v-.8Zm-7.148 2.164v-8.153c0-.149-.089-.237-.237-.237H50.7c-.147 0-.236.088-.236.237v9.012c0 .149.089.238.236.238h4.715c.148 0 .237-.09.237-.238v-.622c0-.148-.089-.237-.237-.237h-3.766Zm44.349-22.179c-1.69 0-2.653.846-2.653 1.988 0 1.497 1.348 1.807 2.505 2.045.89.193 1.66.385 1.66 1.082 0 .548-.548.92-1.423.92-.86 0-1.394-.341-1.528-.905-.029-.148-.103-.222-.251-.222h-.726c-.148 0-.237.088-.223.237.119 1.17 1.053 1.971 2.668 1.971 1.69 0 2.654-.86 2.654-2 0-1.498-1.35-1.81-2.49-2.046-.905-.194-1.676-.386-1.676-1.068 0-.548.564-.934 1.423-.934.875 0 1.408.341 1.528.92.03.147.103.221.251.221h.727c.147 0 .237-.088.222-.237-.118-1.17-1.053-1.972-2.668-1.972m-5.837.149c-.147 0-.236.089-.236.237v3.899c0 1.156-.875 1.734-1.868 1.734-.845 0-1.32-.46-1.32-1.438v-4.195c0-.148-.089-.237-.237-.237h-.712c-.147 0-.237.089-.237.237v4.27c0 1.66.875 2.46 2.298 2.46.86 0 1.66-.356 2.149-.978l.105.607c.014.149.103.223.252.223h.518c.148 0 .237-.089.237-.237v-6.345c0-.148-.089-.237-.237-.237h-.712Zm-7.994 4.284c0 1.023-.652 1.586-1.497 1.586-.95 0-1.764-.533-1.764-1.512v-1.912c0-.964.815-1.497 1.764-1.497.845 0 1.497.563 1.497 1.571v1.764Zm-1.334-4.433c-.815 0-1.556.327-2.016.92l-.09-.549c-.028-.148-.118-.222-.266-.222h-.504c-.148 0-.237.089-.237.237v8.124c0 .148.089.237.237.237h.712c.148 0 .237-.089.237-.237v-2.209c.474.519 1.171.815 1.942.815 1.468 0 2.505-.918 2.505-2.609v-1.912c0-1.69-1.052-2.595-2.52-2.595m-7.648 0c-.86 0-1.69.416-2.149 1.172-.34-.786-1.038-1.172-1.957-1.172-.77 0-1.527.342-2 .95l-.105-.579c-.015-.148-.104-.222-.252-.222h-.519c-.148 0-.237.089-.237.237v6.345c0 .148.089.237.237.237h.712c.148 0 .237-.089.237-.237v-3.884c0-1.156.875-1.749 1.72-1.749.726 0 1.215.43 1.215 1.408v4.225c0 .148.089.237.237.237h.712c.148 0 .238-.089.238-.237v-3.884c0-1.156.874-1.749 1.718-1.749.727 0 1.201.43 1.201 1.408v4.225c0 .148.09.237.238.237h.711c.148 0 .237-.089.237-.237v-4.299c0-1.645-.874-2.432-2.194-2.432M60.466 28.45c-.756 0-1.304-.326-1.304-1.037v-.074c0-.623.533-1.008 1.572-1.008h1.734v.86c0 .652-.92 1.26-2.002 1.26m.594-6.094c-1.809 0-2.67 1.038-2.728 1.869 0 .074.088.119.251.119h.609c.133 0 .207-.075.266-.194.163-.4.638-.77 1.512-.77.979 0 1.498.518 1.498 1.497v.549h-1.734c-1.735 0-2.713.696-2.713 1.986v.06c0 1.289.919 2 2.342 2 .919 0 1.705-.34 2.194-.875l.089.504c.014.149.103.223.252.223h.518c.149 0 .238-.089.238-.237v-4.136c0-1.63-.92-2.595-2.594-2.595m-8.002-2.668c-1.943 0-2.847 1.008-2.847 2.699v4.373c0 1.705.904 2.712 2.847 2.712 1.942 0 2.86-1.007 2.86-2.712v-.149c0-.148-.088-.237-.237-.237h-.712c-.148 0-.237.089-.237.237v.223c0 1.037-.578 1.54-1.674 1.54s-1.66-.503-1.66-1.54v-4.507c0-1.038.563-1.542 1.66-1.542s1.674.504 1.674 1.542v.208c0 .148.09.237.237.237h.712c.149 0 .238-.09.238-.237v-.148c0-1.69-.92-2.699-2.861-2.699m64.63-13.64c-.86 0-1.646.357-2.135.964l-.104-.592c-.03-.149-.119-.223-.266-.223h-.504c-.149 0-.237.089-.237.237v6.345c0 .148.088.237.237.237h.71c.15 0 .238-.089.238-.237V8.866c0-1.14.875-1.719 1.868-1.719.83 0 1.32.445 1.32 1.423v4.21c0 .148.088.237.237.237h.71c.15 0 .238-.089.238-.237V8.496c0-1.646-.874-2.446-2.312-2.446m-8.319 1.097c1.096 0 1.675.519 1.675 1.541v1.839c0 1.008-.579 1.541-1.675 1.541-1.098 0-1.661-.533-1.661-1.541V8.688c0-1.022.563-1.54 1.661-1.54m0-1.098c-1.942 0-2.847 1.008-2.847 2.712v1.69c0 1.69.905 2.714 2.847 2.714 1.941 0 2.86-1.024 2.86-2.713v-1.69c0-1.705-.919-2.713-2.86-2.713m-5.17.385c0-.148-.09-.237-.238-.237h-.712c-.148 0-.237.089-.237.237v6.345c0 .148.089.237.237.237h.712c.149 0 .238-.089.238-.237V6.435Zm.118-2.624c0-.148-.09-.237-.238-.237h-.948c-.148 0-.237.089-.237.237v.95c0 .147.089.236.237.236h.948c.149 0 .238-.089.238-.237v-.949Zm-3.527 8.257c-.074-.148-.178-.178-.311-.118a2.102 2.102 0 0 1-.86.192c-.533 0-.844-.355-.844-.993V7.295h1.333c.149 0 .238-.09.238-.237v-.623c0-.148-.089-.237-.238-.237h-1.333V4.745c0-.163-.104-.252-.267-.207l-.712.148c-.134.03-.208.119-.208.252v1.26h-1.097c-.148 0-.237.089-.237.237v.623c0 .148.09.237.237.237h1.097v3.765c0 1.29.683 2.106 1.942 2.106a2.99 2.99 0 0 0 1.364-.357c.133-.058.178-.177.104-.31l-.208-.43Zm-9.463.074c-.756 0-1.305-.326-1.305-1.037v-.074c0-.623.534-1.008 1.571-1.008h1.735v.86c0 .652-.92 1.26-2.001 1.26m.592-6.093c-1.808 0-2.667 1.038-2.727 1.868 0 .074.089.118.252.118h.608c.133 0 .207-.074.267-.192.163-.4.637-.771 1.511-.771.979 0 1.498.519 1.498 1.497v.549h-1.735c-1.734 0-2.712.696-2.712 1.986v.059c0 1.29.92 2.002 2.342 2.002.92 0 1.705-.341 2.194-.875l.089.504c.015.148.104.222.252.222h.519c.148 0 .237-.089.237-.237V8.644c0-1.63-.919-2.594-2.595-2.594m-5.859.148c-.148 0-.237.089-.237.237v.756l-1.75 4.596L82.34 7.19v-.756c0-.148-.088-.237-.237-.237h-.712c-.148 0-.237.089-.237.237v.727c0 .103.015.192.06.281l2.134 5.382c.044.133.134.192.267.192h.919c.133 0 .223-.06.267-.178l2.15-5.396a.606.606 0 0 0 .058-.281v-.727c0-.148-.088-.237-.237-.237h-.71Zm-9.744.95c1.097 0 1.675.518 1.675 1.54v1.839c0 1.008-.578 1.541-1.675 1.541s-1.66-.533-1.66-1.541V8.688c0-1.022.563-1.54 1.66-1.54m0-1.098c-1.941 0-2.846 1.008-2.846 2.712v1.69c0 1.69.905 2.714 2.846 2.714 1.942 0 2.861-1.024 2.861-2.713v-1.69c0-1.705-.919-2.713-2.861-2.713m-7.357 0c-.86 0-1.646.356-2.134.963l-.105-.592c-.029-.149-.118-.223-.266-.223h-.504c-.148 0-.237.089-.237.237v6.345c0 .148.089.237.237.237h.712c.147 0 .236-.089.236-.237V8.866c0-1.14.875-1.719 1.868-1.719.83 0 1.32.445 1.32 1.423v4.21c0 .148.088.237.237.237h.712c.147 0 .237-.089.237-.237V8.496c0-1.646-.875-2.446-2.313-2.446m-7.857 0c-.86 0-1.645.356-2.134.963l-.104-.592c-.03-.149-.12-.223-.267-.223h-.503c-.149 0-.238.089-.238.237v6.345c0 .148.089.237.238.237h.71c.15 0 .238-.089.238-.237V8.866c0-1.14.875-1.719 1.868-1.719.83 0 1.32.445 1.32 1.423v4.21c0 .148.088.237.237.237h.71c.149 0 .238-.089.238-.237V8.496c0-1.646-.874-2.446-2.313-2.446M53.65 4.627h1.617c.147 0 .236-.09.236-.238v-.622c0-.148-.089-.237-.236-.237h-4.418c-.149 0-.238.089-.238.237v.622c0 .149.09.238.238.238h1.616v7.293h-1.616c-.149 0-.238.09-.238.237v.623c0 .148.09.237.238.237h4.418c.147 0 .236-.089.236-.237v-.623c0-.148-.089-.237-.236-.237H53.65V4.627Z" fill="#01577d"/><path d="M41.663 31.03 17.417.697a.688.688 0 0 0-1.15.124L8.15 17.204a.688.688 0 0 0 .343.935l32.362 13.95a.69.69 0 0 0 .817-.214.684.684 0 0 0-.01-.845Zm-2.788-1.289L9.7 17.165l7.317-14.77 21.857 27.346Z" fill="#ffd203"/><path d="M25.355 21.608 5.165 5.245a.687.687 0 0 0-1.11.426L.009 31.35a.688.688 0 0 0 .924.747l24.237-9.317a.689.689 0 0 0 .432-.533.688.688 0 0 0-.246-.64Zm-1.787.319-22.02 8.465L5.227 7.06l18.342 14.867Z" fill="#6bc3c4"/><path d="M37.534 5.276a.69.69 0 0 0-.77-.058L8.48 21.548a.687.687 0 0 0-.22.984l16.163 23.36a.685.685 0 0 0 1.22-.19L37.764 6.013a.683.683 0 0 0-.23-.737Zm-1.591 2.001L24.745 43.946 9.811 22.364 35.943 7.277Z" fill="#01577d"/><path d="M16.286.781 8.15 17.204l-.02.039 1.23.609L17.496 1.43l.019-.04-1.229-.609z" fill="#ffd203"/><path d="m13.318 25.867-2.336.898-.052.021.805 1.16 2.318-.891.051-.02-.786-1.168z" fill="#6bc3c4"/></svg>