<?xml version="1.0" encoding="UTF-8"?>
<svg width="131px" height="81px" viewBox="0 0 131 81" version="1.1" xmlns="http://www.w3.org/2000/svg" xmlns:xlink="http://www.w3.org/1999/xlink">
    <title>bicycle</title>
    <g id="iPhone-14-Max" stroke="none" stroke-width="1" fill="none" fill-rule="evenodd">
        <g id="bicycle" fill="#000000" fill-rule="nonzero">
            <rect id="Rectangle" opacity="0" x="0" y="0" width="130.594" height="80.6562"></rect>
            <path d="M25.375,80.6562 C39.375,80.6562 50.7188,69.2812 50.7188,55.3125 C50.7188,41.2812 39.4062,29.9375 25.375,29.9375 C11.375,29.9375 0,41.2812 0,55.3125 C0,69.3125 11.375,80.6562 25.375,80.6562 Z M25.375,75.25 C14.3125,75.25 5.4375,66.375 5.4375,55.3125 C5.4375,44.2812 14.3438,35.375 25.375,35.375 C36.4062,35.375 45.3125,44.3125 45.3125,55.3125 C45.3125,66.3438 36.4062,75.25 25.375,75.25 Z M105.094,80.6562 C119.094,80.6562 130.406,69.3125 130.406,55.3125 C130.406,41.3125 119.094,29.9688 105.094,29.9688 C91.0625,29.9688 79.6875,41.3125 79.6875,55.3125 C79.6875,69.3438 91.0625,80.6562 105.094,80.6562 Z M105.094,75.25 C94.0312,75.25 85.125,66.4062 85.125,55.3125 C85.125,44.3125 94.0312,35.375 105.094,35.375 C116.094,35.375 125,44.3438 125,55.3125 C125,66.3438 116.094,75.25 105.094,75.25 Z M69,2.6875 C69,4.15625 70.1875,5.34375 71.6875,5.34375 L82.4375,5.34375 C82.7812,5.34375 82.9062,5.4375 83,5.65625 L102.312,55.875 L107.344,54.1562 L87.2812,2.4375 C86.625,0.71875 85.4688,0 83.3438,0 L71.6875,0 C70.1875,0 69,1.1875 69,2.6875 Z M93.6875,26.8438 L93.6875,21.8438 L50.9375,28.2188 L50.9375,33.2188 L93.6875,26.8438 Z M60.6875,58.5 L60.6875,53.5 L25.875,53.5 L25.875,58.5 L60.6875,58.5 Z M65.3438,63.4688 C69.7812,63.4688 73.375,59.9062 73.375,55.5 C73.375,51.0625 69.7812,47.4688 65.3438,47.4688 C60.875,47.4688 57.3438,51.0312 57.3125,55.5 C57.25,59.875 60.8438,63.4688 65.3438,63.4688 Z M65.375,58.6875 C63.5625,58.6875 62.125,57.2812 62.125,55.5312 C62.125,53.7188 63.5625,52.25 65.375,52.25 C67.1562,52.25 68.5938,53.6875 68.5938,55.5312 C68.5938,57.2812 67.1562,58.6875 65.375,58.6875 Z M25.375,60.0938 C28.0312,60.0938 30.1875,57.9375 30.1875,55.3125 C30.1875,52.625 28.0625,50.5 25.375,50.5 C22.6875,50.5 20.625,52.5938 20.5938,55.3125 C20.5625,57.9375 22.6562,60.0938 25.375,60.0938 Z M105.094,60.125 C107.75,60.125 109.875,57.9688 109.875,55.3125 C109.875,52.6562 107.781,50.5312 105.094,50.5312 C102.406,50.5312 100.312,52.625 100.281,55.3125 C100.25,57.9688 102.375,60.125 105.094,60.125 Z M64.7188,49.25 L69.125,51.8125 L93.875,24.875 L87.7812,24.4375 L64.7188,49.25 Z M23.3125,53.4062 L27.7188,55.9375 L51.9375,31.4375 L47.7812,28.3125 L23.3125,53.4062 Z M60.0312,52.5312 L64.4375,49.375 L46.1875,15.3438 L41,16.4688 L60.0312,52.5312 Z M33.75,14.75 C33.75,16.25 34.9375,17.4375 36.4375,17.4375 L51.7188,17.4375 C53.2188,17.4375 54.4062,16.25 54.4062,14.75 C54.4062,13.3125 53.1875,12.0938 51.7188,12.0938 L36.4375,12.0938 C34.9688,12.0938 33.75,13.3125 33.75,14.75 Z" id="Shape" fill-opacity="0.85"></path>
        </g>
    </g>
</svg>