<?xml version="1.0" encoding="UTF-8"?>
<svg width="87px" height="93px" viewBox="0 0 87 93" version="1.1" xmlns="http://www.w3.org/2000/svg" xmlns:xlink="http://www.w3.org/1999/xlink">
    <title>bus.fill</title>
    <g id="iPhone-14-Max" stroke="none" stroke-width="1" fill="none" fill-rule="evenodd">
        <g id="bus.fill" fill="#000000" fill-rule="nonzero">
            <rect id="Rectangle" opacity="0" x="0" y="0" width="86.7812" height="92.2188"></rect>
            <path d="M10.625,92.2188 L15.3125,92.2188 C18.2812,92.2188 20.5625,89.9375 20.5625,87 L20.5625,80.375 C28.3125,80.9375 36.0625,81.25 43.2812,81.25 C50.5,81.25 58.2812,80.9688 66.0312,80.4062 L66.0312,87 C66.0312,89.9375 68.3125,92.2188 71.2812,92.2188 L75.9688,92.2188 C78.9375,92.2188 81.2188,89.9062 81.2188,87 L81.2188,10 C81.2188,4.9375 78.25,2.125 73.0312,1.53125 C64.4375,0.53125 53.6562,0 43.2812,0 C32.9375,0 22.1875,0.5 13.5938,1.53125 C8.34375,2.125 5.375,4.9375 5.375,10 L5.375,87 C5.375,89.9062 7.65625,92.2188 10.625,92.2188 Z M16.625,54.2188 C14.0625,53.8438 12.7812,52.375 12.7812,49.6562 L12.7812,13.375 C12.7812,10.3438 14.2188,8.71875 17.0938,8.40625 C34.375,6.625 52.4062,6.625 69.5625,8.40625 C72.4375,8.71875 73.8438,10.3438 73.8438,13.375 L73.8438,49.6562 C73.8438,52.375 72.5625,53.8438 70,54.2188 C53.2812,56.5312 33.0938,56.5 16.625,54.2188 Z M19.3438,71.5 C16.5312,71.5 14.4375,69.4062 14.4375,66.625 C14.4375,63.8125 16.5312,61.7188 19.3438,61.7188 C22.125,61.7188 24.2188,63.8125 24.2188,66.625 C24.2188,69.4062 22.125,71.5 19.3438,71.5 Z M34.25,69.9062 C32.2812,69.9062 30.9062,68.5312 30.9062,66.5625 C30.9062,64.5938 32.2812,63.25 34.25,63.25 L52.2188,63.25 C54.1875,63.25 55.5625,64.5938 55.5625,66.5625 C55.5625,68.5312 54.1875,69.9062 52.2188,69.9062 L34.25,69.9062 Z M67.2812,71.5 C64.4688,71.5 62.4062,69.4062 62.4062,66.625 C62.4062,63.8125 64.4688,61.7188 67.2812,61.7188 C70.0625,61.7188 72.1562,63.8125 72.1562,66.625 C72.1562,69.4062 70.0625,71.5 67.2812,71.5 Z M5.375,37 L5.375,14.7812 L3.53125,14.7812 C1.40625,14.7812 0,16.0938 0,18.0625 L0,33.7188 C0,35.6875 1.40625,37 3.53125,37 L5.375,37 Z M81.2188,37 L83.0625,37 C85.1875,37 86.5938,35.6875 86.5938,33.7188 L86.5938,18.0625 C86.5938,16.0938 85.1875,14.7812 83.0625,14.7812 L81.2188,14.7812 L81.2188,37 Z" id="Shape" fill-opacity="0.85"></path>
        </g>
    </g>
</svg>