<?xml version="1.0" encoding="UTF-8"?>
<svg width="95px" height="75px" viewBox="0 0 95 75" version="1.1" xmlns="http://www.w3.org/2000/svg" xmlns:xlink="http://www.w3.org/1999/xlink">
    <title>car.fill</title>
    <g id="iPhone-14-Max" stroke="none" stroke-width="1" fill="none" fill-rule="evenodd">
        <g id="car.fill" fill="#000000" fill-rule="nonzero">
            <rect id="Rectangle" opacity="0" x="0" y="0" width="94.5625" height="74.0938"></rect>
            <path d="M16.125,23.125 C17.1562,18.375 19.0938,12.8125 20.4062,10.5 C21.5312,8.5625 22.875,7.5625 25.2812,7.25 C28.375,6.8125 35.3438,6.5625 47.1875,6.5625 C59.0312,6.5625 66,6.75 69.0938,7.25 C71.5,7.59375 72.8125,8.5625 73.9688,10.5 C75.3125,12.7812 77.125,18.375 78.25,23.125 C78.5938,24.5 78.0312,25.1562 76.5,25.0312 C69.6875,24.5938 61.8125,24.2188 47.1875,24.2188 C32.5625,24.2188 24.6875,24.5938 17.875,25.0312 C16.3438,25.1562 15.8125,24.5 16.125,23.125 Z M18.125,52.2188 C14.5938,52.2188 11.9375,49.5938 11.9375,46.0625 C11.9375,42.5625 14.5938,39.9062 18.125,39.9062 C21.625,39.9062 24.2812,42.5625 24.2812,46.0625 C24.2812,49.5938 21.625,52.2188 18.125,52.2188 Z M36.7188,50.875 C34.0938,50.875 32.3125,49.0625 32.3125,46.4688 C32.3125,43.8438 34.0938,42.0312 36.7188,42.0312 L57.6562,42.0312 C60.2812,42.0312 62.0938,43.8438 62.0938,46.4688 C62.0938,49.0625 60.2812,50.875 57.6562,50.875 L36.7188,50.875 Z M76.2812,52.2188 C72.75,52.2188 70.0938,49.5938 70.0938,46.0625 C70.0938,42.5625 72.75,39.9062 76.2812,39.9062 C79.7812,39.9062 82.4375,42.5625 82.4375,46.0625 C82.4375,49.5938 79.7812,52.2188 76.2812,52.2188 Z M47.1875,63.1875 C60.5625,63.1875 78.5312,62.5 86.1562,61.625 C91.4062,61.0312 94.375,58.2188 94.375,53.1562 L94.375,46.0625 C94.375,39.1562 92.9062,35.4688 89.3438,30.8438 L85.9062,26.375 C84.4375,19.125 81.75,11.4688 80.3438,8.5 C78.2188,3.96875 74.0625,1.4375 68.9375,0.75 C66.2188,0.375 57.2812,0.15625 47.1875,0.15625 C37.0938,0.15625 28.1562,0.40625 25.4375,0.75 C20.3125,1.375 16.1562,3.96875 14.0312,8.5 C12.625,11.4688 9.96875,19.125 8.46875,26.375 L5.03125,30.8438 C1.46875,35.4688 0,39.1562 0,46.0625 L0,53.1562 C0,58.2188 2.96875,61.0312 8.21875,61.625 C15.8438,62.5 33.8125,63.1875 47.1875,63.1875 Z M5.25,74.0938 L9.9375,74.0938 C12.9062,74.0938 15.1875,71.8125 15.1875,68.875 L15.1875,59 L0,51.7188 L0,68.875 C0,71.8125 2.28125,74.0938 5.25,74.0938 Z M84.4375,74.0938 L89.125,74.0938 C92.0938,74.0938 94.375,71.8125 94.375,68.875 L94.375,51.7188 L79.1875,59 L79.1875,68.875 C79.1875,71.8125 81.4688,74.0938 84.4375,74.0938 Z" id="Shape" fill-opacity="0.85"></path>
        </g>
    </g>
</svg>