<?xml version="1.0" encoding="UTF-8"?>
<svg width="95px" height="75px" viewBox="0 0 95 75" version="1.1" xmlns="http://www.w3.org/2000/svg" xmlns:xlink="http://www.w3.org/1999/xlink">
    <title>car</title>
    <g id="iPhone-14-Max" stroke="none" stroke-width="1" fill="none" fill-rule="evenodd">
        <g id="car" fill="#000000" fill-rule="nonzero">
            <rect id="Rectangle" opacity="0" x="0" y="0" width="94.5625" height="74.0938"></rect>
            <path d="M17.9375,24.9688 C17.625,26.2812 18.1562,26.9062 19.6562,26.8125 C26.2812,26.3438 33.875,26 47.1875,26 C60.5,26 68.0938,26.3438 74.7188,26.8125 C76.2188,26.9062 76.75,26.2812 76.4688,24.9688 C75.4062,20.3125 73.5938,14.9062 72.3125,12.6875 C71.2188,10.7812 69.875,9.84375 67.5,9.5 C64.5,9.09375 57.75,8.84375 47.1875,8.84375 C36.625,8.84375 29.875,9.09375 26.875,9.5 C24.5,9.84375 23.1562,10.7812 22.0625,12.6875 C20.8125,14.9062 18.9688,20.3125 17.9375,24.9688 Z M18.125,52.2188 C21.625,52.2188 24.2812,49.5938 24.2812,46.0625 C24.2812,42.5625 21.625,39.9062 18.125,39.9062 C14.5938,39.9062 11.9375,42.5625 11.9375,46.0625 C11.9375,49.5938 14.5938,52.2188 18.125,52.2188 Z M36.7188,50.875 L57.6562,50.875 C60.2812,50.875 62.0938,49.0625 62.0938,46.4688 C62.0938,43.8438 60.2812,42.0312 57.6562,42.0312 L36.7188,42.0312 C34.0938,42.0312 32.3125,43.8438 32.3125,46.4688 C32.3125,49.0625 34.0938,50.875 36.7188,50.875 Z M76.2812,52.2188 C79.7812,52.2188 82.4375,49.5938 82.4375,46.0625 C82.4375,42.5625 79.7812,39.9062 76.2812,39.9062 C72.75,39.9062 70.0938,42.5625 70.0938,46.0625 C70.0938,49.5938 72.75,52.2188 76.2812,52.2188 Z M47.1875,63.1875 C60.5625,63.1875 78.5312,62.5 86.1562,61.625 C91.4062,61.0312 94.375,58.2188 94.375,53.1562 L94.375,46.0625 C94.375,39.1562 92.9062,35.4688 89.3438,30.8438 L85.9062,26.375 C84.4375,19.125 81.75,11.4688 80.3438,8.5 C78.2188,3.96875 74.0625,1.4375 68.9375,0.75 C66.2188,0.375 57.2812,0.15625 47.1875,0.15625 C37.0938,0.15625 28.1562,0.40625 25.4375,0.75 C20.3125,1.375 16.1562,3.96875 14.0312,8.5 C12.625,11.4688 9.96875,19.125 8.46875,26.375 L5.03125,30.8438 C1.46875,35.4688 0,39.1562 0,46.0625 L0,53.1562 C0,58.2188 2.96875,61.0312 8.21875,61.625 C15.8438,62.5 33.8125,63.1875 47.1875,63.1875 Z M47.1875,58.5938 C33.7188,58.5938 16.0625,57.9688 9.375,57.125 C5.875,56.7188 4.59375,55 4.59375,51.9062 L4.59375,46.0625 C4.59375,40.4688 5.5,37.8125 8.6875,33.6562 L12.75,28.3125 C13.9062,22.1875 16.5312,14.0938 18.1875,10.5938 C19.5625,7.6875 22.1875,5.875 26,5.40625 C28.5625,5.125 36.8125,4.75 47.1875,4.75 C57.5625,4.75 65.9375,5.125 68.3125,5.40625 C72.2188,5.90625 74.8125,7.71875 76.1875,10.5938 C77.875,14.0938 80.4688,22.1875 81.625,28.3125 L85.6875,33.6562 C88.875,37.8125 89.7812,40.4688 89.7812,46.0625 L89.7812,51.9062 C89.7812,55 88.5,56.7188 85,57.125 C78.3125,57.9375 60.6875,58.5938 47.1875,58.5938 Z M7.3125,74.0938 L12,74.0938 C14.9688,74.0938 17.25,71.8125 17.25,68.875 L17.25,59.7812 L2.0625,57.625 L2.0625,68.875 C2.0625,71.7812 4.34375,74.0938 7.3125,74.0938 Z M82.375,74.0938 L87.0625,74.0938 C90.0312,74.0938 92.3125,71.8125 92.3125,68.875 L92.3125,57.625 L77.125,59.7812 L77.125,68.875 C77.125,71.8125 79.4062,74.0938 82.375,74.0938 Z" id="Shape" fill-opacity="0.85"></path>
        </g>
    </g>
</svg>