<?xml version="1.0" encoding="UTF-8"?>
<svg width="87px" height="76px" viewBox="0 0 87 76" version="1.1" xmlns="http://www.w3.org/2000/svg" xmlns:xlink="http://www.w3.org/1999/xlink">
    <title>leaf.fill</title>
    <g id="iPhone-14-Max" stroke="none" stroke-width="1" fill="none" fill-rule="evenodd">
        <g id="leaf.fill" fill="#000000" fill-rule="nonzero">
            <rect id="Rectangle" opacity="0" x="0" y="0" width="86.0625" height="75.6562"></rect>
            <path d="M1.125,4.34375 C0.34375,8.5625 0,13.875 0,17.3438 C0,47.3125 17.6875,67.1562 44.5938,67.1562 C60.9062,67.1562 69.7188,57.8125 71.8438,53.25 L67.4375,53.4688 C72.4688,58.9062 74.625,64.375 77.375,73.0938 C77.9688,74.9688 79.2812,75.6562 80.6562,75.6562 C83.5625,75.6562 85.875,73.125 85.875,69.625 C85.875,63.9688 78.1562,54.3438 74.0312,50.4688 C56.7188,34.3125 30.6562,43.7812 23.1562,26.25 C22.5625,24.875 24,23.75 25.2812,25.0625 C39,38.7812 56.5312,27.1875 74.0625,43.2812 C75.2812,44.375 76.7812,43.8125 77,42.4375 C77.2188,41.2188 77.3125,39.375 77.3125,37.5 C77.3125,18.0938 63.8438,8.84375 44.7188,8.84375 C38.375,8.84375 31.1875,10.2188 25.3438,10.2188 C18.4062,10.2188 10.9688,9.46875 5.4375,3.21875 C3.9375,1.625 1.65625,1.875 1.125,4.34375 Z" id="Path" fill-opacity="0.85"></path>
        </g>
    </g>
</svg>