<?xml version="1.0" encoding="UTF-8"?>
<svg width="68px" height="100px" viewBox="0 0 68 100" version="1.1" xmlns="http://www.w3.org/2000/svg" xmlns:xlink="http://www.w3.org/1999/xlink">
    <title>tram.fill</title>
    <g id="iPhone-14-Max" stroke="none" stroke-width="1" fill="none" fill-rule="evenodd">
        <g id="tram.fill" fill="#000000" fill-rule="nonzero">
            <rect id="Rectangle" opacity="0" x="0" y="0" width="67.9688" height="99.5938"></rect>
            <path d="M11.8438,82.7812 L55.9688,82.7812 C63.7812,82.7812 67.7812,77.5312 67.7812,70.5938 L67.7812,42.4375 C67.7812,31.0938 66.2188,20.0938 64.5625,13.5625 C62.9375,7.03125 58.4375,2.28125 51.6562,1.53125 C48.6875,1.1875 41.9375,0.65625 33.9062,0.65625 C25.8438,0.65625 19.0938,1.1875 16.125,1.53125 C9.34375,2.28125 4.84375,7.03125 3.21875,13.5625 C1.5625,20.0938 0,31.0938 0,42.4375 L0,70.5938 C0,77.5312 4,82.7812 11.8438,82.7812 Z M23.4688,13.1562 C22.0625,13.1562 21.1875,12.25 21.1875,10.875 C21.1875,9.53125 22.0625,8.625 23.4688,8.625 L44.3438,8.625 C45.7188,8.625 46.5938,9.53125 46.5938,10.875 C46.5938,12.25 45.7188,13.1562 44.3438,13.1562 L23.4688,13.1562 Z M33.9062,56.5938 C24.8125,56.5312 16.6875,56.1562 12.1562,55.625 C9.625,55.3438 8.53125,53.7188 8.53125,51.3438 L8.53125,41.8438 C8.53125,34.0312 9.375,27.5 10.125,24.125 C10.5312,22.2188 11.6875,20.875 13.5312,20.6562 C18.1562,20.125 23.8438,19.8125 33.9062,19.7812 C43.9062,19.75 49.5938,20.125 54.0312,20.625 C56,20.875 57.2188,22.2188 57.6562,24.125 C58.375,27.5 59.2188,34.0312 59.2188,41.8438 L59.2188,51.3438 C59.2188,53.75 58.125,55.375 55.5938,55.625 C49.4062,56.2812 41.25,56.5938 33.9062,56.5938 Z M15.125,74.1562 C12.0625,74.1562 9.8125,71.9062 9.8125,68.8125 C9.8125,65.75 12.0625,63.5 15.125,63.5 C18.2188,63.5 20.4688,65.75 20.4688,68.8125 C20.4688,71.9062 18.1562,74.1562 15.125,74.1562 Z M52.6562,74.1875 C49.5938,74.1875 47.2812,71.875 47.2812,68.8125 C47.2812,65.7812 49.5938,63.4688 52.6562,63.4688 C55.6875,63.4688 58,65.7812 58,68.8125 C58,71.875 55.6562,74.1875 52.6562,74.1875 Z M6.21875,99.5938 L8.3125,99.5938 C9.34375,99.5938 9.90625,99.2812 10.4688,98.4062 L21.4062,80.7812 L14.4375,80.7812 L4.65625,96.5 C3.6875,98 4.53125,99.5938 6.21875,99.5938 Z M9.9375,94.6875 L57.9062,94.6875 L57.9062,89.1562 L9.9375,89.1562 L9.9375,94.6875 Z M59.5938,99.5938 L61.6875,99.5938 C63.375,99.5938 64.0938,97.9688 63.1875,96.5 L53.4688,80.7812 L46.5,80.7812 L57.4375,98.4062 C57.9688,99.2812 58.5312,99.5938 59.5938,99.5938 Z" id="Shape" fill-opacity="0.85"></path>
        </g>
    </g>
</svg>