<?xml version="1.0" encoding="UTF-8"?>
<svg width="1880px" height="883px" viewBox="0 0 1880 883" version="1.1" xmlns="http://www.w3.org/2000/svg" xmlns:xlink="http://www.w3.org/1999/xlink">
    <title>ICL_Logo_WEB-Vektor_6</title>
    <g id="iPhone-14-Max" stroke="none" stroke-width="1" fill="none" fill-rule="evenodd">
        <g id="ICL_Logo_WEB-Vektor_6" fill-rule="nonzero">
            <path d="M1513.0673,810.53714 C1512.72991,812.873068 1512.53176,815.227587 1512.47395,817.587816 C1512.40863,819.699223 1512.54621,821.812069 1512.88473,823.896316 C1513.20423,825.751757 1513.93451,826.679477 1515.02993,826.679477 C1515.57084,826.656026 1516.1003,826.513592 1516.58178,826.262003 C1517.57696,825.685374 1518.497,824.984104 1519.32034,824.174632 L1528.67706,814.897427 C1532.05462,811.557633 1535.29524,808.542541 1538.35329,805.852152 C1541.41134,803.161762 1544.01297,801.213549 1546.15817,799.590039 C1548.30337,797.966528 1549.53572,797.780984 1549.85522,798.708704 C1548.51637,801.275397 1547.10145,804.058559 1545.61046,807.058189 C1544.05495,810.061891 1542.68308,813.160165 1541.50263,816.335394 C1540.29491,819.453402 1539.33338,822.664182 1538.62715,825.937301 C1537.90931,828.972544 1537.70862,832.110363 1538.03379,835.214506 C1538.19886,837.281762 1538.99693,839.24455 1540.31592,840.827215 C1541.56917,842.277022 1543.12977,843.418951 1544.88018,844.167009 C1546.632,844.891122 1548.51242,845.238586 1550.40293,845.187501 C1552.16588,845.141599 1553.878,844.577707 1555.33233,843.56399 C1559.82952,840.481679 1563.97774,836.903699 1567.70147,832.895205 C1571.62673,828.78231 1575.32378,824.607568 1578.79261,820.370978 C1582.44402,816.010691 1583.95022,813.505846 1583.35687,812.856442 C1582.76352,812.207037 1579.84239,814.016092 1574.50221,818.376379 C1572.63086,819.907118 1570.48566,821.808945 1568.02096,824.035474 L1560.85508,830.390359 C1558.90117,832.069255 1556.84301,833.618656 1554.69333,835.028962 C1552.86763,836.281384 1551.58964,836.606087 1550.81371,836.049454 C1550.70527,833.412202 1550.96653,830.772681 1551.58964,828.210216 C1552.19264,825.587495 1552.98595,823.013762 1553.96305,820.510136 C1554.92155,817.958904 1556.01697,815.361287 1557.24932,812.76367 C1558.48167,810.166052 1559.71402,807.429277 1561.03765,804.646115 C1561.14934,802.360586 1560.88713,800.072061 1560.26173,797.873756 C1559.73932,795.882251 1558.82304,794.019837 1557.56881,792.400205 C1556.47033,790.958213 1554.97803,789.877225 1553.27841,789.292341 C1551.50371,788.733927 1549.58988,788.849309 1547.89259,789.617043 C1543.43211,791.524725 1539.22946,794.003212 1535.38652,796.992421 C1531.39669,799.948941 1527.65627,803.238272 1524.20409,806.826258 C1524.67205,804.848476 1524.94723,802.82867 1525.02566,800.796075 C1525.14367,798.675986 1524.75203,796.558572 1523.88459,794.626734 C1523.32191,792.941858 1522.05062,791.598858 1520.41576,790.962238 C1518.89062,790.324851 1517.14577,790.573109 1515.8515,791.611642 C1512.88473,795.415296 1509.87232,799.21895 1506.72299,803.06899 C1503.57365,806.919031 1500.46995,810.629913 1497.27497,814.15525 C1497.7314,812.067879 1498.23347,809.887736 1498.78118,807.661207 C1499.32889,805.434678 1499.83096,803.022604 1500.24174,800.981619 C1500.71904,799.160785 1500.63944,797.235408 1500.01353,795.461682 C1499.55404,794.188578 1498.68574,793.110029 1497.54883,792.400205 C1496.60125,791.782625 1495.44214,791.597513 1494.35385,791.889958 C1493.20547,792.206427 1492.31512,793.129028 1492.02608,794.302032 C1491.38708,796.203859 1490.70244,798.337616 1489.97216,800.749689 C1489.24188,803.161762 1488.5116,805.388292 1487.78132,808.078681 C1487.05104,810.769071 1486.27511,813.041986 1485.54483,815.500445 C1484.81455,817.958904 1484.26684,820.139048 1483.81041,822.040875 C1483.46467,823.56517 1483.25086,825.117293 1483.17142,826.679477 C1482.94286,828.868939 1482.94286,831.076831 1483.17142,833.266293 C1483.28875,834.023489 1483.47204,834.768595 1483.71913,835.492822 C1483.96517,836.265993 1484.36962,836.977406 1484.90584,837.580193 C1485.32518,838.120934 1485.92686,838.484517 1486.59461,838.600686 C1487.48046,838.625042 1488.33192,838.251761 1488.92238,837.580193 C1492.75636,832.261262 1496.66641,826.926869 1500.65252,821.577014 C1504.63864,816.22716 1508.94426,810.939153 1513.56937,805.712994 C1513.32595,806.578866 1513.05209,808.125067 1512.74781,810.351596 L1513.0673,810.53714 Z M1599.7882,836.374156 C1600.63231,837.902932 1601.82111,839.206481 1603.25703,840.17781 C1604.61459,841.168398 1606.17487,841.83439 1607.82129,842.126024 C1609.82906,842.358865 1611.86253,842.104514 1613.75482,841.383847 C1617.23981,840.037823 1620.52636,838.211703 1623.52234,835.956682 C1626.54094,833.646843 1629.29654,831.001942 1631.738,828.071058 C1634.2363,825.078564 1636.46644,821.865147 1638.40181,818.469151 C1640.32721,815.09807 1642.02005,811.595239 1643.46814,807.985909 C1643.51696,807.569909 1643.51696,807.149487 1643.46814,806.733486 C1643.46814,806.316012 1643.14864,806.037696 1642.60093,805.805766 C1642.05322,805.573836 1641.82501,805.805766 1641.36858,805.805766 C1640.92935,806.142994 1640.51726,806.51526 1640.13623,806.919031 C1638.3607,808.499049 1636.71231,810.220818 1635.20683,812.067879 L1628.86252,819.443257 C1626.62603,821.994489 1624.29826,824.406562 1622.06177,826.679477 C1620.15684,828.607005 1617.9318,830.177341 1615.48924,831.31808 C1612.84197,832.292186 1610.92498,832.384958 1610.05778,831.31808 C1609.19057,830.251201 1608.73414,828.534918 1609.05364,825.658985 C1609.52042,823.385756 1610.32048,821.196661 1611.42705,819.164941 C1612.70505,816.706482 1613.70918,814.526339 1614.48511,812.810056 C1615.11191,811.481002 1615.25737,809.969851 1614.89589,808.542541 C1614.53686,807.178888 1613.79078,805.952815 1612.75069,805.017203 C1611.71503,804.104809 1610.4198,803.552275 1609.05364,803.440079 C1607.50074,803.396746 1605.98758,803.942421 1604.80888,804.970817 C1604.80888,804.970817 1603.94167,806.037696 1602.57239,807.893137 C1601.20312,809.748578 1599.60563,811.835949 1597.73428,814.201636 C1595.86294,816.567324 1593.9003,818.840239 1591.80075,821.484242 C1590.10753,823.557678 1588.24476,825.481827 1586.23235,827.236109 C1584.58922,828.62769 1583.35687,829.230709 1582.62659,829.09155 C1581.89631,828.952392 1581.80502,827.375268 1582.62659,824.452948 C1583.46222,821.70538 1584.563,819.048464 1585.91285,816.520938 C1587.74338,812.861706 1589.83323,809.342556 1592.16589,805.99131 C1594.38845,802.668815 1596.9096,799.563098 1599.69691,796.714105 C1601.49013,794.55088 1604.01268,793.145016 1606.77151,792.771293 C1607.63096,792.730027 1608.47544,793.010605 1609.14492,793.559855 C1609.74171,793.992895 1610.22704,794.565691 1610.55984,795.229752 C1610.88023,795.797637 1611.12576,796.405868 1611.29013,797.038807 L1611.70091,798.476774 C1612.02041,799.126178 1612.38555,799.45088 1612.70505,799.404494 C1613.12708,799.258854 1613.494,798.983235 1613.75482,798.615932 C1614.20258,798.138208 1614.54491,797.568907 1614.75896,796.946035 C1615.03282,796.296631 1615.26103,795.647226 1615.48924,794.951436 C1615.95151,793.30794 1615.77165,791.546527 1614.98717,790.034517 C1614.0754,788.734645 1612.8905,787.657201 1611.51834,786.880268 C1610.01948,785.845487 1608.29728,785.193121 1606.49766,784.978441 C1604.67523,784.679753 1602.8122,784.758644 1601.02055,785.210371 C1595.84416,786.265679 1591.13018,788.961494 1587.55599,792.910451 C1583.81824,796.9508 1580.73688,801.569839 1578.42747,806.594328 C1577.00533,809.67319 1575.80037,812.850913 1574.82171,816.103463 C1573.87288,819.148378 1573.09569,822.245809 1572.49394,825.380668 C1572.33892,826.922856 1572.33892,828.477083 1572.49394,830.019271 C1572.59662,831.641476 1573.24064,833.179575 1574.31964,834.379557 C1575.26812,835.346505 1576.30767,836.216545 1577.42333,836.977175 C1578.52338,837.677781 1579.74875,838.15069 1581.0291,838.368755 C1582.68257,838.741465 1584.39631,838.741465 1586.04978,838.368755 C1587.63492,838.011764 1589.16873,837.450596 1590.61404,836.698859 C1592.01203,836.018508 1593.32898,835.178113 1594.5393,834.194013 L1597.82557,831.642782 C1598.18015,833.397248 1598.79579,835.086542 1599.65127,836.652473 L1599.7882,836.374156 Z M1671.94911,819.350485 C1666.56328,822.504735 1660.99489,825.473441 1655.19828,828.256602 C1653.93133,828.907414 1652.60032,829.420503 1651.22738,829.787341 C1650.10202,830.059474 1648.92954,830.059474 1647.80419,829.787341 C1646.73664,829.517678 1645.83714,828.789745 1645.33949,827.792742 C1644.5676,826.244992 1644.22071,824.514332 1644.33535,822.783051 C1644.37732,820.824722 1644.71601,818.884663 1645.33949,817.031184 C1645.95379,814.910243 1646.77964,812.858613 1647.80419,810.908229 C1648.6591,809.267112 1649.66792,807.713706 1650.8166,806.269626 C1651.86637,804.970817 1652.73358,804.321413 1653.37258,804.321413 C1653.69208,805.898538 1654.01158,807.522049 1654.28543,809.284718 C1654.64178,811.235098 1655.40432,813.08551 1656.52192,814.711883 C1656.84142,815.268515 1657.20656,815.500445 1657.5717,815.454059 C1657.93684,815.407673 1658.25634,815.036585 1658.48455,814.340795 C1658.80405,812.485354 1659.16919,810.629913 1659.62561,808.867244 C1660.08204,807.104575 1660.49282,805.434678 1660.85796,803.903939 C1661.2231,802.3732 1661.5426,801.074391 1661.77081,799.821969 C1662.04909,798.726665 1662.04909,797.577479 1661.77081,796.482175 C1661.38155,795.149075 1660.54082,793.99889 1659.3974,793.235153 C1658.37961,792.343878 1657.02714,791.953587 1655.70035,792.168275 C1651.76995,792.397831 1648.04842,794.042245 1645.20256,796.806877 C1641.97179,799.825676 1639.36509,803.468276 1637.53461,807.522049 C1635.65295,811.61108 1634.50896,816.010227 1634.15706,820.510136 C1633.75965,824.645095 1634.56925,828.807434 1636.48483,832.47773 C1638.01254,835.392914 1640.65379,837.540332 1643.78764,838.415142 C1647.03832,839.366209 1650.48704,839.366209 1653.73772,838.415142 C1656.18016,837.62819 1658.5238,836.554036 1660.72103,835.214506 L1668.20642,830.575903 L1670.30597,829.09155 L1673.18146,826.911407 C1674.36816,826.030073 1675.78308,824.824036 1677.47186,823.339683 L1683.81618,817.54143 C1684.98733,816.574617 1686.08581,815.520268 1687.10244,814.387181 C1688.06746,813.271989 1688.89513,812.041416 1689.56714,810.722685 C1689.96563,810.035093 1690.04898,809.204988 1689.79535,808.449769 C1689.5215,807.846751 1688.79122,807.800365 1687.55887,808.449769 C1682.68913,812.438713 1677.53232,816.051462 1672.13168,819.257713 L1671.94911,819.350485 Z M1722.88622,807.382891 L1722.88622,807.707593 C1720.20966,812.367731 1717.90494,817.238397 1715.99419,822.272805 C1714.76184,825.473441 1713.66642,828.720462 1712.61664,831.921098 C1711.56686,835.121734 1710.47144,838.415142 1709.23909,841.615777 L1708.41752,845.048343 C1708.18931,845.976064 1708.05238,846.903784 1707.91546,847.785119 C1707.70848,849.845893 1707.91024,851.927926 1708.50881,853.908074 C1709.10694,855.614764 1710.02102,857.189303 1711.20172,858.546676 C1712.46664,859.960472 1714.02591,861.069743 1715.76598,861.793698 C1717.48331,862.596789 1719.35269,863.008421 1721.24309,862.999869 C1723.83065,862.745157 1726.2891,861.729639 1728.31769,860.077415 C1731.39052,857.833571 1734.27581,855.335702 1736.94413,852.609265 C1740.15483,849.431571 1743.20173,846.087315 1746.07265,842.589884 C1749.11549,838.94085 1751.99097,835.32274 1754.6991,831.735554 C1757.39201,828.210216 1759.71978,824.916808 1761.68241,821.994489 C1763.64504,819.072169 1765.05996,816.799254 1765.97281,815.222129 C1766.88566,813.645004 1766.42924,811.928721 1765.47074,811.696791 C1764.51225,811.464861 1763.2799,812.114265 1761.86498,813.552232 C1760.45006,814.990199 1757.93972,817.495044 1755.42938,820.324592 C1752.91904,823.154139 1750.31741,826.169231 1747.6245,829.323481 L1739.5914,838.600686 C1736.89849,841.708549 1734.43379,844.352553 1732.19731,846.579082 C1730.43854,848.317722 1728.51181,849.871777 1726.44634,851.217684 C1724.84885,852.191791 1723.79907,852.145405 1723.25136,851.217684 C1723.25804,849.22845 1723.6943,847.264954 1724.52935,845.465817 L1728.50026,834.101241 C1730.00646,829.694569 1731.6496,825.055966 1733.33837,820.185434 C1735.02715,815.314901 1736.44207,810.908229 1737.53749,806.640714 C1737.94313,805.288863 1738.12815,803.878611 1738.0852,802.465972 C1737.90519,800.968546 1737.01992,799.653609 1735.71178,798.940634 C1734.36274,798.224484 1732.93892,797.664351 1731.46703,797.270737 C1729.77217,796.738281 1727.95862,796.738281 1726.26377,797.270737 C1724.47439,797.772038 1722.74477,798.472046 1721.10616,799.358108 C1716.85832,801.559079 1712.83708,804.185157 1709.10216,807.197347 C1705.3859,810.181217 1701.82119,813.355018 1698.4218,816.706482 C1696.86633,818.127809 1695.43115,819.67947 1694.1314,821.345084 C1694.13484,820.004634 1694.27247,818.668017 1694.54218,817.355886 C1694.81604,816.010691 1695.08989,814.758269 1695.31811,813.505846 C1696.8091,809.052788 1698.22402,804.599729 1699.56287,800.146671 C1700.8865,795.508068 1702.43835,791.147782 1704.12712,786.230863 C1704.12712,786.230863 1704.35534,785.674231 1704.76612,785.210371 C1708.46721,781.201304 1711.75535,776.818236 1714.57927,772.129512 C1718.0996,766.435256 1721.25547,760.516522 1724.02729,754.41005 C1726.78409,748.352702 1729.02868,742.067913 1730.73674,735.62371 C1732.30594,730.274141 1732.81785,724.661842 1732.24295,719.110285 C1732.08376,718.168953 1731.70847,717.279014 1731.14753,716.512668 C1730.57696,715.69831 1729.82664,715.031087 1728.95668,714.564455 C1728.05556,714.148603 1727.06965,713.957753 1726.0812,714.007822 C1724.95738,714.087043 1723.887,714.525417 1723.02315,715.260245 C1721.11987,716.759334 1719.40325,718.488336 1717.91118,720.409094 C1716.16698,722.717665 1714.63892,725.186863 1713.34692,727.784472 C1710.69965,733.118865 1708.00674,738.917118 1705.1769,745.132845 C1702.34706,751.348572 1699.69979,757.842616 1697.14381,764.522204 C1694.58782,771.201791 1692.16877,777.974151 1689.93228,784.792897 C1687.6958,791.611642 1685.68752,798.29123 1683.90746,804.785273 C1683.14675,807.351967 1682.41647,810.320672 1681.71662,813.69139 C1681.00144,817.093751 1680.60411,820.557162 1680.52991,824.035474 C1680.45801,827.416305 1680.93608,830.785991 1681.94483,834.008469 C1682.90853,837.081715 1684.81112,839.762735 1687.3763,841.662163 C1687.86847,842.008316 1688.47857,842.134753 1689.06481,842.01209 C1689.65106,841.889427 1690.16239,841.528346 1690.47999,841.012759 C1691.52671,838.35481 1692.82607,835.806974 1694.35961,833.405451 C1695.95504,830.889808 1697.67651,828.459073 1699.51722,826.122845 C1702.66676,822.266476 1706.21706,818.767218 1710.1063,815.685989 L1722.20158,806.408784 C1722.74929,806.408784 1723.02315,806.408784 1723.02315,806.733486 L1722.88622,807.382891 Z M1710.15194,768.65056 C1712.29714,763.640869 1714.48799,758.399248 1716.81576,752.925697 C1719.14353,747.452146 1721.38002,742.303298 1723.47957,737.339993 C1725.57913,732.376688 1727.26791,728.573034 1728.45462,725.882645 C1729.27779,728.015517 1729.3742,730.367159 1728.72847,732.562232 C1727.99356,736.034879 1727.00182,739.446208 1725.7617,742.767158 C1724.39243,746.570812 1722.74929,750.467238 1720.83231,754.549208 C1718.91532,758.631178 1716.99833,762.434832 1715.08134,765.96017 C1713.40517,769.160492 1711.54585,772.258206 1709.51295,775.237375 C1708.32908,777.082349 1706.91793,778.765899 1705.31383,780.247066 C1706.40925,777.603063 1708.00674,773.753023 1710.15194,768.743332 L1710.15194,768.65056 Z M1759.94799,838.78623 C1763.56211,841.357138 1767.9834,842.480464 1772.36277,841.940479 C1775.2722,841.500276 1778.07448,840.509009 1780.62408,839.01816 C1783.3777,837.505165 1785.97684,835.718284 1788.38332,833.683767 C1790.87998,831.596977 1793.22879,829.333914 1795.41227,826.911407 C1797.6944,824.499334 1799.97653,822.272805 1801.75659,819.907118 C1803.53665,817.54143 1804.54079,816.567324 1805.77314,814.897427 C1807.03525,813.249243 1808.10724,811.459424 1808.96812,809.563034 C1809.66797,807.985909 1809.75926,807.150961 1809.24197,807.058189 C1808.56493,806.911624 1807.8651,806.911624 1807.18806,807.058189 C1806.23552,807.578184 1805.37231,808.251802 1804.63207,809.052788 L1802.25866,811.557633 C1801.16324,812.53174 1799.79396,813.830548 1798.15083,815.407673 L1793.03886,820.046276 C1791.30444,821.716173 1789.52438,823.293297 1787.78996,824.684878 C1786.05554,826.076459 1784.45805,827.421654 1783.22571,828.442146 C1781.99336,829.462639 1780.39587,829.880113 1778.43323,830.761447 C1776.58945,831.624415 1774.6131,832.157934 1772.59099,832.338572 C1771.00428,832.566749 1769.38908,832.222034 1768.02673,831.364466 C1766.79438,830.529517 1766.3836,828.62769 1766.70309,825.751757 C1766.86795,824.228102 1767.50763,822.79787 1768.5288,821.669786 C1769.81001,820.002566 1771.23018,818.450627 1772.77356,817.031184 C1774.41669,815.500445 1776.10546,813.969706 1777.88552,812.392581 C1779.66558,810.815457 1780.98922,809.794964 1781.99336,808.867244 C1783.71483,807.341106 1785.13919,805.500188 1786.19247,803.440079 C1787.08354,801.445053 1787.71271,799.339649 1788.06382,797.177965 C1788.6619,794.961249 1788.27853,792.589659 1787.01404,790.683922 C1785.70806,788.895464 1783.81259,787.644162 1781.67386,787.158584 C1777.45303,787.184604 1773.3421,788.528654 1769.89807,791.008624 C1766.52158,793.477067 1763.69174,796.63743 1761.59112,800.285829 C1759.35806,804.211517 1757.69761,808.44588 1756.66173,812.856442 C1755.59977,817.175515 1755.16916,821.629929 1755.38373,826.076459 C1754.94716,830.647093 1756.75743,835.142354 1760.22185,838.090439 L1759.94799,838.78623 Z M1777.20089,802.14127 C1775.1343,804.063043 1772.97097,805.874534 1770.71964,807.568435 C1771.18316,804.647962 1772.46698,801.925754 1774.41669,799.729197 C1776.38922,797.756684 1778.77716,796.265689 1781.4,795.36891 C1780.5663,797.941379 1779.12447,800.266767 1777.20089,802.14127 L1777.20089,802.14127 Z M1808.00962,829.09155 C1809.33326,826.076459 1810.74818,823.061367 1812.34567,819.814345 C1813.88718,816.852448 1815.62563,814.000825 1817.54892,811.279317 C1819.07155,808.962731 1821.16442,807.091641 1823.61938,805.852152 C1826.22101,804.646115 1827.8185,804.460571 1828.18364,805.388292 C1828.54878,806.316012 1828.41185,807.893137 1827.22515,810.026894 C1824.53787,814.772085 1822.14459,819.683086 1820.05926,824.731264 C1817.8505,829.89947 1816.70127,835.470923 1816.68171,841.105531 C1816.70128,842.67965 1816.94731,844.242394 1817.41199,845.744133 C1817.87983,847.271758 1818.63986,848.69047 1819.64848,849.918876 C1820.65277,851.170718 1821.87502,852.224192 1823.25424,853.026739 C1824.75743,853.885149 1826.45982,854.317678 1828.18364,854.279162 C1831.16952,854.116699 1834.0356,853.032502 1836.39931,851.171298 C1839.53104,848.987313 1842.42308,846.46804 1845.02575,843.656762 C1847.78237,840.741539 1850.34407,837.642222 1852.6937,834.379557 C1854.62114,831.782741 1856.41869,829.088942 1858.07953,826.308389 L1861.77658,820.139048 C1862.86818,818.326103 1863.85866,816.452246 1864.74334,814.526339 C1865.3367,813.134758 1865.24541,812.578126 1864.42385,812.856442 C1862.13217,814.366271 1860.05837,816.192842 1858.2621,818.283607 C1854.42812,822.180033 1850.5485,826.262003 1846.5776,830.575903 C1842.6872,834.83366 1838.45859,838.758797 1833.93461,842.311568 C1833.52382,842.682656 1832.7479,843.239288 1831.74376,843.981465 C1830.82175,844.705277 1829.78851,845.26949 1828.68571,845.651361 C1827.90322,846.043758 1826.96483,845.915378 1826.3123,845.326659 C1825.71894,844.770027 1825.71894,843.33206 1826.3123,841.012759 C1826.97289,837.940692 1828.08049,834.985889 1829.59856,832.2458 C1831.10477,829.369867 1832.79354,826.586705 1834.5736,823.803544 C1836.35366,821.020382 1838.17937,818.190835 1839.91378,815.361287 C1841.64775,812.630324 1843.02838,809.683765 1844.02162,806.594328 C1844.46515,804.996574 1844.58931,803.324719 1844.38676,801.67741 C1844.14628,799.949467 1843.55569,798.291013 1842.65234,796.806877 C1841.72294,795.313685 1840.5132,794.021193 1839.09222,793.003223 C1837.66906,791.92666 1835.93679,791.356129 1834.16282,791.379712 C1832.67744,791.375225 1831.21582,791.758561 1829.91806,792.492977 C1828.5474,793.23301 1827.24844,794.102731 1826.03844,795.090594 C1824.80609,796.064701 1823.57374,797.131579 1822.34139,798.244844 C1821.19669,799.318542 1819.99283,800.325198 1818.73563,801.259935 C1818.97536,800.905373 1819.18894,800.533269 1819.37462,800.146671 C1819.73977,799.543653 1820.05926,798.894248 1820.37876,798.244844 C1820.67639,797.606369 1821.01171,796.986759 1821.3829,796.389403 C1821.56595,796.04541 1821.77986,795.719325 1822.02189,795.415296 C1822.3791,794.0092 1822.19974,792.517826 1821.51983,791.240554 C1820.93992,790.061663 1820.03626,789.078837 1818.9182,788.411007 C1817.92288,787.740279 1816.7279,787.444875 1815.54065,787.576058 C1814.41728,787.65469 1813.39901,788.275606 1812.80209,789.245955 C1811.25101,791.442022 1809.86269,793.752226 1808.64862,796.157473 C1807.14241,798.98702 1805.72749,802.048498 1804.35822,805.434678 C1802.99911,808.624391 1801.8256,811.892506 1800.84374,815.222129 C1799.91413,818.250375 1799.24224,821.354189 1798.83547,824.499334 C1798.83547,826.957793 1798.83547,829.416253 1798.83547,831.828326 C1798.78334,832.662434 1798.78334,833.499063 1798.83547,834.333171 C1798.94596,835.178857 1799.11372,836.015791 1799.33753,836.838017 C1799.97653,838.739844 1801.20888,839.064546 1802.9433,837.858509 C1803.34024,837.343081 1803.67719,836.782726 1803.94743,836.188612 C1805.30878,833.878089 1806.51349,831.475905 1807.5532,828.998778 L1808.00962,829.09155 Z M1878.16226,838.368755 C1879.22856,836.736499 1879.85781,834.849969 1879.98796,832.895205 C1880.08974,831.349719 1879.54244,829.832769 1878.48176,828.720462 C1877.45554,827.507234 1875.9477,826.826167 1874.37393,826.865021 C1872.35493,826.854652 1870.4218,827.694232 1869.03375,829.184323 C1867.60162,830.665084 1866.75664,832.63027 1866.66033,834.70426 C1866.66033,838.183211 1869.03375,840.038652 1873.73493,840.409741 C1875.5199,840.708796 1877.31021,839.90823 1878.29919,838.368755 L1878.16226,838.368755 Z" id="Shape" fill="#006287"></path>
            <path d="M1038.88334,816.589187 C1044.17014,809.540559 1049.0902,802.223224 1053.62389,794.666393 C1058.29647,786.674089 1061.87709,778.089641 1064.26984,769.142974 C1065.13332,766.174097 1065.65236,763.115413 1065.81669,760.027467 C1065.81669,756.973772 1066.04416,754.011232 1066.04416,751.185425 L1066.04416,748.541928 C1066.60479,747.284839 1066.44845,745.822985 1065.6347,744.713415 C1064.85252,743.558813 1063.52212,742.901067 1062.13155,742.981469 C1060.62293,742.730826 1059.07764,743.109611 1057.85497,744.029752 C1056.66456,744.986764 1055.56773,746.055052 1054.57929,747.22018 C1049.86749,754.124611 1045.68507,761.377037 1042.06803,768.915086 C1038.07294,777.1548 1034.54892,785.615501 1031.51307,794.256195 C1028.32838,803.371702 1025.59865,812.487209 1023.23289,821.602715 C1020.91293,830.797845 1019.07542,840.108422 1017.72793,849.496166 C1017.31847,854.41854 1017.0455,859.386491 1017,864.445597 C1016.99898,869.640007 1018.26399,874.756109 1020.68514,879.349451 C1021.42907,881.014118 1022.91266,882.230158 1024.68874,882.631034 C1026.44192,882.966841 1028.23108,883.074078 1030.01172,882.950076 C1032.51415,882.16947 1034.679,880.562986 1036.15361,878.392323 C1037.98332,875.766792 1039.36686,872.856113 1040.24821,869.778169 C1041.33611,866.195573 1042.08254,862.517725 1042.47749,858.793983 C1042.92672,854.752638 1043.16968,850.69095 1043.20542,846.624782 C1043.27161,842.653135 1043.10451,838.681027 1042.70497,834.729045 C1042.341,830.900532 1041.88605,827.527795 1041.3401,824.565255 C1046.46997,825.759692 1051.77637,825.991492 1056.99056,825.248918 C1062.24708,824.365184 1067.3112,822.576438 1071.95858,819.961924 C1071.95858,819.961924 1072.32254,819.551726 1072.45903,819.095951 C1072.59552,818.640176 1072.04957,818.321133 1070.95768,818.321133 C1065.40723,818.776908 1059.99326,819.095951 1054.76128,819.232684 C1049.3461,819.387404 1043.93698,818.758018 1038.70136,817.364005 C1038.75651,817.09333 1038.75651,816.814284 1038.70136,816.543609 L1038.88334,816.589187 Z M1044.11533,796.398339 C1045.84416,791.56712 1047.84596,786.508014 1050.02974,781.129865 C1052.21353,775.751716 1054.57929,770.647032 1056.80857,765.724658 C1058.57977,761.793318 1060.74429,758.052019 1063.26894,754.558163 C1062.53457,758.998533 1061.50098,763.384004 1060.17524,767.684492 C1057.18296,777.409272 1053.1722,786.789667 1048.20992,795.669098 C1045.93456,799.754392 1043.30058,803.62859 1040.3392,807.245792 C1041.11262,804.830183 1042.3865,801.229558 1044.11533,796.398339 L1044.11533,796.398339 Z M1030.10271,845.849964 C1031.25526,839.772959 1032.43815,833.619992 1033.65136,827.391062 C1034.38847,828.80209 1034.80778,830.357874 1034.87974,831.948816 C1035.15853,834.521517 1035.26492,837.110042 1035.19821,839.696996 C1035.19821,842.568381 1034.97073,845.576498 1034.69776,848.812503 C1034.46501,851.646121 1034.05474,854.462285 1033.46938,857.244347 C1033.07683,859.322768 1032.38731,861.33366 1031.42208,863.215004 C1030.60316,864.719063 1029.69325,865.265993 1028.73784,864.94695 C1028.49689,858.595839 1028.9546,852.237455 1030.10271,845.986696 L1030.10271,845.849964 Z M1101.25769,808.841006 C1101.44392,807.403746 1101.44392,805.9484 1101.25769,804.51114 C1101.15143,802.836069 1100.83033,801.181676 1100.30228,799.588766 C1099.69981,797.894538 1098.75506,796.342976 1097.52706,795.031013 C1096.14365,793.293115 1094.29855,791.981836 1092.20408,791.248078 C1090.0473,790.61109 1087.76946,790.501682 1085.56174,790.929035 C1081.7525,791.369573 1078.19852,793.069577 1075.46173,795.760253 C1072.68589,798.454723 1070.29728,801.522566 1068.36443,804.87576 C1067.69857,805.999826 1067.1932,807.211817 1066.86308,808.476386 C1066.54461,809.798134 1066.22615,811.074305 1065.90768,812.259321 C1065.72503,812.543863 1065.47496,812.778725 1065.17975,812.942984 L1064.40633,813.262027 C1064.16005,813.400417 1063.94357,813.586304 1063.76939,813.808957 C1063.48728,814.297258 1063.31639,814.841987 1063.26894,815.404171 C1062.76493,817.476135 1062.38512,819.576454 1062.13155,821.69387 C1061.88021,824.316145 1061.88021,826.95651 1062.13155,829.578784 C1062.25095,832.12808 1062.74141,834.646233 1063.58741,837.053499 C1064.23332,839.096775 1065.5272,840.873064 1067.27254,842.112606 C1069.50295,843.895853 1072.29064,844.832139 1075.14327,844.756103 C1077.68178,844.603984 1080.084,843.554148 1081.9221,841.793563 C1084.41267,839.687156 1086.67007,837.318719 1088.65543,834.729045 C1090.76051,832.035682 1092.70504,829.220169 1094.47886,826.297201 L1098.57345,819.323839 C1100.88013,818.108718 1103.32403,817.175302 1105.85274,816.543609 C1108.51593,815.826467 1111.11749,814.896751 1113.63247,813.763379 L1115.99824,812.122588 C1116.98224,811.387954 1117.90991,810.580491 1118.77346,809.706979 C1119.43806,809.131843 1119.96647,808.415652 1120.32031,807.610412 C1120.54779,806.972327 1120.32031,806.698862 1119.04644,806.698862 C1117.39651,807.050965 1115.77057,807.507659 1114.17842,808.066188 C1112.49508,808.704273 1110.90274,809.205626 1109.35589,809.661401 C1107.92276,810.006979 1106.51017,810.433042 1105.12481,810.937572 C1103.75036,811.461589 1102.31205,811.798822 1100.84823,811.940278 C1100.84823,811.302193 1101.1212,810.299487 1101.34868,808.977738 L1101.25769,808.841006 Z M1088.38246,813.763379 C1086.87591,813.994581 1085.35645,814.131579 1083.83291,814.173577 C1082.42413,814.268352 1081.0106,814.268352 1079.60183,814.173577 C1078.32795,814.173577 1077.69101,813.854535 1077.69101,813.216449 C1077.80526,811.943905 1077.25458,810.702648 1076.23516,809.934867 C1075.98274,809.612206 1075.86822,809.20249 1075.91669,808.795428 C1077.09957,806.926749 1078.37345,805.103648 1079.69282,803.371702 C1081.1117,801.514102 1082.89148,799.963676 1084.9248,798.813948 C1085.9738,798.266806 1087.16157,798.044688 1088.33696,798.175863 C1089.47897,798.241569 1090.54576,798.767705 1091.29417,799.634344 C1092.86521,801.25348 1093.71812,803.438882 1093.65994,805.696156 C1093.78075,808.054117 1093.36054,810.408452 1092.43156,812.578364 C1092.42332,812.840321 1092.30821,813.087432 1092.11309,813.262027 C1091.9564,813.455115 1091.72436,813.571342 1091.47616,813.581069 C1090.4542,813.620266 1089.43593,813.726844 1088.42796,813.900112 L1088.38246,813.763379 Z M1075.55273,835.093665 C1075.20142,833.503265 1074.97326,831.888054 1074.87029,830.262447 C1074.77933,828.622921 1074.77933,826.979599 1074.87029,825.340073 C1074.93403,824.025074 1075.16332,822.723407 1075.55273,821.465983 C1077.85848,821.934603 1080.20635,822.163703 1082.55903,822.149646 C1085.10678,822.149646 1087.42705,822.149646 1089.61084,821.830603 C1089.13535,823.40589 1088.51074,824.932073 1087.74552,826.388356 C1086.75348,828.225532 1085.65989,830.005823 1084.46985,831.720928 C1083.265,833.33631 1081.94199,834.859757 1080.51174,836.278681 C1079.54397,837.415963 1078.26167,838.240649 1076.8266,838.648713 C1076.19445,837.53265 1075.76325,836.31386 1075.55273,835.048088 L1075.55273,835.093665 Z M1150.39284,804.283252 C1149.20014,806.620588 1148.31324,809.102235 1147.7541,811.666813 C1147.20233,814.120949 1147.12511,816.658277 1147.52663,819.141528 C1147.99043,821.792601 1149.08257,824.29344 1150.71131,826.433934 C1151.45801,827.211862 1152.42799,827.737549 1153.48654,827.937993 C1154.78114,828.254436 1156.1128,828.392442 1157.44465,828.34819 C1158.52078,828.325218 1159.57802,828.06043 1160.53834,827.573372 C1161.31177,827.163175 1161.35726,826.479511 1160.53834,825.613538 C1159.01719,824.448716 1158.05867,822.693782 1157.8996,820.78232 C1157.8082,818.915088 1158.05482,817.046695 1158.62753,815.267438 C1159.24619,813.360535 1160.06995,811.52666 1161.08429,809.798134 C1162.13069,807.975033 1163.0406,806.334241 1163.81402,804.784605 C1164.15156,803.507038 1164.28968,802.184832 1164.22348,800.864937 C1164.12433,799.311845 1163.81832,797.779009 1163.31357,796.307184 C1162.7724,794.75538 1161.97247,793.306748 1160.9478,792.022896 C1159.82888,790.754615 1158.37957,789.823487 1156.76222,789.333821 C1153.36134,789.006372 1149.94598,789.789805 1147.02618,791.56712 C1143.77186,793.448652 1140.78743,795.76384 1138.15455,798.449328 C1135.36152,801.285286 1132.79098,804.332826 1130.46581,807.564835 C1128.10004,810.80084 1125.91626,813.581069 1124.00545,815.996679 C1124.86986,813.034139 1125.64328,810.026022 1126.37121,806.881172 C1127.081,804.314386 1127.22076,801.622972 1126.78067,798.996258 C1126.57416,798.175351 1126.05043,797.470326 1125.32482,797.036424 C1124.52055,796.59136 1123.60061,796.400685 1122.68608,796.489494 C1121.73526,796.52397 1120.80994,796.806779 1120.00184,797.30989 C1119.20078,797.731661 1118.62037,798.479241 1118.4095,799.360879 C1117.68157,802.642461 1116.90815,806.060776 1116.22571,809.661401 C1115.54328,813.262027 1114.81535,816.908229 1114.17842,820.508855 C1113.54148,824.10948 1112.81355,827.573372 1112.13112,830.854955 C1111.44868,834.136537 1110.67526,837.099077 1109.90184,839.696996 C1109.37611,840.966833 1109.26464,842.370689 1109.58337,843.707819 C1109.83144,844.90492 1110.69882,845.878144 1111.85814,846.260161 C1112.96858,846.739522 1114.26215,846.401459 1114.99733,845.439766 C1117.95454,841.29221 1120.86626,836.825612 1123.82346,831.766505 C1126.78067,826.707399 1129.82887,822.286378 1132.92257,817.81978 C1135.8996,813.490835 1139.21609,809.406325 1142.84059,805.605001 C1146.08407,802.115596 1149.97921,799.297367 1154.30546,797.30989 C1152.75853,799.490214 1151.38924,801.791711 1150.21086,804.192097 L1150.39284,804.283252 Z M1172.73114,833.726339 C1169.63694,836.901377 1166.97516,840.472146 1164.81492,844.345905 C1163.78815,846.035816 1162.96355,847.840958 1162.35816,849.724054 C1161.56141,852.739649 1161.34524,855.879673 1161.72123,858.976293 C1162.06405,862.406149 1163.55528,865.618875 1165.95231,868.0918 C1166.85704,869.256882 1168.12051,870.090033 1169.54645,870.461832 C1171.02723,870.874598 1172.55911,871.074101 1174.09601,871.05434 C1176.69008,871.084729 1179.25708,870.523647 1181.60277,869.413549 C1183.96907,868.245184 1186.13449,866.706656 1188.01763,864.855795 C1189.99398,862.956141 1191.77706,860.864496 1193.34061,858.611673 C1194.88745,856.332796 1196.4798,854.05392 1197.89016,851.410423 C1199.30052,848.766926 1199.84647,846.442471 1200.5289,844.43706 C1201.14689,842.480108 1201.55859,840.463698 1201.75728,838.420825 C1201.89096,836.35133 1201.69126,834.273769 1201.16584,832.267858 C1200.45354,829.657846 1199.52525,827.111877 1198.39061,824.65641 C1198.82784,824.365917 1199.30226,824.135948 1199.80097,823.972747 C1200.25384,823.857197 1200.67413,823.638878 1201.02935,823.334662 C1203.39956,821.843928 1205.86119,820.504332 1208.39962,819.323839 C1211.22034,817.956513 1213.58611,816.725919 1215.40593,815.632058 L1216.90728,814.811663 C1217.67013,814.363204 1218.39993,813.860565 1219.09107,813.307604 C1219.74015,812.843199 1220.32194,812.29103 1220.8199,811.666813 C1221.27485,811.119882 1221.32035,810.709685 1220.8199,810.390642 C1220.47521,809.826196 1219.83961,809.507826 1219.18206,809.570246 C1217.42477,809.649027 1215.68337,809.939783 1213.99557,810.436219 C1211.76629,811.074305 1209.44602,811.803545 1206.98926,812.669519 C1204.5325,813.535492 1202.16674,814.401465 1199.93746,815.313016 C1197.70818,816.224566 1196.02484,816.862652 1194.93295,817.409582 C1194.43644,817.698067 1193.86872,817.840254 1193.29511,817.81978 C1192.79404,817.555645 1192.34659,817.200128 1191.97574,816.771497 C1191.4298,816.224566 1190.74736,815.495326 1189.92844,814.538198 C1189.10952,813.581069 1188.29061,812.669519 1187.47169,811.666813 L1185.01493,808.795428 C1184.32276,808.06367 1183.69842,807.270395 1183.14961,806.425396 C1182.18333,804.743326 1181.79943,802.788342 1182.05772,800.864937 C1182.30249,799.111771 1182.92332,797.432498 1183.87754,795.942564 C1184.70863,794.62042 1185.79063,793.474521 1187.06223,792.569826 C1187.93154,791.832437 1189.07323,791.500917 1190.20142,791.658275 C1190.40884,792.454729 1190.68278,793.232289 1191.02034,793.98273 C1191.4298,795.07659 1191.70277,795.805831 1191.83926,796.261606 C1192.47109,798.727829 1193.3081,801.136673 1194.34151,803.462857 C1195.31378,805.884063 1197.23938,807.796646 1199.66448,808.749851 C1200.98385,809.296781 1201.80277,809.160049 1202.12124,808.38523 C1202.42974,807.484254 1202.42974,806.505977 1202.12124,805.605001 C1201.80277,804.419985 1201.4843,803.280547 1201.12034,802.232263 C1200.75638,801.18398 1200.4834,799.998964 1200.16493,798.631638 C1199.79327,797.012613 1199.54987,795.366701 1199.43701,793.709264 C1199.43701,791.795008 1199.16403,789.151511 1199.16403,786.234549 C1199.17885,785.51517 1198.81628,784.840623 1198.20863,784.457025 C1197.63579,784.064661 1197.02633,783.728856 1196.38881,783.454319 C1195.78622,783.21182 1195.1615,783.028647 1194.52349,782.907389 C1193.80854,782.74532 1193.11953,782.484556 1192.47619,782.132571 C1191.02691,781.492812 1189.37593,781.492812 1187.92664,782.132571 C1186.51569,782.692965 1185.1726,783.41159 1183.92304,784.274715 C1180.57852,786.765186 1177.7246,789.856061 1175.50637,793.390222 C1173.11202,796.962217 1171.82952,801.165635 1171.82123,805.468268 C1171.78466,809.207032 1172.89646,812.866653 1175.00592,815.951101 C1177.1442,819.141528 1179.28249,822.240801 1181.46628,825.340073 C1178.28159,827.937993 1175.27889,830.718222 1172.36718,833.589607 L1172.73114,833.726339 Z M1187.79015,839.560264 C1187.01225,842.405451 1185.76683,845.101006 1184.10502,847.536332 C1182.38199,850.225212 1180.35125,852.7032 1178.05412,854.919893 C1176.11884,856.903714 1173.85637,858.5381 1171.36627,859.751111 C1170.85164,857.500778 1171.15828,855.140218 1172.23069,853.096791 C1173.523,850.373874 1175.04504,847.766482 1176.78024,845.303033 C1178.53147,842.738269 1180.4623,840.301337 1182.55817,838.010628 C1184.65096,835.777328 1186.2888,834.045382 1187.47169,832.860366 C1188.49173,834.950353 1188.63907,837.361225 1187.88115,839.560264 L1187.79015,839.560264 Z M1250.61946,822.514266 C1245.25099,825.613538 1239.70053,828.530501 1233.9226,831.265153 C1232.65973,831.904622 1231.33301,832.408767 1229.96449,832.769211 C1228.84277,833.036601 1227.67406,833.036601 1226.55233,832.769211 C1225.48822,832.504248 1224.59162,831.789003 1224.09557,830.809377 C1223.32617,829.288604 1222.9804,827.588109 1223.09467,825.887004 C1223.13651,823.962807 1223.47411,822.056563 1224.09557,820.235389 C1224.7079,818.151416 1225.53109,816.135544 1226.55233,814.219155 C1227.4045,812.606642 1228.41006,811.080312 1229.55504,809.661401 C1230.60143,808.38523 1231.46585,807.747145 1232.10278,807.747145 C1232.42125,809.296781 1232.73972,810.891995 1233.01269,812.623941 C1233.36789,814.540327 1234.12798,816.358487 1235.24197,817.956513 C1235.56044,818.503443 1235.92441,818.731331 1236.28837,818.685753 C1236.65234,818.640176 1236.9708,818.275555 1237.19828,817.591892 C1237.51675,815.768791 1237.88071,813.94569 1238.33567,812.213743 C1238.79062,810.481797 1239.20008,808.841006 1239.56405,807.336947 C1239.92801,805.832889 1240.24648,804.556718 1240.47396,803.326124 C1240.75134,802.249911 1240.75134,801.120755 1240.47396,800.044542 C1240.08595,798.734677 1239.24793,797.60454 1238.10819,796.854114 C1237.09369,795.978373 1235.74557,795.594885 1234.42306,795.805831 C1230.50532,796.031386 1226.79578,797.647139 1223.95909,800.363584 C1220.73873,803.329767 1218.14043,806.908877 1216.31584,810.891995 C1214.44025,814.909756 1213.29994,819.232228 1212.94917,823.653704 C1212.55305,827.716593 1213.36004,831.806384 1215.26944,835.412708 C1216.79223,838.277081 1219.42497,840.38707 1222.54873,841.246633 C1225.78893,842.181124 1229.22654,842.181124 1232.46675,841.246633 C1234.90132,840.473397 1237.23741,839.417965 1239.42756,838.101783 L1246.88883,833.544029 L1248.98162,832.085548 L1251.84784,829.943404 C1253.03072,829.077431 1254.44108,827.892415 1256.12441,826.433934 L1262.44829,820.736742 C1263.61567,819.78678 1264.71061,818.750808 1265.72397,817.63747 C1266.68587,816.541716 1267.51088,815.332592 1268.18073,814.036845 C1268.57793,813.361237 1268.66101,812.545601 1268.4082,811.803545 C1268.13523,811.211038 1267.4073,811.16546 1266.17892,811.803545 C1261.32488,815.722964 1256.18468,819.272743 1250.80144,822.423111 L1250.61946,822.514266 Z M1301.39245,810.755262 L1301.39245,811.074305 C1298.72452,815.653218 1296.42722,820.43899 1294.52263,825.385651 C1293.29425,828.530501 1292.20236,831.720928 1291.15596,834.865778 C1290.10956,838.010628 1289.01767,841.246633 1287.78929,844.391482 L1286.97037,847.76422 C1286.97037,848.675771 1286.60641,849.587321 1286.46992,850.453294 C1286.26361,852.478151 1286.46472,854.523894 1287.06136,856.469529 C1287.65756,858.146472 1288.5687,859.693568 1289.7456,861.027282 C1291.00644,862.416436 1292.56069,863.506373 1294.29515,864.21771 C1296.00694,865.006803 1297.87031,865.41126 1299.75461,865.402858 C1302.33383,865.152585 1304.78436,864.154767 1306.80642,862.531341 C1309.86935,860.326606 1312.74534,857.872274 1315.40507,855.193358 C1318.60542,852.07105 1321.64251,848.785083 1324.50417,845.348611 C1327.5372,841.763178 1330.40342,838.20813 1333.10282,834.683468 C1335.78706,831.219575 1338.10733,827.98357 1340.06363,825.112185 C1342.01994,822.240801 1343.4303,820.007502 1344.34021,818.457865 C1345.25012,816.908229 1344.79517,815.221861 1343.83976,814.993973 C1342.88436,814.766085 1341.65598,815.404171 1340.24562,816.817074 C1338.83526,818.229978 1336.333,820.691165 1333.83075,823.471394 C1331.3285,826.251624 1328.73525,829.214164 1326.05102,832.313436 L1318.04381,841.428943 C1315.35957,844.482637 1312.90281,847.080557 1310.67353,849.268279 C1308.92043,850.976615 1306.99991,852.503583 1304.9411,853.826032 C1303.34876,854.78316 1302.30236,854.737583 1301.75641,853.826032 C1301.76307,851.871469 1302.19793,849.942196 1303.03029,848.174418 L1306.9884,837.007922 C1308.48975,832.678056 1310.12759,828.120303 1311.81092,823.334662 C1313.49426,818.549021 1314.90462,814.219155 1315.99651,810.026022 C1316.40085,808.697732 1316.58527,807.312061 1316.54245,805.924044 C1316.36303,804.452717 1315.48061,803.160699 1314.17669,802.460151 C1312.83199,801.756483 1311.41276,801.206113 1309.94561,800.81936 C1308.25621,800.296184 1306.44851,800.296184 1304.75912,800.81936 C1302.97551,801.311923 1301.25145,801.99973 1299.61812,802.870349 C1295.38397,805.032957 1291.37569,807.613264 1287.6528,810.572952 C1283.94852,813.504814 1280.39529,816.623298 1277.00685,819.916347 C1275.4564,821.312901 1274.02584,822.837517 1272.73028,824.4741 C1272.7337,823.157013 1272.8709,821.843693 1273.13974,820.554432 C1273.41271,819.232684 1273.68568,818.00209 1273.91316,816.771497 C1275.42968,812.396053 1276.84004,808.02061 1278.14424,803.645167 C1279.46361,799.087413 1281.01046,794.803125 1282.69379,789.971907 C1282.69379,789.971907 1282.92127,789.424976 1283.33073,788.969201 C1287.0199,785.030011 1290.29744,780.723338 1293.11227,776.116336 C1296.62125,770.521329 1299.76695,764.705757 1302.52984,758.705718 C1305.27776,752.753948 1307.51512,746.5787 1309.21768,740.246817 C1310.78182,734.990489 1311.29208,729.47601 1310.71903,724.021215 C1310.56035,723.09629 1310.18627,722.221862 1309.62714,721.468873 C1309.0584,720.668709 1308.3105,720.013115 1307.44335,719.554616 C1306.54513,719.146013 1305.5624,718.958489 1304.57714,719.007686 C1303.45694,719.085526 1302.39,719.516259 1301.52894,720.238279 C1299.63179,721.71124 1297.9207,723.410106 1296.43344,725.297386 C1294.69486,727.565719 1293.17172,729.99188 1291.88389,732.544214 C1289.24515,737.78563 1286.56091,743.482822 1283.74019,749.590211 C1280.91947,755.697601 1278.28073,762.078456 1275.73298,768.641621 C1273.18523,775.204786 1270.77397,781.859106 1268.54469,788.559003 C1266.31541,795.258901 1264.31361,801.822066 1262.53928,808.20292 C1261.78102,810.724877 1261.05309,813.641839 1260.3555,816.953807 C1259.64262,820.296866 1259.24657,823.699911 1259.17261,827.117597 C1259.10094,830.439502 1259.57747,833.750456 1260.58297,836.916767 C1261.54357,839.936447 1263.44003,842.570738 1265.99694,844.43706 C1266.48753,844.77718 1267.09566,844.901412 1267.68002,844.780887 C1268.26437,844.660362 1268.77406,844.305575 1269.09064,843.798974 C1270.13398,841.187352 1271.42916,838.683925 1272.95775,836.324259 C1274.54804,833.852462 1276.26397,831.464094 1278.09875,829.168586 C1281.23814,825.379432 1284.77699,821.941165 1288.65371,818.913641 L1300.71002,809.798134 C1301.25596,809.798134 1301.52894,809.798134 1301.52894,810.117177 L1301.39245,810.755262 Z M1288.6992,772.698021 C1290.83749,767.775648 1293.02127,762.625386 1295.34155,757.247237 C1297.66182,751.869088 1299.8911,746.809982 1301.98389,741.933186 C1304.07668,737.05639 1305.76002,733.319032 1306.9429,730.675535 C1307.76342,732.771232 1307.85952,735.081885 1307.21587,737.2387 C1306.48333,740.65082 1305.49479,744.002691 1304.25867,747.265757 C1302.8938,751.003115 1301.25596,754.831628 1299.34515,758.842451 C1297.43434,762.853274 1295.52353,766.590632 1293.61272,770.054524 C1291.94195,773.199065 1290.08862,776.242788 1288.06226,779.170031 C1286.88221,780.982848 1285.47561,782.637054 1283.87668,784.092405 C1284.96857,781.494485 1286.56091,777.71155 1288.6992,772.789176 L1288.6992,772.698021 Z M1338.33481,841.611253 C1341.93728,844.137351 1346.34432,845.241098 1350.70958,844.710525 C1353.60964,844.277995 1356.40289,843.304005 1358.94427,841.83914 C1361.68902,840.352517 1364.27978,838.596781 1366.67851,836.597724 C1369.16713,834.547306 1371.50837,832.323688 1373.68482,829.943404 C1375.95959,827.573372 1378.23437,825.385651 1380.00869,823.061196 C1381.78302,820.736742 1382.78392,819.779614 1384.0123,818.138823 C1385.27034,816.519367 1386.33888,814.760743 1387.19699,812.897406 C1387.86425,811.34777 1387.95524,810.527375 1387.46996,810.436219 C1386.7951,810.29221 1386.09752,810.29221 1385.42266,810.436219 C1384.47319,810.947151 1383.61276,811.609029 1382.87491,812.396053 L1380.50915,814.85724 C1379.41725,815.814369 1378.05239,817.090539 1376.41455,818.640176 L1371.31905,823.197929 C1369.59022,824.83872 1367.8159,826.388356 1366.08707,827.755682 C1364.35824,829.123008 1362.7659,830.444757 1361.53752,831.447463 C1360.30914,832.450168 1358.71679,832.860366 1356.76049,833.726339 C1354.92265,834.574266 1352.95267,835.098486 1350.93706,835.275976 C1349.35547,835.500175 1347.74548,835.161468 1346.38751,834.318847 C1345.15913,833.498452 1344.74967,831.629773 1345.06814,828.803966 C1345.23246,827.306868 1345.87009,825.901564 1346.88796,824.793143 C1348.16505,823.154982 1349.58064,821.630092 1351.11904,820.235389 C1352.75688,818.731331 1354.44022,817.227272 1356.21454,815.677636 C1357.98887,814.128 1359.30824,813.125294 1360.30914,812.213743 C1362.02506,810.714206 1363.44483,808.905374 1364.49472,806.881172 C1365.38292,804.920918 1366.01006,802.852211 1366.36004,800.728205 C1366.9562,798.550125 1366.57406,796.219871 1365.31364,794.34735 C1364.01187,792.590064 1362.12251,791.360572 1359.99067,790.883457 C1355.78344,790.909024 1351.68576,792.229648 1348.25283,794.666393 C1344.88721,797.091811 1342.06649,800.197091 1339.97264,803.781899 C1337.74678,807.639164 1336.09168,811.799724 1335.05913,816.133411 C1334.00059,820.377205 1333.57137,824.75398 1333.78525,829.123008 C1333.35009,833.613978 1335.15453,838.030888 1338.60778,840.92759 L1338.33481,841.611253 Z M1355.53211,805.605001 C1353.47218,807.493278 1351.31583,809.273195 1349.07175,810.937572 C1349.53378,808.068002 1350.81346,805.393242 1352.75688,803.234969 C1354.72306,801.296836 1357.1033,799.831829 1359.7177,798.950681 C1358.88668,801.478312 1357.4495,803.763169 1355.53211,805.605001 L1355.53211,805.605001 Z M1386.24158,832.085548 C1387.56095,829.123008 1388.97131,826.160469 1390.56365,822.970041 C1392.1002,820.059769 1393.83305,817.257848 1395.75014,814.583775 C1397.26786,812.307566 1399.35399,810.469089 1401.80105,809.251204 C1404.39429,808.066188 1405.98663,807.883878 1406.3506,808.795428 C1406.71456,809.706979 1406.57807,811.256615 1405.39519,813.353182 C1402.71657,818.015666 1400.331,822.84107 1398.2524,827.80126 C1396.05075,832.879386 1394.90522,838.353731 1394.88573,843.89013 C1394.90523,845.436812 1395.15047,846.972318 1395.61366,848.447883 C1396.07999,849.948882 1396.83757,851.342866 1397.84294,852.549861 C1398.84399,853.779884 1400.0623,854.814997 1401.43708,855.603556 C1402.93542,856.447004 1404.63233,856.871994 1406.3506,856.834149 C1409.32685,856.674518 1412.1837,855.609218 1414.53979,853.780454 C1417.66143,851.634535 1420.54416,849.159173 1423.13844,846.396894 C1425.88618,843.532482 1428.43963,840.487185 1430.78169,837.281387 C1432.70291,834.729833 1434.49467,832.082985 1436.15016,829.350896 L1439.83529,823.289084 C1440.92338,821.507739 1441.91067,819.666542 1442.7925,817.774202 C1443.38394,816.406876 1443.29295,815.859946 1442.47403,816.133411 C1440.18974,817.616925 1438.12262,819.411659 1436.33214,821.465983 C1432.51052,825.294496 1428.6434,829.305319 1424.68529,833.544029 C1420.80742,837.727575 1416.59244,841.584298 1412.08303,845.075145 C1411.67357,845.439766 1410.90015,845.986696 1409.89925,846.715937 C1408.9802,847.427134 1407.9503,847.981512 1406.85105,848.356728 C1406.07108,848.742285 1405.13571,848.616143 1404.48528,848.037685 C1403.89384,847.490755 1403.89384,846.077851 1404.48528,843.798974 C1405.14375,840.780452 1406.24778,837.877151 1407.76096,835.184821 C1409.26231,832.359013 1410.94564,829.624361 1412.71997,826.889709 C1414.49429,824.155057 1416.31411,821.374828 1418.04294,818.594598 C1419.77132,815.911235 1421.14751,813.016033 1422.13754,809.980444 C1422.57965,808.410539 1422.7034,806.767823 1422.5015,805.149226 C1422.2618,803.4514 1421.67312,801.821853 1420.77267,800.363584 C1419.84627,798.896418 1418.64043,797.626453 1417.22402,796.626227 C1415.80546,795.568428 1414.07876,795.007841 1412.31051,795.031013 C1410.82991,795.026604 1409.373,795.403259 1408.07943,796.124874 C1406.71318,796.852009 1405.41841,797.706571 1404.21231,798.677216 C1402.98393,799.634344 1401.75555,800.682627 1400.52717,801.776488 C1399.38616,802.831472 1398.18617,803.820583 1396.93303,804.739028 C1397.17198,804.390645 1397.38487,804.025027 1397.56996,803.645167 C1397.93393,803.052659 1398.2524,802.414573 1398.57086,801.776488 C1398.86753,801.149141 1399.20177,800.540331 1399.57177,799.953387 C1399.75423,799.61539 1399.96744,799.294988 1400.2087,798.996258 C1400.56476,797.614669 1400.38598,796.14929 1399.70825,794.89428 C1399.13022,793.735937 1398.22947,792.770241 1397.11501,792.114051 C1396.12289,791.455014 1394.93177,791.164758 1393.74834,791.293655 C1392.62859,791.370916 1391.6136,791.98101 1391.01861,792.934446 C1389.47252,795.092236 1388.08868,797.362174 1386.87852,799.725499 C1385.37717,802.505729 1383.9668,805.513846 1382.60194,808.841006 C1381.24721,811.975123 1380.07748,815.186277 1379.09878,818.457865 C1378.17217,821.43333 1377.50244,824.483046 1377.09698,827.573372 C1377.09698,829.988982 1377.09698,832.404591 1377.09698,834.774623 C1377.04503,835.594193 1377.04503,836.416239 1377.09698,837.23581 C1377.20712,838.066755 1377.37433,838.889102 1377.59743,839.696996 C1378.23437,841.565675 1379.46275,841.884718 1381.19158,840.699702 C1381.58724,840.193258 1381.9231,839.64267 1382.19248,839.058911 C1383.54944,836.788659 1384.75027,834.428344 1385.78662,831.994393 L1386.24158,832.085548 Z M1456.16818,841.201055 C1457.23105,839.597248 1457.85827,837.743599 1457.988,835.822906 C1458.08945,834.304358 1457.54392,832.813847 1456.48665,831.720928 C1455.46374,830.528846 1453.96076,829.85965 1452.39205,829.897827 C1450.37956,829.887638 1448.45266,830.712585 1447.06908,832.176703 C1445.64156,833.631656 1444.79931,835.562589 1444.70331,837.60043 C1444.70331,841.018745 1447.06908,842.841846 1451.75512,843.206467 C1453.53434,843.500309 1455.31887,842.713697 1456.30467,841.201055 L1456.16818,841.201055 Z" id="Shape" fill="#74C6C7"></path>
            <path d="M677.709311,834.557996 C678.283022,829.882201 679.106796,825.240337 680.177109,820.652259 C681.334841,815.697865 682.70584,810.591496 684.290105,805.333152 C685.889604,800.090005 687.489103,795.257192 689.134301,790.880304 C689.362801,790.424379 689.545601,790.014045 689.728401,789.55812 C689.900606,789.13697 690.148397,788.750705 690.4596,788.418305 C694.358291,783.63706 697.98935,778.64467 701.336191,773.463939 C704.720678,768.186979 707.773224,762.705307 710.476184,757.05061 C713.245476,751.320361 715.582653,745.39209 717.468278,739.315097 C719.404721,733.16195 720.766291,726.843237 721.535574,720.439769 C722.070624,717.926626 720.749849,715.386767 718.382277,714.375956 C717.26312,713.874681 715.982537,713.874681 714.86338,714.375956 C713.721481,714.784259 712.721839,715.512441 711.984282,716.473215 C709.857619,718.846322 707.873809,721.343095 706.043287,723.950398 C704.169589,726.64036 702.34159,729.4671 700.467892,732.430617 C696.400595,739.223912 692.516099,746.518725 688.768702,754.406241 C685.021305,762.293757 681.639508,770.409236 678.48621,778.707086 C675.381579,786.931086 672.727069,795.31728 670.534417,803.828597 C668.415878,811.864434 666.813128,820.02687 665.735921,828.26622 C664.876808,834.965911 664.769512,841.740306 665.416021,848.463732 C665.874049,851.284458 667.543012,853.76537 669.986017,855.257027 C674.980437,859.392261 682.372405,858.784464 686.620803,853.889249 C691.126122,849.767077 695.074273,845.077212 698.365694,839.93792 C701.930291,834.46681 705.403488,829.314849 708.830985,824.482035 C710.476184,822.111221 712.029982,819.694815 713.400981,817.369593 C714.77198,815.044372 716.462879,812.582372 717.970977,810.07478 C718.323346,809.346725 718.234981,808.48279 717.742478,807.840744 C717.239778,807.339226 716.554279,807.521596 715.685979,808.433448 C713.263881,810.941039 710.750383,813.767779 708.191186,816.868075 C705.631988,819.96837 702.98139,823.205443 700.285092,826.488109 C697.588794,829.770775 694.755397,833.05344 691.830599,836.336106 C688.886461,839.56874 685.74224,842.614209 682.416407,845.454622 C681.625713,845.99395 680.675592,846.251005 679.720109,846.184103 C678.716091,846.084101 677.852061,845.433203 677.480811,844.497178 C677.023013,841.230398 677.023013,837.91596 677.480811,834.649181 L677.709311,834.557996 Z M715.960179,735.166172 C714.86338,738.038505 713.583781,741.1388 712.167082,744.284688 C710.750383,747.430576 709.242285,750.986797 707.597086,754.451833 C705.951887,757.916869 704.306689,761.245128 702.66149,764.208645 C701.016291,767.172163 699.416793,769.907718 698.091494,772.278532 C697.045592,774.080575 695.804233,775.76241 694.389797,777.293716 C698.091494,768.950274 701.838891,760.652424 705.586288,752.308982 C709.313009,743.977212 713.540323,735.877406 718.245177,728.05373 C717.722449,730.433854 717.004053,732.766967 716.097279,735.029395 L715.960179,735.166172 Z M714.086481,837.658291 C717.687414,840.186178 722.100547,841.29093 726.47117,840.758586 C729.398723,840.326184 732.219561,839.352034 734.788563,837.886254 C737.530892,836.398356 740.118061,834.641993 742.511857,832.643107 C745.02649,830.592648 747.393492,828.368324 749.595351,825.986591 C751.834649,823.615776 754.165347,821.427333 755.947646,819.102111 C757.729944,816.77689 758.689643,815.819445 759.969242,814.178113 C761.232938,812.558122 762.30628,810.798917 763.16824,808.934966 C763.853739,807.384818 763.899439,806.564152 763.442439,806.472967 C762.764544,806.328909 762.063837,806.328909 761.385941,806.472967 C760.42309,806.969879 759.556524,807.633714 758.826743,808.433448 L756.450345,810.895447 C755.353546,811.852891 753.982547,813.129483 752.337349,814.679631 L747.218953,819.238889 C745.482354,820.880222 743.700056,822.430369 741.963457,823.798147 C740.226859,825.165924 738.62736,826.488109 737.164961,827.491146 C735.702563,828.494182 734.377264,828.904516 732.594965,829.770775 C730.748867,830.618981 728.770032,831.143374 726.74537,831.320922 C725.156667,831.545196 723.539443,831.206377 722.175374,830.363478 C720.941475,829.542812 720.530175,827.673516 720.850075,824.846776 C721.017306,823.358587 721.639571,821.9578 722.632373,820.834629 C723.94399,819.206351 725.38023,817.682026 726.92817,816.275371 C728.573369,814.770816 730.264267,813.266261 732.046566,811.716113 C733.828864,810.165966 735.154163,809.162929 736.159562,808.251077 C737.866794,806.746967 739.277237,804.937802 740.318259,802.916745 C741.226665,800.958247 741.872036,798.888715 742.237657,796.761747 C742.842446,794.577277 742.440408,792.237565 741.140858,790.378786 C739.857128,788.595747 737.948722,787.359012 735.793963,786.91375 C731.582981,786.945715 727.483339,788.266612 724.049072,790.697934 C720.668334,793.124154 717.83494,796.230458 715.731679,799.81645 C711.317299,807.51896 709.148754,816.299091 709.470784,825.165924 C709.044654,829.666395 710.874916,834.086245 714.36068,836.974402 L714.086481,837.658291 Z M731.361066,801.640153 C729.285356,803.539883 727.1035,805.320843 724.825972,806.974485 C725.328155,804.116003 726.608763,801.450396 728.527669,799.269339 C730.513242,797.344072 732.90092,795.880579 735.519763,794.983637 C734.719195,797.517226 733.288481,799.807263 731.361066,801.640153 L731.361066,801.640153 Z M792.964615,800.226783 C791.766547,802.56489 790.875669,805.047357 790.314017,807.612781 C789.835459,810.082312 789.835459,812.620434 790.314017,815.089964 C790.779901,817.741912 791.876957,820.243577 793.513014,822.384777 C794.263071,823.162962 795.237406,823.688823 796.300712,823.889332 C797.601136,824.20588 798.938772,824.343931 800.276609,824.299665 C801.357576,824.276685 802.419572,824.01181 803.384206,823.524591 C804.161106,823.114258 804.206806,822.430369 803.384206,821.56411 C801.856213,820.398904 800.893387,818.64339 800.733608,816.731297 C800.641796,814.863448 800.88952,812.994439 801.464808,811.214595 C802.086247,809.307062 802.913707,807.472582 803.932606,805.743485 C804.983705,803.919782 805.897704,802.278449 806.674603,800.728302 C807.013657,799.450313 807.152399,798.12767 807.085903,796.80734 C806.986312,795.253735 806.678922,793.720393 806.171904,792.248082 C805.628304,790.695766 804.824781,789.246655 803.795506,787.962379 C802.671557,786.69368 801.215729,785.762244 799.591109,785.272417 C796.174956,784.94486 792.744244,785.728551 789.811318,787.506454 C786.46195,789.371245 783.386321,791.687889 780.671325,794.390933 C777.865743,797.227827 775.283655,800.276373 772.948032,803.509449 C770.571634,806.746522 768.378035,809.527669 766.458637,811.944076 C767.326936,808.980558 768.103836,805.971448 768.835035,802.82556 C769.548008,800.257927 769.6884,797.565624 769.246335,794.938044 C769.038893,794.116865 768.512814,793.411608 767.783936,792.977563 C766.97605,792.532352 766.051977,792.341613 765.133338,792.430452 C764.178248,792.46494 763.248773,792.747842 762.43704,793.251119 C761.632375,793.673029 761.049362,794.420856 760.837542,795.302785 C760.106342,798.58545 759.329443,802.004894 758.643943,805.606708 C757.958444,809.208521 757.227245,812.855928 756.587445,816.457742 C755.947646,820.059555 755.216446,823.524591 754.530947,826.807257 C753.845447,830.089923 753.068548,833.05344 752.291649,835.652217 C751.763555,836.922473 751.651584,838.326792 751.971749,839.664364 C752.220934,840.861861 753.092217,841.835405 754.256747,842.217549 C755.397785,842.781145 756.779294,842.455722 757.547144,841.442475 C760.517642,837.29355 763.442439,832.825478 766.412937,827.764701 C769.383435,822.703925 772.445332,818.281445 775.552929,813.813372 C778.543337,809.482998 781.874736,805.39714 785.515521,801.594561 C788.773574,798.104004 792.686219,795.284844 797.031911,793.296711 C795.478029,795.477756 794.102591,797.780012 792.918915,800.181191 L792.964615,800.226783 Z M819.927592,828.129442 C821.252891,825.165924 822.71529,822.202407 824.497589,819.010926 C826.008747,816.091083 827.734844,813.287051 829.661684,810.621891 C831.197265,808.3546 833.289937,806.518004 835.739779,805.28756 C838.390377,804.102152 839.989876,803.919782 840.538275,804.831634 C841.086675,805.743485 840.538275,807.293633 839.532876,809.390892 C836.878328,814.074092 834.483103,818.898946 832.357982,823.843739 C830.160912,828.926448 829.025757,834.402726 829.021885,839.93792 C829.019142,841.486945 829.266024,843.026337 829.753084,844.497178 C830.224359,845.98822 830.968074,847.37941 831.946682,848.60051 C832.958762,849.842198 834.199765,850.879096 835.602679,851.655213 C837.107756,852.498939 838.812283,852.92407 840.538275,852.886213 C843.527907,852.726529 846.397594,851.660877 848.764268,849.83151 C851.881784,847.661398 854.775133,845.187212 857.401561,842.445512 C860.160157,839.591398 862.710627,836.54412 865.033455,833.326996 C867.318453,830.226701 869.146451,827.582331 870.47175,825.393887 L874.173447,819.330074 C875.544446,817.004852 876.504145,815.181149 877.143945,813.813372 C877.783744,812.445595 877.600944,811.898484 876.778345,812.172039 C874.483787,813.656043 872.407378,815.451369 870.60885,817.506371 C866.770053,821.336148 862.885557,825.348295 858.95536,829.588404 C855.03832,833.751398 850.806216,837.607739 846.29647,841.123327 L844.057172,842.76466 C843.133996,843.476092 842.099464,844.030653 840.995275,844.405993 C840.209793,844.779164 839.277484,844.653956 838.618877,844.086845 C838.024777,843.539734 838.070477,842.126364 838.618877,839.846735 C839.280304,836.827216 840.389294,833.922956 841.909274,831.229737 C843.463073,828.402997 845.108271,825.667443 846.93627,822.931888 L852.283165,814.634038 C853.983289,811.9299 855.363499,809.038271 856.396162,806.017041 C856.82496,804.443536 856.93373,802.800323 856.716062,801.184227 C856.497341,799.480442 855.90437,797.84582 854.979463,796.397007 C854.065167,794.931441 852.869235,793.660844 851.460566,792.658415 C850.035624,791.600267 848.301167,791.039495 846.52497,791.062675 C845.022506,791.05248 843.542842,791.429379 842.229174,792.156897 C840.865041,792.874108 839.578644,793.72969 838.390377,794.710081 C837.104622,795.680274 835.869129,796.715041 834.68868,797.810376 C833.526926,798.866114 832.306316,799.85553 831.032683,800.773894 C831.312025,800.44342 831.542836,800.07499 831.718183,799.679672 L832.677882,797.810376 L833.683281,795.986673 C833.866564,795.648565 834.080739,795.328057 834.32308,795.029229 C834.694696,793.652884 834.531469,792.18729 833.866081,790.925897 C833.256601,789.772677 832.339241,788.810133 831.215483,788.14475 C830.218911,787.485496 829.022432,787.195144 827.833686,787.324083 C826.718294,787.39313 825.709113,788.007454 825.137388,788.965416 C823.551378,791.110865 822.14516,793.382975 820.932992,795.75871 C819.470593,798.539858 818.008194,801.548968 816.637195,804.877226 C815.29632,808.02027 814.121738,811.231366 813.118298,814.497261 C812.178445,817.468655 811.520521,820.521577 811.1532,823.615776 C811.1532,826.032183 811.1532,828.44859 811.1532,830.819404 C811.102559,831.639293 811.102559,832.461514 811.1532,833.281403 C811.1532,834.056477 811.427399,834.877144 811.655899,835.743403 C812.341399,837.612698 813.529598,837.931846 815.266196,836.746439 C815.663636,836.239828 816.00101,835.689058 816.271595,835.105107 C817.634651,832.834106 818.840882,830.473011 819.881892,828.038257 L819.927592,828.129442 Z M871.797049,837.658291 C875.41571,840.185224 879.842557,841.289335 884.227439,840.758586 C887.153219,840.318978 889.972758,839.345277 892.544832,837.886254 C895.280501,836.387492 897.866643,834.631826 900.268125,832.643107 C902.772364,830.580862 905.138589,828.357269 907.35162,825.986591 C909.590918,823.615776 911.921616,821.427333 913.658214,819.102111 C915.394813,816.77689 916.445912,815.819445 917.679811,814.178113 C918.941883,812.548197 920.02938,810.790897 920.924508,808.934966 C921.564308,807.384818 921.655708,806.564152 921.153008,806.472967 C920.475113,806.328909 919.774405,806.328909 919.09651,806.472967 C918.142774,806.984067 917.278478,807.646163 916.537312,808.433448 C915.851812,809.208521 915.029213,810.029188 914.160914,810.895447 C913.292615,811.761706 911.693116,813.129483 910.047917,814.679631 L904.929522,819.238889 C903.192923,820.880222 901.456324,822.430369 899.674026,823.798147 C897.891727,825.165924 896.337929,826.488109 895.10403,827.491146 C893.870131,828.494182 892.316332,828.904516 890.534034,829.770775 C888.703738,830.618241 886.740029,831.142723 884.730138,831.320922 C883.141839,831.533684 881.528483,831.195676 880.160142,830.363478 C878.971943,829.542812 878.514944,827.673516 878.834843,824.846776 C878.999905,823.349184 879.640395,821.943416 880.662842,820.834629 C881.945668,819.195927 883.367625,817.670534 884.912938,816.275371 C886.558137,814.770816 888.294735,813.266261 890.031334,811.716113 C891.767933,810.165966 893.138931,809.162929 894.144331,808.251077 C895.867968,806.751045 897.294118,804.941616 898.348727,802.916745 C899.261761,800.963746 899.892606,798.891454 900.222426,796.761747 C900.821263,794.582948 900.437407,792.251925 899.171326,790.378786 C897.863705,788.62092 895.96585,787.391022 893.824431,786.91375 C889.59924,786.945181 885.484858,788.26569 882.033841,790.697934 C878.666912,793.125941 875.848822,796.232536 873.762148,799.81645 C871.526279,803.674988 869.863742,807.836922 868.826552,812.172039 C867.749196,816.415188 867.30266,820.793247 867.501253,825.165924 C867.06413,829.658377 868.876679,834.076744 872.345449,836.974402 L871.797049,837.658291 Z M889.071635,801.640153 C887.012,803.539998 884.845344,805.321005 882.58224,806.974485 C883.084424,804.116003 884.365031,801.450396 886.283937,799.269339 C888.258948,797.330567 890.649887,795.865075 893.276031,794.983637 C892.458782,797.520288 891.012596,799.80993 889.071635,801.640153 L889.071635,801.640153 Z M919.919109,828.129442 C921.244408,825.165924 922.706807,822.202407 924.489105,819.010926 C926.032556,816.099693 927.773192,813.296847 929.698901,810.621891 C931.234482,808.3546 933.327154,806.518004 935.776996,805.28756 C938.427594,804.102152 939.981392,803.919782 940.346992,804.831634 C940.712592,805.743485 940.575492,807.293633 939.387293,809.390892 C936.714652,814.064506 934.318912,818.890399 932.212399,823.843739 C930.000861,828.923541 928.850182,834.399694 928.830602,839.93792 C928.843381,841.489354 929.105684,843.028685 929.607501,844.497178 C930.059964,845.996033 930.805507,847.390643 931.801099,848.60051 C932.80665,849.830939 934.030434,850.866393 935.411396,851.655213 C936.920526,852.488725 938.622243,852.913154 940.346992,852.886213 C943.339647,852.741131 946.213594,851.673898 948.572985,849.83151 C951.708655,847.684882 954.604335,845.208702 957.210278,842.445512 C959.983451,839.591912 962.549154,836.544681 964.887872,833.326996 C967.17287,830.226701 969.000868,827.582331 970.326167,825.393887 L974.027864,819.330074 C975.08464,817.637186 976.045836,815.886746 976.906962,814.086927 C977.546761,812.71915 977.409661,812.172039 976.587062,812.445595 C974.292504,813.929598 972.216094,815.724924 970.417567,817.779926 C966.57877,821.609703 962.694273,825.62185 958.764077,829.86196 C954.842141,834.036578 950.593908,837.89369 946.059487,841.396882 C945.357366,841.981642 944.625174,842.529496 943.865889,843.038215 C942.942713,843.749647 941.908181,844.304209 940.803992,844.679548 C940.01851,845.05272 939.086201,844.927512 938.427594,844.3604 C937.833494,843.813289 937.833494,842.399919 938.427594,840.12029 C939.08902,837.100772 940.198011,834.196512 941.717991,831.503293 C943.22609,828.676553 944.916988,825.940998 946.744987,823.205443 L952.091882,814.907594 C953.792006,812.203455 955.172216,809.311826 956.204879,806.290596 C956.633677,804.717092 956.742446,803.073878 956.524779,801.457783 C956.283998,799.759397 955.692673,798.129312 954.78818,796.670562 C953.873884,795.204996 952.677952,793.934399 951.269283,792.93197 C949.838197,791.88575 948.107849,791.326306 946.333687,791.33623 C944.831223,791.326036 943.351559,791.702934 942.037891,792.430452 C940.665506,793.157827 939.364918,794.012671 938.153394,794.983637 C936.919495,795.941081 935.685596,796.98971 934.451697,798.083932 C933.314915,799.149922 932.108862,800.139912 930.8414,801.04745 C931.103734,800.704924 931.333241,800.338575 931.526899,799.953228 L932.486599,798.083932 C932.806498,797.445636 933.172098,796.80734 933.491998,796.260229 C933.67528,795.92212 933.889456,795.601613 934.131797,795.302785 C934.489454,793.92074 934.309871,792.454877 933.629098,791.199452 C933.048464,790.040727 932.143669,789.074712 931.0242,788.418305 C930.027628,787.759051 928.831149,787.468699 927.642403,787.597639 C926.527011,787.666685 925.51783,788.28101 924.946105,789.238972 C923.360094,791.38442 921.953877,793.656531 920.741708,796.032266 C919.23361,798.813413 917.816911,801.822523 916.445912,805.150782 C915.0851,808.285934 913.910109,811.498148 912.927015,814.770816 C911.987162,817.74221 911.329238,820.795133 910.961917,823.889332 C910.824815,826.288593 910.824815,828.693698 910.961917,831.09296 C910.911276,831.912848 910.911276,832.73507 910.961917,833.554959 C910.961917,834.330033 911.236116,835.150699 911.464616,836.016958 C912.104416,837.886254 913.338315,838.205402 915.074913,837.019995 C915.472353,836.513384 915.809727,835.962613 916.080312,835.378662 C917.443368,833.107661 918.649599,830.746567 919.690609,828.311812 L919.919109,828.129442 Z M990.159951,837.247958 C991.227591,835.643622 991.857635,833.789361 991.987949,831.868033 C992.089856,830.348984 991.541867,828.857981 990.47985,827.764701 C989.452346,826.572226 987.942609,825.902808 986.366854,825.940998 C984.345317,825.930806 982.409756,826.756025 981.019958,828.220627 C979.603596,829.687842 978.760594,831.612489 978.64356,833.646144 C978.64356,837.065587 981.019958,838.889291 985.727054,839.254031 C987.514268,839.547971 989.306825,838.761099 990.29705,837.247958 L990.159951,837.247958 Z" id="Shape" fill="#FFD100"></path>
            <path d="M1186.49129,529.782332 C1201.25676,529.782332 1209.04965,536.81511 1209.04965,550.606662 L1209.04965,575.404055 C1209.04965,589.104272 1201.25676,596.182718 1186.49129,596.182718 C1171.72582,596.182718 1164.16079,589.012938 1164.16079,575.404055 L1164.16079,550.606662 C1164.16079,536.906445 1171.72582,529.782332 1186.49129,529.782332 M1186.49129,514.986097 C1160.3327,514.986097 1148.16486,528.686314 1148.16486,551.52001 L1148.16486,574.353705 C1148.16486,597.187401 1160.3327,610.887618 1186.49129,610.887618 C1212.64987,610.887618 1225,597.187401 1225,574.353705 L1225,551.52001 C1225,528.686314 1212.64987,514.986097 1186.49129,514.986097 M1078.66689,580.199131 C1067.09149,580.199131 1058.52387,572.618344 1058.52387,558.781125 L1058.52387,551.017669 C1058.52387,537.317451 1067.09149,529.782332 1078.66689,529.782332 C1091.24488,529.782332 1102.4557,536.99778 1102.4557,550.012986 L1102.4557,559.785808 C1102.4557,572.983683 1091.24488,580.199131 1078.66689,580.199131 M1108.2434,516.995462 C1107.38043,516.891436 1106.51412,517.160897 1105.8616,517.736307 C1105.20909,518.311718 1104.83222,519.138531 1104.82547,520.00951 L1103.64059,527.407628 C1096.89607,519.301661 1086.82591,514.727012 1076.29712,514.986097 C1056.51868,514.986097 1042.57351,527.224958 1042.57351,550.012986 L1042.57351,559.785808 C1042.57351,582.619503 1056.51868,594.995366 1076.29712,594.995366 C1086.1706,595.162903 1095.66094,591.169983 1102.4557,583.989525 L1102.4557,599.790442 C1102.4557,613.490659 1094.66282,620.797441 1081.49238,620.797441 C1070.50942,620.797441 1063.90142,614.997683 1062.71653,606.777553 C1062.74833,605.940009 1062.41408,605.130209 1061.80116,604.559889 C1061.18825,603.98957 1060.35762,603.715438 1059.52646,603.809172 L1049.72839,603.809172 C1048.87316,603.705019 1048.01991,604.017844 1047.43369,604.650477 C1046.84747,605.283111 1046.59926,606.15893 1046.76618,607.00589 C1048.13335,622.3958 1059.34417,635 1081.49238,635 C1106.01035,635 1118.40606,621.299783 1118.40606,598.466087 L1118.40606,520.19218 C1118.47564,519.324853 1118.16197,518.470605 1117.54797,517.855334 C1116.93398,517.240062 1116.08151,516.925731 1115.21599,516.995462 L1108.2434,516.995462 Z M983.648346,514.986097 C971.909304,514.822873 960.937219,520.813819 954.709845,530.787014 C950.152601,520.19218 940.719106,514.986097 928.368974,514.986097 C917.892711,514.912508 907.956786,519.638542 901.390088,527.818634 L900.022915,520.00951 C900.002105,519.143387 899.62117,518.325353 898.972123,517.753002 C898.323077,517.18065 897.464936,516.906026 896.604982,516.995462 L889.632398,516.995462 C888.766874,516.925731 887.914403,517.240062 887.30041,517.855334 C886.686418,518.470605 886.372741,519.324853 886.442327,520.19218 L886.442327,605.77287 C886.356139,606.644316 886.664434,607.50857 887.28237,608.127794 C887.900307,608.747018 888.762764,609.055955 889.632398,608.969587 L899.202611,608.969587 C900.072244,609.055955 900.934702,608.747018 901.552638,608.127794 C902.170575,607.50857 902.47887,606.644316 902.392682,605.77287 L902.392682,553.392373 C902.179534,547.139202 904.536379,541.072325 908.912483,536.609412 C913.288588,532.146499 919.300532,529.678576 925.543482,529.782332 C935.341557,529.782332 941.903989,535.58209 941.903989,548.779966 L941.903989,605.77287 C941.834403,606.640197 942.14808,607.494444 942.762072,608.109716 C943.376065,608.724988 944.228536,609.039319 945.09406,608.969587 L954.709845,608.969587 C955.575369,609.039319 956.42784,608.724988 957.041833,608.109716 C957.655825,607.494444 957.969503,606.640197 957.899916,605.77287 L957.899916,553.392373 C957.686768,547.139202 960.043613,541.072325 964.419718,536.609412 C968.795822,532.146499 974.807767,529.678576 981.050717,529.782332 C990.80322,529.782332 997.183361,535.58209 997.183361,548.779966 L997.183361,605.77287 C997.113775,606.640197 997.427452,607.494444 998.041445,608.109716 C998.655437,608.724988 999.507909,609.039319 1000.37343,608.969587 L1009.98922,608.969587 C1010.85885,609.055955 1011.72131,608.747018 1012.33925,608.127794 C1012.95718,607.50857 1013.26548,606.644316 1013.17929,605.77287 L1013.17929,547.775284 C1013.17929,525.580932 1001.37603,514.986097 983.648346,514.986097 M818.357098,529.051654 C833.12257,529.051654 841.143319,536.267101 841.143319,549.464977 L841.143319,554.031716 L796.208891,554.031716 L796.208891,549.830316 C796.208891,536.130099 803.819489,529.005986 818.584961,529.005986 M796.208891,564.809221 L853.903603,564.809221 C854.773237,564.895588 855.635694,564.586651 856.253631,563.967427 C856.871567,563.348203 857.179862,562.483949 857.093674,561.612503 L857.093674,550.834999 C857.093674,528.41231 844.69797,514.803428 818.584961,514.803428 C792.471951,514.803428 780.258537,528.503645 780.258537,551.33734 L780.258537,574.171036 C780.258537,597.004731 792.426379,610.704948 818.584961,610.704948 C842.920645,610.704948 855.316349,597.507072 856.911384,583.304514 C857.061033,582.452367 856.800233,581.579454 856.207901,580.949913 C855.615568,580.320373 854.761304,580.008178 853.903603,580.107796 L843.877666,580.107796 C841.918051,580.107796 841.097747,581.112479 840.505305,583.076177 C838.91027,590.291625 831.390817,596.091383 818.357098,596.091383 C803.591627,596.091383 795.981029,589.104272 795.981029,575.31272 L795.981029,564.489549 L796.208891,564.809221 Z M700.005466,593.990683 L700.005466,484.206276 C700.075052,483.338949 699.761375,482.484702 699.147383,481.86943 C698.53339,481.254158 697.680919,480.939827 696.815395,481.009559 L687.19961,481.009559 C686.334086,480.939827 685.481615,481.254158 684.867622,481.86943 C684.25363,482.484702 683.939952,483.338949 684.009539,484.206276 L684.009539,605.77287 C683.939952,606.640197 684.25363,607.494444 684.867622,608.109716 C685.481615,608.724988 686.334086,609.039319 687.19961,608.969587 L750.454159,608.969587 C751.323793,609.055955 752.18625,608.747018 752.804187,608.127794 C753.422124,607.50857 753.730419,606.644316 753.64423,605.77287 L753.64423,597.55274 C753.72811,596.677859 753.420776,595.81071 752.804999,595.184836 C752.189223,594.558961 751.328323,594.238718 750.454159,594.310355 L700.005466,593.990683 Z" id="Shape" fill="#006287"></path>
            <path d="M1297.76109,294.090799 C1274.88299,294.090799 1261.88823,305.497499 1261.88823,320.87373 C1261.88823,341.040776 1280.19071,345.238442 1295.74782,348.24981 C1307.7817,350.850538 1318.16835,353.451266 1318.16835,362.850386 C1318.16835,370.241928 1310.80161,375.215249 1298.95075,375.215249 C1287.0999,375.215249 1280.0992,370.652569 1278.3147,363.032894 C1278.26787,362.176872 1277.87788,361.375566 1277.23248,360.809214 C1276.58707,360.242861 1275.74043,359.959016 1274.88299,360.021525 L1265.09116,360.021525 C1264.23,359.921995 1263.3723,360.233912 1262.77757,360.862893 C1262.18285,361.491874 1261.921,362.364011 1262.07125,363.215401 C1263.67272,379.002274 1276.30143,389.815825 1298.12714,389.815825 C1321.00524,389.815825 1334,378.226618 1334,362.850386 C1334,342.637714 1315.69752,338.440048 1300.36919,335.474306 C1288.15229,332.873579 1277.49109,330.272851 1277.49109,321.101864 C1277.49109,313.710323 1285.08662,308.508868 1296.7087,308.508868 C1308.33077,308.508868 1315.74328,313.071548 1317.34474,320.919357 C1317.4033,321.767241 1317.79833,322.556887 1318.44241,323.113508 C1319.08649,323.670128 1319.92648,323.947814 1320.77646,323.885099 L1330.56829,323.885099 C1331.42944,323.984629 1332.28715,323.672712 1332.88187,323.043731 C1333.4766,322.41475 1333.73845,321.542613 1333.58819,320.691223 C1331.98673,304.90435 1319.35802,294.136426 1297.53231,294.136426 M1218.64862,296.144005 C1217.77548,296.057714 1216.90955,296.366376 1216.28912,296.98505 C1215.66869,297.603724 1215.35915,298.46721 1215.44569,299.337881 L1215.44569,351.808701 C1215.44569,367.413066 1203.59483,375.215249 1190.18826,375.215249 C1178.74921,375.215249 1172.34335,369.010004 1172.34335,355.823859 L1172.34335,299.292254 C1172.42988,298.421583 1172.12034,297.558097 1171.49992,296.939423 C1170.87949,296.32075 1170.01355,296.012087 1169.14041,296.098378 L1159.53161,296.098378 C1158.65847,296.012087 1157.79254,296.32075 1157.17211,296.939423 C1156.55168,297.558097 1156.24214,298.421583 1156.32868,299.292254 L1156.32868,356.827649 C1156.32868,379.184781 1168.13378,389.998332 1187.35138,389.998332 C1198.54956,390.267464 1209.25491,385.409045 1216.40657,376.812187 L1217.82501,384.979384 C1217.8459,385.844738 1218.22837,386.662045 1218.88004,387.233887 C1219.5317,387.80573 1220.3933,388.08011 1221.25672,387.990753 L1228.25742,387.990753 C1229.13056,388.077044 1229.9965,387.768381 1230.61693,387.149708 C1231.23735,386.531034 1231.54689,385.667548 1231.46036,384.796877 L1231.46036,299.292254 C1231.54689,298.421583 1231.23735,297.558097 1230.61693,296.939423 C1229.9965,296.32075 1229.13056,296.012087 1228.25742,296.098378 L1218.64862,296.144005 Z M1110.80126,353.81628 C1110.80126,367.50432 1101.97031,375.215249 1090.57702,375.215249 C1077.71952,375.215249 1066.73804,368.006215 1066.73804,354.82007 L1066.73804,329.040928 C1066.73804,316.03729 1077.71952,308.873882 1090.57702,308.873882 C1096.1841,308.655903 1101.6145,310.852434 1105.48483,314.903912 C1109.35515,318.955391 1111.29175,324.470662 1110.80126,330.044717 L1110.80126,353.81628 L1110.80126,353.81628 Z M1092.77331,294.090799 C1082.18892,293.716829 1072.03583,298.289671 1065.31959,306.455662 L1064.12993,299.06412 C1063.93737,297.258163 1062.32945,295.938927 1060.51519,296.098378 L1053.69752,296.098378 C1052.82851,296.028709 1051.9726,296.34276 1051.35613,296.957485 C1050.73966,297.57221 1050.42472,298.425698 1050.49459,299.292254 L1050.49459,408.796574 C1050.42472,409.66313 1050.73966,410.516618 1051.35613,411.131343 C1051.9726,411.746068 1052.82851,412.060119 1053.69752,411.99045 L1063.35208,411.99045 C1064.22109,412.060119 1065.077,411.746068 1065.69347,411.131343 C1066.30994,410.516618 1066.62488,409.66313 1066.55501,408.796574 L1066.55501,379.002274 C1073.35318,386.183509 1082.87147,390.175516 1092.77331,389.998332 C1112.63151,389.998332 1126.6329,377.587843 1126.6329,354.82007 L1126.6329,329.040928 C1126.6329,306.227528 1112.44848,294.090799 1092.59029,294.090799 M989.227035,294.090799 C977.436179,293.909633 966.411519,299.899782 960.171848,309.877672 C955.596228,299.292254 946.124694,294.090799 933.724764,294.090799 C923.228488,294.013404 913.270831,298.717734 906.68285,306.866303 L905.264408,299.06412 C905.244805,298.201923 904.860896,297.388095 904.207328,296.823271 C903.55376,296.258447 902.691343,295.995181 901.832693,296.098378 L894.831994,296.098378 C893.958854,296.012087 893.092919,296.32075 892.472491,296.939423 C891.852063,297.558097 891.542525,298.421583 891.62906,299.292254 L891.62906,384.796877 C891.542525,385.667548 891.852063,386.531034 892.472491,387.149708 C893.092919,387.768381 893.958854,388.077044 894.831994,387.990753 L904.440796,387.990753 C905.313937,388.077044 906.179872,387.768381 906.8003,387.149708 C907.420728,386.531034 907.730266,385.667548 907.64373,384.796877 L907.64373,332.462938 C907.440454,326.190768 909.837164,320.112071 914.269809,315.657429 C918.702454,311.202787 924.779555,308.765624 931.070905,308.919509 C940.908488,308.919509 947.49738,314.714112 947.49738,327.900258 L947.49738,384.796877 C947.425604,385.672083 947.74647,386.53401 948.373562,387.150521 C949.000653,387.767032 949.869489,388.074733 950.746071,387.990753 L960.354873,387.990753 C961.223886,388.060423 962.079795,387.746371 962.696263,387.131646 C963.312731,386.516921 963.627673,385.663433 963.557806,384.796877 L963.557806,332.462938 C963.356608,326.223103 965.728634,320.173665 970.120943,315.724803 C974.513252,311.275941 980.542045,308.816395 986.801956,308.919509 C996.593783,308.919509 1003.04541,314.714112 1003.04541,327.900258 L1003.04541,384.796877 C1002.95887,385.667548 1003.26841,386.531034 1003.88884,387.149708 C1004.50927,387.768381 1005.3752,388.077044 1006.24834,387.990753 L1015.94866,387.990753 C1016.81767,388.060423 1017.67358,387.746371 1018.29005,387.131646 C1018.90651,386.516921 1019.22146,385.663433 1019.15159,384.796877 L1019.15159,326.850841 C1019.15159,304.676216 1007.34649,294.090799 989.501572,294.090799 M817.549773,376.219039 C807.34614,376.219039 799.933636,371.656359 799.933636,362.211611 L799.933636,361.207822 C799.933636,352.81249 807.163116,347.519782 821.164513,347.519782 L844.637443,347.519782 L844.637443,359.108989 C844.637443,367.914961 832.191757,376.127785 817.549773,376.127785 M825.602864,293.999545 C801.123297,293.999545 789.501222,307.961346 788.723367,319.185539 C788.723367,320.143702 789.913028,320.782477 792.109326,320.782477 L800.345442,320.782477 C801.978439,320.758353 803.422373,319.719473 803.960182,318.181749 C806.156479,312.75216 812.562347,307.778839 824.367447,307.778839 C837.590988,307.778839 844.637443,314.759739 844.637443,327.945884 L844.637443,335.337426 L821.164513,335.337426 C797.737338,335.337426 784.559553,344.736547 784.559553,362.120358 L784.559553,362.94164 C784.559553,380.325451 796.959483,389.907079 816.222843,389.907079 C827.324901,390.255129 838.069947,385.972573 845.872861,378.089738 L847.062522,384.888131 C847.083415,385.753485 847.465886,386.570791 848.11755,387.142634 C848.769214,387.714476 849.630815,387.988857 850.494237,387.8995 L857.494935,387.8995 C858.368076,387.98579 859.234011,387.677128 859.854439,387.058454 C860.474867,386.439781 860.784405,385.576295 860.697869,384.705624 L860.697869,329.040928 C860.697869,307.04881 848.252183,294.090799 825.64862,294.090799 M717.480964,258.13688 C691.216905,258.13688 679,271.82492 679,294.63832 L679,353.405639 C679,376.219039 691.216905,389.907079 717.480964,389.907079 C743.745023,389.907079 756.144953,376.219039 756.144953,353.405639 L756.144953,351.443686 C756.231489,350.573015 755.921951,349.709529 755.301522,349.090856 C754.681094,348.472182 753.815159,348.163519 752.942019,348.24981 L743.333217,348.24981 C742.460077,348.163519 741.594142,348.472182 740.973713,349.090856 C740.353285,349.709529 740.043747,350.573015 740.130283,351.443686 L740.130283,354.546309 C740.130283,368.553736 732.305973,375.35213 717.480964,375.35213 C702.655955,375.35213 694.877401,368.234349 694.877401,354.546309 L694.877401,293.680158 C694.877401,279.67273 702.518687,272.919964 717.343695,272.919964 C732.168704,272.919964 739.993014,279.67273 739.993014,293.680158 L739.993014,296.463392 C739.906479,297.334063 740.216017,298.197549 740.836445,298.816223 C741.456873,299.434897 742.322808,299.743559 743.195948,299.657268 L752.80475,299.657268 C753.677891,299.743559 754.543825,299.434897 755.164254,298.816223 C755.784682,298.197549 756.09422,297.334063 756.007684,296.463392 L756.007684,294.50144 C756.007684,271.68804 743.607754,258 717.343695,258" id="Shape" fill="#006287"></path>
            <path d="M1590.73127,73.7335765 C1579.64182,73.4912402 1569.03943,78.2414786 1561.90155,86.6502895 L1560.48295,78.7189745 C1560.31363,76.9068784 1558.6984,75.5704173 1556.86779,75.7277357 L1550.04933,75.7277357 C1549.17609,75.6420216 1548.31006,75.9486209 1547.68956,76.5631589 C1547.06906,77.1776969 1546.75948,78.0354108 1546.84603,78.9002617 L1546.84603,163.833315 C1546.7618,164.701575 1547.07041,165.562161 1547.68874,166.1833 C1548.30707,166.804438 1549.17154,167.122257 1550.04933,167.051163 L1559.65924,167.051163 C1560.53703,167.122257 1561.4015,166.804438 1562.01983,166.1833 C1562.63816,165.562161 1562.94677,164.701575 1562.86254,163.833315 L1562.86254,111.441314 C1562.86254,96.1678675 1574.71476,88.4178397 1588.12287,88.4178397 C1599.38019,88.4178397 1605.96984,94.4003173 1605.96984,107.498317 L1605.96984,163.833315 C1605.88561,164.701575 1606.19422,165.562161 1606.81255,166.1833 C1607.43088,166.804438 1608.29535,167.122257 1609.17314,167.051163 L1618.78305,167.051163 C1619.66084,167.122257 1620.52531,166.804438 1621.14364,166.1833 C1621.76197,165.562161 1622.07058,164.701575 1621.98635,163.833315 L1621.98635,106.501238 C1621.98635,84.4748431 1610.17989,73.7335765 1590.73127,73.7335765 M1478.29536,88.4178397 C1493.12207,88.4178397 1501.17609,95.3973969 1501.17609,109.08458 L1501.17609,133.694318 C1501.17609,147.290858 1493.35088,154.315737 1478.29536,154.315737 C1463.23984,154.315737 1455.82648,147.200214 1455.82648,133.694318 L1455.82648,109.08458 C1455.82648,95.4880405 1463.46864,88.4178397 1478.29536,88.4178397 M1478.29536,73.7335765 C1452.02828,73.7335765 1439.80997,87.3301165 1439.80997,109.991016 L1439.80997,132.651916 C1439.80997,155.312816 1452.02828,168.909356 1478.29536,168.909356 C1504.56244,168.909356 1516.96379,155.312816 1516.96379,132.651916 L1516.96379,109.991016 C1516.96379,87.3301165 1504.51668,73.7335765 1478.29536,73.7335765 M1408.37184,78.9002617 C1408.45839,78.0354108 1408.14882,77.1776969 1407.52832,76.5631589 C1406.90782,75.9486209 1406.04178,75.6420216 1405.16854,75.7277357 L1395.51287,75.7277357 C1394.63963,75.6420216 1393.7736,75.9486209 1393.1531,76.5631589 C1392.5326,77.1776969 1392.22302,78.0354108 1392.30957,78.9002617 L1392.30957,163.833315 C1392.22534,164.701575 1392.53395,165.562161 1393.15228,166.1833 C1393.77061,166.804438 1394.63508,167.122257 1395.51287,167.051163 L1405.12278,167.051163 C1406.00057,167.122257 1406.86504,166.804438 1407.48337,166.1833 C1408.1017,165.562161 1408.41031,164.701575 1408.32608,163.833315 L1408.32608,78.9002617 L1408.37184,78.9002617 Z M1409.97349,43.7758667 C1410.06004,42.9110159 1409.75047,42.053302 1409.12997,41.4387639 C1408.50947,40.8242259 1407.64343,40.5176266 1406.77019,40.6033407 L1393.95698,40.6033407 C1393.08374,40.5176266 1392.21771,40.8242259 1391.59721,41.4387639 C1390.97671,42.053302 1390.66713,42.9110159 1390.75368,43.7758667 L1390.75368,56.4659707 C1390.66713,57.3308216 1390.97671,58.1885355 1391.59721,58.8030735 C1392.21771,59.4176115 1393.08374,59.7242108 1393.95698,59.6384967 L1406.77019,59.6384967 C1407.64343,59.7242108 1408.50947,59.4176115 1409.12997,58.8030735 C1409.75047,58.1885355 1410.06004,57.3308216 1409.97349,56.4659707 L1409.97349,43.9571539 L1409.97349,43.7758667 Z M1362.29005,154.315737 C1362.02216,153.489348 1361.38928,152.828506 1360.57019,152.519892 C1359.75111,152.211277 1358.83475,152.2884 1358.08,152.729474 C1354.45282,154.403865 1350.50408,155.284954 1346.50235,155.312816 C1339.27203,155.312816 1335.06198,150.780636 1335.06198,142.033529 L1335.06198,90.4119989 L1353.092,90.4119989 C1353.96524,90.497713 1354.83127,90.1911137 1355.45177,89.5765757 C1356.07227,88.9620377 1356.38184,88.1043238 1356.2953,87.2394729 L1356.2953,78.9002617 C1356.38184,78.0354108 1356.07227,77.1776969 1355.45177,76.5631589 C1354.83127,75.9486209 1353.96524,75.6420216 1353.092,75.7277357 L1335.06198,75.7277357 L1335.06198,56.2846835 C1335.20699,55.3549131 1334.83017,54.4205775 1334.07831,53.8455979 C1333.32644,53.2706184 1332.3184,53.1459128 1331.44682,53.5200537 L1321.83692,55.4688911 C1320.15098,55.702684 1318.93311,57.1856731 1319.04547,58.8680261 L1319.04547,75.6824139 L1304.21875,75.6824139 C1303.34207,75.5989956 1302.47314,75.9046397 1301.84597,76.5170295 C1301.21881,77.1294193 1300.89791,77.9855841 1300.96969,78.8549399 L1300.96969,87.1941511 C1300.89791,88.0635069 1301.21881,88.9196717 1301.84597,89.5320615 C1302.47314,90.1444513 1303.34207,90.4500954 1304.21875,90.3666771 L1319.04547,90.3666771 L1319.04547,140.80984 C1319.04547,158.077446 1328.19776,169 1345.26679,169 C1351.66362,168.878074 1357.93881,167.246662 1363.57137,164.241211 C1364.41017,163.981223 1365.07259,163.339245 1365.35325,162.514346 C1365.6339,161.689447 1365.49885,160.781336 1364.98998,160.071605 L1362.15277,154.315737 L1362.29005,154.315737 Z M1234.38676,155.312816 C1224.18196,155.312816 1216.72284,150.780636 1216.72284,141.444346 L1216.72284,140.447266 C1216.72284,132.108055 1223.95315,126.850726 1238.00192,126.850726 L1261.43179,126.850726 L1261.43179,138.362463 C1261.43179,147.109571 1249.03043,155.222173 1234.38676,155.222173 M1242.39502,73.6429329 C1217.9584,73.6429329 1206.33498,87.5567255 1205.51128,98.6605665 C1205.51128,99.6576461 1206.74684,100.246829 1208.94339,100.246829 L1217.04317,100.246829 C1218.6854,100.250305 1220.14389,99.2080864 1220.65832,97.6634869 C1222.85487,92.3155145 1229.30724,87.3754383 1241.1137,87.3754383 C1254.33876,87.3754383 1261.34026,94.3096737 1261.34026,107.407674 L1261.34026,114.749805 L1237.91039,114.749805 C1214.43476,114.749805 1201.30122,124.086096 1201.30122,141.353702 L1201.30122,142.124173 C1201.30122,159.391778 1213.74834,168.909356 1232.96816,168.909356 C1244.12455,169.352506 1254.95411,165.124812 1262.80463,157.261654 L1264.04019,164.014602 C1264.03378,164.874937 1264.40173,165.696348 1265.05004,166.269015 C1265.69835,166.841683 1266.56424,167.11015 1267.42654,167.005841 L1274.42804,167.005841 C1275.30583,167.076936 1276.1703,166.759116 1276.78863,166.137978 C1277.40696,165.51684 1277.71557,164.656253 1277.63134,163.787993 L1277.63134,108.495397 C1277.63134,86.6502895 1265.22999,73.7335765 1242.57806,73.7335765 M1163.18193,75.6824139 C1162.30868,75.5966998 1161.44265,75.9032991 1160.82215,76.5178371 C1160.20165,77.1323751 1159.89208,77.990089 1159.97862,78.8549399 L1159.97862,88.9617013 L1136.31995,150.508706 L1112.89008,88.9617013 L1112.89008,78.9002617 C1112.97662,78.0354108 1112.66705,77.1776969 1112.04655,76.5631589 C1111.42605,75.9486209 1110.56002,75.6420216 1109.68678,75.7277357 L1100.07687,75.7277357 C1099.20019,75.6443174 1098.33125,75.9499615 1097.70409,76.5623513 C1097.07692,77.1747411 1096.75602,78.0309059 1096.8278,78.9002617 L1096.8278,88.6444487 C1096.79548,89.9454729 1097.07791,91.2352757 1097.65151,92.4061581 L1126.52699,164.46782 C1126.92382,166.074254 1128.43047,167.164692 1130.09639,167.051163 L1142.54351,167.051163 C1144.16359,167.171637 1145.65684,166.17946 1146.15866,164.649107 L1175.21719,92.4061581 C1175.77671,91.2319758 1176.0435,89.9419403 1175.99514,88.6444487 L1175.99514,78.9002617 C1176.08168,78.0354108 1175.77211,77.1776969 1175.15161,76.5631589 C1174.53111,75.9486209 1173.66507,75.6420216 1172.79183,75.7277357 L1163.18193,75.6824139 Z M1031.48044,88.3725179 C1046.30715,88.3725179 1054.0866,95.3520751 1054.0866,109.039259 L1054.0866,133.694318 C1054.0866,147.290858 1046.30715,154.315737 1031.48044,154.315737 C1016.65372,154.315737 1009.01156,147.200214 1009.01156,133.694318 L1009.01156,109.08458 C1009.01156,95.4880405 1016.65372,88.4178397 1031.48044,88.4178397 M1031.48044,73.7335765 C1005.21336,73.7335765 992.995045,87.3301165 992.995045,109.991016 L992.995045,132.651916 C992.995045,155.312816 1005.21336,168.909356 1031.48044,168.909356 C1057.74752,168.909356 1070.14887,155.312816 1070.14887,132.651916 L1070.14887,109.991016 C1070.14887,87.3301165 1057.70175,73.7335765 1031.48044,73.7335765 M931.995015,73.7335765 C920.905561,73.4912402 910.303169,78.2414786 903.165294,86.6502895 L901.746689,78.7189745 C901.577369,76.9068784 899.962147,75.5704173 898.131533,75.7277357 L891.313075,75.7277357 C890.439834,75.6420216 889.5738,75.9486209 888.9533,76.5631589 C888.332801,77.1776969 888.023227,78.0354108 888.109773,78.9002617 L888.109773,163.833315 C888.025545,164.701575 888.334154,165.562161 888.952485,166.1833 C889.570815,166.804438 890.435286,167.122257 891.313075,167.051163 L900.968744,167.051163 C901.838884,167.108175 902.690456,166.784146 903.298213,166.164781 C903.905969,165.545417 904.208683,164.693115 904.126285,163.833315 L904.126285,111.441314 C904.126285,96.1678675 915.978503,88.4178397 929.386612,88.4178397 C940.59817,88.4178397 947.233583,94.4003173 947.233583,107.498317 L947.233583,163.833315 C947.149355,164.701575 947.457964,165.562161 948.076295,166.1833 C948.694625,166.804438 949.559096,167.122257 950.436885,167.051163 L960.046792,167.051163 C960.92803,167.120216 961.795576,166.803438 962.420652,166.184368 C963.045729,165.565297 963.365579,164.706086 963.295856,163.833315 L963.295856,106.501238 C963.295856,84.4748431 951.443637,73.7335765 931.995015,73.7335765 M825.78266,73.7335765 C814.693205,73.4912402 804.090814,78.2414786 796.952939,86.6502895 L795.534333,78.7189745 C795.365014,76.9068784 793.749792,75.5704173 791.919178,75.7277357 L785.10072,75.7277357 C784.231606,75.658532 783.375599,75.970484 782.75906,76.5810998 C782.142521,77.1917155 781.827542,78.0394981 781.897417,78.9002617 L781.897417,163.833315 C781.81319,164.701575 782.121799,165.562161 782.74013,166.1833 C783.35846,166.804438 784.222931,167.122257 785.10072,167.051163 L794.756388,167.051163 C795.634178,167.122257 796.498648,166.804438 797.116979,166.1833 C797.735309,165.562161 798.043918,164.701575 797.959691,163.833315 L797.959691,111.441314 C797.959691,96.1678675 809.766148,88.4178397 823.174257,88.4178397 C834.431577,88.4178397 841.021227,94.4003173 841.021227,107.498317 L841.021227,163.833315 C840.937,164.701575 841.245609,165.562161 841.86394,166.1833 C842.48227,166.804438 843.34674,167.122257 844.22453,167.051163 L853.834437,167.051163 C854.712226,167.122257 855.576697,166.804438 856.195027,166.1833 C856.813358,165.562161 857.121967,164.701575 857.037739,163.833315 L857.037739,106.501238 C857.037739,84.4748431 845.231282,73.7335765 825.78266,73.7335765 M725.107442,54.6984205 L746.93566,54.6984205 C747.808901,54.7841346 748.674935,54.4775353 749.295435,53.8629973 C749.915934,53.2484593 750.225508,52.3907454 750.138962,51.5258945 L750.138962,43.1866833 C750.225508,42.3218325 749.915934,41.4641186 749.295435,40.8495805 C748.674935,40.2350425 747.808901,39.9284432 746.93566,40.0141573 L687.445758,40.0141573 C686.572518,39.9284432 685.706483,40.2350425 685.085983,40.8495805 C684.465484,41.4641186 684.15591,42.3218325 684.242456,43.1866833 L684.242456,51.5258945 C684.15591,52.3907454 684.465484,53.2484593 685.085983,53.8629973 C685.706483,54.4775353 686.572518,54.7841346 687.445758,54.6984205 L709.09093,54.6984205 L709.09093,152.366899 L687.216951,152.366899 C686.352398,152.283286 685.494977,152.584085 684.876336,153.18803 C684.257694,153.791976 683.941672,154.636743 684.013649,155.494104 L684.013649,163.833315 C683.929421,164.701575 684.23803,165.562161 684.856361,166.1833 C685.474691,166.804438 686.339162,167.122257 687.216951,167.051163 L746.706853,167.051163 C747.584642,167.122257 748.449112,166.804438 749.067443,166.1833 C749.685773,165.562161 749.994382,164.701575 749.910155,163.833315 L749.910155,155.494104 C749.982132,154.636743 749.66611,153.791976 749.047468,153.18803 C748.428826,152.584085 747.571405,152.283286 746.706853,152.366899 L724.878635,152.366899 L724.878635,54.6984205 L725.107442,54.6984205 Z" id="Shape" fill="#006287"></path>
            <path d="M563.021645,412.000263 L235.357391,3.57295991 C233.412825,1.04326595 230.283683,-0.291108758 227.104438,0.0536147765 C223.925193,0.398338311 221.157365,2.37211792 219.804432,5.25935766 L110.018837,225.812836 C108.849775,228.069899 108.678829,230.710602 109.547192,233.098605 C110.415556,235.486607 112.244478,237.405345 114.593237,238.392451 L551.905854,426.266276 C553.070606,426.730515 554.311015,426.977698 555.565374,426.995529 C559.176706,427.107955 562.516188,425.092154 564.08836,421.850826 C565.660533,418.609497 565.170878,414.749843 562.838669,412.000263 L563.021645,412.000263 Z M525.328591,394.634924 L131.10682,225.311474 L229.959599,26.4532753 L525.328591,394.634924 Z" id="Shape" fill="#FFD100"></path>
            <path d="M343.421727,283.680285 L70.0746021,61.1302518 C67.5178228,58.9930128 64.0090644,58.4147552 60.9064539,59.6193039 C57.8038433,60.8238526 55.5943099,63.6221634 55.1330926,66.9311008 L0.133671158,416.225082 C-0.330238495,418.924569 0.426562515,421.691371 2.19846524,423.773798 C3.97036797,425.856226 6.57335458,427.038012 9.3002414,426.999067 C10.4255312,426.982441 11.540523,426.78022 12.6002067,426.399587 L340.90092,299.655639 C344.064757,298.526994 346.361173,295.751228 346.88677,292.420313 C347.412367,289.089398 346.083035,285.736367 343.421727,283.680285 Z M319.221981,288.007903 L21.3084484,403.104114 L70.8995934,85.8529179 L319.221981,288.007903 Z" id="Shape" fill="#74C6C7"></path>
            <path d="M507.477054,61.0401071 C504.514847,58.6392634 500.377854,58.3288374 497.091796,60.2608324 L114.804483,281.345671 C112.478574,282.605574 110.810314,284.811992 110.229479,287.39651 C109.655135,289.917698 110.170201,292.564669 111.64773,294.685022 L330.104159,610.978902 C331.827964,613.501493 334.693319,615 337.744415,614.966956 C338.216143,615.011015 338.690939,615.011015 339.162666,614.966956 C342.676064,614.436998 345.565631,611.917076 346.574172,608.503559 L510.588057,70.9873205 C511.716329,67.3459941 510.477552,63.3850902 507.477054,61.0401071 Z M485.974537,88.1313656 L334.633413,584.666919 L132.875748,292.438877 L486.066037,88.1313656 L485.974537,88.1313656 Z" id="Shape" fill="#006287"></path>
            <polygon id="Path" fill="#FFD100" points="221.107143 5 109.279221 224.319453 109 224.861987 125.892857 233 237.720779 13.6353361 238 13.1380131 221.107143 5"></polygon>
            <polygon id="Path" fill="#74C6C7" points="182.105656 342 149.704376 354.947883 149 355.241042 160.129136 372 192.295624 359.149837 193 358.856678 182.105656 342"></polygon>
        </g>
    </g>
</svg>