<?xml version="1.0" encoding="UTF-8"?>
<svg width="1617px" height="629px" viewBox="0 0 1617 629" version="1.1" xmlns="http://www.w3.org/2000/svg" xmlns:xlink="http://www.w3.org/1999/xlink">
    <title>ICL_Logo_WEB-Vektor_6</title>
    <g id="iPhone-14-Max" stroke="none" stroke-width="1" fill="none" fill-rule="evenodd">
        <g id="ICL_Logo_WEB-Vektor_6" fill-rule="nonzero">
            <path d="M1179.63365,526.515258 C1194.34453,526.515258 1202.10861,533.365367 1202.10861,546.798697 L1202.10861,570.952002 C1202.10861,584.296369 1194.34453,591.190959 1179.63365,591.190959 C1164.92276,591.190959 1157.3857,584.207407 1157.3857,570.952002 L1157.3857,546.798697 C1157.3857,533.454329 1164.92276,526.515258 1179.63365,526.515258 M1179.63365,512.103341 C1153.57177,512.103341 1141.44891,525.447709 1141.44891,547.688321 L1141.44891,569.928934 C1141.44891,592.169546 1153.57177,605.513913 1179.63365,605.513913 C1205.69552,605.513913 1218,592.169546 1218,569.928934 L1218,547.688321 C1218,525.447709 1205.69552,512.103341 1179.63365,512.103341 M1072.20786,575.62253 C1060.67525,575.62253 1052.13931,568.238647 1052.13931,554.760836 L1052.13931,547.199028 C1052.13931,533.85466 1060.67525,526.515258 1072.20786,526.515258 C1084.73936,526.515258 1095.90873,533.543292 1095.90873,546.220441 L1095.90873,555.739423 C1095.90873,568.594497 1084.73936,575.62253 1072.20786,575.62253 M1101.67504,514.060515 C1100.81525,513.95919 1099.95214,514.221653 1099.30204,514.782118 C1098.65194,515.342582 1098.27646,516.14792 1098.26974,516.996276 L1097.08923,524.202235 C1090.36965,516.306813 1080.33672,511.850986 1069.84685,512.103341 C1050.14153,512.103341 1036.24792,524.02431 1036.24792,546.220441 L1036.24792,555.739423 C1036.24792,577.980035 1050.14153,590.034447 1069.84685,590.034447 C1079.68384,590.197633 1089.13909,586.308425 1095.90873,579.314472 L1095.90873,594.704976 C1095.90873,608.049343 1088.14465,615.166339 1075.02291,615.166339 C1064.08055,615.166339 1057.49698,609.517224 1056.31647,601.510603 C1056.34815,600.694814 1056.01513,599.906048 1055.40449,599.350542 C1054.79384,598.795036 1053.96628,598.528024 1053.13819,598.619324 L1043.37634,598.619324 C1042.52427,598.517876 1041.67418,598.822575 1041.09013,599.438777 C1040.50607,600.054978 1040.25879,600.908049 1040.42508,601.733009 C1041.7872,616.723182 1052.95658,629 1075.02291,629 C1099.45024,629 1111.80012,615.655633 1111.80012,593.41502 L1111.80012,517.174201 C1111.86945,516.329402 1111.55693,515.497343 1110.94521,514.898052 C1110.33349,514.298762 1109.48417,513.992595 1108.62184,514.060515 L1101.67504,514.060515 Z M977.540589,512.103341 C965.844944,511.944357 954.913422,517.779694 948.70907,527.493845 C944.168673,517.174201 934.770052,512.103341 922.465576,512.103341 C912.028043,512.031664 902.12885,516.634944 895.586428,524.602566 L894.224309,516.996276 C894.203576,516.152649 893.82405,515.355863 893.177402,514.798378 C892.530755,514.240893 891.675786,513.973402 890.819011,514.060515 L883.872204,514.060515 C883.00988,513.992595 882.16056,514.298762 881.548838,514.898052 C880.937115,515.497343 880.624597,516.329402 880.693926,517.174201 L880.693926,600.532016 C880.608057,601.380827 880.915212,602.222633 881.530864,602.825773 C882.146516,603.428913 883.005785,603.729826 883.872204,603.645702 L893.407037,603.645702 C894.273456,603.729826 895.132725,603.428913 895.748377,602.825773 C896.364029,602.222633 896.671185,601.380827 896.585315,600.532016 L896.585315,549.512051 C896.372955,543.421301 898.721087,537.512005 903.081014,533.165012 C907.44094,528.818019 913.43066,526.414197 919.65053,526.515258 C929.412383,526.515258 935.950555,532.164374 935.950555,545.019448 L935.950555,600.532016 C935.881226,601.376815 936.193743,602.208874 936.805466,602.808165 C937.417189,603.407456 938.266508,603.713622 939.128832,603.645702 L948.70907,603.645702 C949.571394,603.713622 950.420713,603.407456 951.032436,602.808165 C951.644159,602.208874 951.956676,601.376815 951.887347,600.532016 L951.887347,549.512051 C951.674987,543.421301 954.023119,537.512005 958.383046,533.165012 C962.742972,528.818019 968.732692,526.414197 974.952563,526.515258 C984.669012,526.515258 991.025567,532.164374 991.025567,545.019448 L991.025567,600.532016 C990.956238,601.376815 991.268756,602.208874 991.880478,602.808165 C992.492201,603.407456 993.341521,603.713622 994.203845,603.645702 L1003.78408,603.645702 C1004.6505,603.729826 1005.50977,603.428913 1006.12542,602.825773 C1006.74107,602.222633 1007.04823,601.380827 1006.96236,600.532016 L1006.96236,544.040861 C1006.96236,522.422986 995.202732,512.103341 977.540589,512.103341 M812.860399,525.803559 C827.571285,525.803559 835.562383,532.831592 835.562383,545.686666 L835.562383,550.134789 L790.794071,550.134789 L790.794071,546.042516 C790.794071,532.698149 798.376534,525.759077 813.087419,525.759077 M790.794071,560.632358 L848.275494,560.632358 C849.141913,560.716482 850.001182,560.415569 850.616834,559.812429 C851.232486,559.209289 851.539641,558.367483 851.453771,557.518672 L851.453771,547.021103 C851.453771,525.180822 839.103892,511.925417 813.087419,511.925417 C787.070946,511.925417 774.902683,525.269784 774.902683,547.510396 L774.902683,569.751009 C774.902683,591.991621 787.025542,605.335988 813.087419,605.335988 C837.333138,605.335988 849.683017,592.480915 851.272156,578.647254 C851.421251,577.81724 851.161416,576.967001 850.571273,576.353812 C849.98113,575.740623 849.130024,575.436537 848.275494,575.533568 L838.286621,575.533568 C836.33425,575.533568 835.516979,576.512155 834.926727,578.424848 C833.337589,585.452881 825.845934,591.101997 812.860399,591.101997 C798.149514,591.101997 790.567051,584.296369 790.567051,570.863039 L790.567051,560.320989 L790.794071,560.632358 Z M694.946296,589.05586 L694.946296,482.122996 C695.015625,481.278197 694.703108,480.446138 694.091385,479.846847 C693.479662,479.247556 692.630342,478.94139 691.768018,479.00931 L682.187781,479.00931 C681.325457,478.94139 680.476137,479.247556 679.864415,479.846847 C679.252692,480.446138 678.940174,481.278197 679.009503,482.122996 L679.009503,600.532016 C678.940174,601.376815 679.252692,602.208874 679.864415,602.808165 C680.476137,603.407456 681.325457,603.713622 682.187781,603.645702 L745.208488,603.645702 C746.074907,603.729826 746.934176,603.428913 747.549828,602.825773 C748.16548,602.222633 748.472635,601.380827 748.386766,600.532016 L748.386766,592.525396 C748.470335,591.673239 748.164137,590.828614 747.550637,590.218996 C746.937137,589.609378 746.07942,589.297453 745.208488,589.367229 L694.946296,589.05586 Z" id="Shape" fill="#006287"></path>
            <path d="M1300.53978,284.153375 C1277.52197,284.153375 1264.44785,295.263798 1264.44785,310.240646 C1264.44785,329.883873 1282.8621,333.972508 1298.51422,336.905659 C1310.62159,339.438836 1321.07167,341.972012 1321.07167,351.127 C1321.07167,358.326553 1313.65994,363.170697 1301.73671,363.170697 C1289.81348,363.170697 1282.77003,358.726528 1280.97464,351.304766 C1280.92752,350.47098 1280.53515,349.690486 1279.8858,349.138844 C1279.23645,348.587202 1278.38464,348.31073 1277.52197,348.371615 L1267.67035,348.371615 C1266.80393,348.27467 1265.94098,348.578486 1265.34263,349.19113 C1264.74428,349.803774 1264.48082,350.653257 1264.63199,351.482533 C1266.24324,366.859357 1278.94907,377.392037 1300.90807,377.392037 C1323.92588,377.392037 1337,366.103849 1337,351.127 C1337,331.439332 1318.58575,327.350696 1303.16381,324.461987 C1290.8723,321.92881 1280.146,319.395634 1280.146,310.462855 C1280.146,303.263301 1287.78791,298.196949 1299.48096,298.196949 C1311.17401,298.196949 1318.63178,302.641118 1320.24303,310.285088 C1320.30194,311.110949 1320.69939,311.880085 1321.3474,312.422248 C1321.99541,312.964411 1322.84053,313.234884 1323.6957,313.173798 L1333.54733,313.173798 C1334.41375,313.270743 1335.27669,312.966927 1335.87505,312.354283 C1336.4734,311.741639 1336.73685,310.892155 1336.58568,310.06288 C1334.97443,294.686056 1322.2686,284.197817 1300.30961,284.197817 M1220.94418,286.153251 C1220.06571,286.069202 1219.19449,286.369847 1218.57027,286.972451 C1217.94605,287.575056 1217.63463,288.416113 1217.72169,289.26417 L1217.72169,340.372111 C1217.72169,355.571169 1205.79846,363.170697 1192.31002,363.170697 C1180.80112,363.170697 1174.35613,357.126628 1174.35613,344.28298 L1174.35613,289.219728 C1174.44319,288.371672 1174.13177,287.530614 1173.50755,286.92801 C1172.88333,286.325405 1172.01211,286.02476 1171.13364,286.10881 L1161.46615,286.10881 C1160.58768,286.02476 1159.71646,286.325405 1159.09224,286.92801 C1158.46802,287.530614 1158.1566,288.371672 1158.24366,289.219728 L1158.24366,345.260697 C1158.24366,367.037124 1170.12085,377.569804 1189.45582,377.569804 C1200.72238,377.831946 1211.4931,373.099719 1218.68844,364.726156 L1220.11554,372.681218 C1220.13656,373.524096 1220.52137,374.320173 1221.17701,374.877163 C1221.83266,375.434152 1222.69952,375.701406 1223.56822,375.61437 L1230.61167,375.61437 C1231.49014,375.69842 1232.36136,375.397774 1232.98558,374.79517 C1233.6098,374.192566 1233.92122,373.351508 1233.83416,372.503452 L1233.83416,289.219728 C1233.92122,288.371672 1233.6098,287.530614 1232.98558,286.92801 C1232.36136,286.325405 1231.49014,286.02476 1230.61167,286.10881 L1220.94418,286.153251 Z M1112.43821,342.327545 C1112.43821,355.660052 1103.55334,363.170697 1092.09046,363.170697 C1079.15445,363.170697 1068.1059,356.14891 1068.1059,343.305263 L1068.1059,318.195709 C1068.1059,305.529827 1079.15445,298.552482 1092.09046,298.552482 C1097.73179,298.340165 1103.19535,300.479643 1107.08931,304.425889 C1110.98328,308.372134 1112.9317,313.744151 1112.43821,319.173426 L1112.43821,342.327545 L1112.43821,342.327545 Z M1094.30017,284.153375 C1083.65114,283.789119 1073.43605,288.243186 1066.6788,296.197073 L1065.48187,288.997519 C1065.28814,287.238471 1063.67039,285.953501 1061.84506,286.10881 L1054.98575,286.10881 C1054.11143,286.04095 1053.25029,286.346844 1052.63006,286.945602 C1052.00983,287.54436 1051.69296,288.37568 1051.76326,289.219728 L1051.76326,395.87978 C1051.69296,396.723828 1052.00983,397.555147 1052.63006,398.153906 C1053.25029,398.752664 1054.11143,399.058558 1054.98575,398.990698 L1064.69927,398.990698 C1065.57359,399.058558 1066.43472,398.752664 1067.05496,398.153906 C1067.67519,397.555147 1067.99205,396.723828 1067.92176,395.87978 L1067.92176,366.859357 C1074.76144,373.854067 1084.33786,377.742385 1094.30017,377.569804 C1114.27964,377.569804 1128.36654,365.481665 1128.36654,343.305263 L1128.36654,318.195709 C1128.36654,295.974865 1114.09549,284.153375 1094.11603,284.153375 M990.121551,284.153375 C978.25869,283.976915 967.166704,289.811476 960.888928,299.5302 C956.285365,289.219728 946.75599,284.153375 934.280335,284.153375 C923.71996,284.077991 913.701493,288.66013 907.07328,296.597048 L905.646175,288.997519 C905.626453,288.157718 905.240199,287.365027 904.58264,286.814874 C903.92508,286.264721 903.057397,286.008293 902.193503,286.10881 L895.150052,286.10881 C894.27158,286.02476 893.400357,286.325405 892.77614,286.92801 C892.151923,287.530614 891.840494,288.371672 891.927559,289.219728 L891.927559,372.503452 C891.840494,373.351508 892.151923,374.192566 892.77614,374.79517 C893.400357,375.397774 894.27158,375.69842 895.150052,375.61437 L904.817534,375.61437 C905.696006,375.69842 906.56723,375.397774 907.191447,374.79517 C907.815664,374.192566 908.127092,373.351508 908.040028,372.503452 L908.040028,321.528835 C907.83551,315.419579 910.246857,309.49877 914.706571,305.159833 C919.166286,300.820897 925.280499,298.447036 931.610269,298.596924 C941.507929,298.596924 948.137059,304.241019 948.137059,317.084666 L948.137059,372.503452 C948.064844,373.355925 948.38767,374.195464 949.018591,374.795962 C949.649512,375.39646 950.523653,375.696168 951.405589,375.61437 L961.07307,375.61437 C961.947391,375.68223 962.808526,375.376336 963.428759,374.777577 C964.048992,374.178819 964.365858,373.3475 964.295564,372.503452 L964.295564,321.528835 C964.093137,315.451074 966.479648,309.558765 970.898781,305.225457 C975.317913,300.89215 981.383523,298.496489 987.681663,298.596924 C997.533287,298.596924 1004.02431,304.241019 1004.02431,317.084666 L1004.02431,372.503452 C1003.93725,373.351508 1004.24867,374.192566 1004.87289,374.79517 C1005.49711,375.397774 1006.36833,375.69842 1007.2468,375.61437 L1017.00636,375.61437 C1017.88068,375.68223 1018.74181,375.376336 1019.36205,374.777577 C1019.98228,374.178819 1020.29914,373.3475 1020.22885,372.503452 L1020.22885,316.062508 C1020.22885,294.463847 1008.35166,284.153375 990.397765,284.153375 M817.395878,364.148414 C807.129934,364.148414 799.672162,359.704246 799.672162,350.504816 L799.672162,349.527099 C799.672162,341.349828 806.945791,336.194592 821.032693,336.194592 L844.64897,336.194592 L844.64897,347.482781 C844.64897,356.060027 832.127279,364.059531 817.395878,364.059531 M825.498149,284.064492 C800.869088,284.064492 789.176039,297.663649 788.393433,308.596304 C788.393433,309.529579 789.59036,310.151763 791.80007,310.151763 L800.086483,310.151763 C801.729452,310.128266 803.182205,309.11637 803.723297,307.618587 C805.933007,302.330026 812.377995,297.485882 824.255187,297.485882 C837.559483,297.485882 844.64897,304.28546 844.64897,317.129108 L844.64897,324.328662 L821.032693,324.328662 C797.462452,324.328662 784.204191,333.483649 784.204191,350.415933 L784.204191,351.215883 C784.204191,368.148166 796.679846,377.480921 816.060845,377.480921 C827.230702,377.819931 838.041366,373.64861 845.891932,365.970524 L847.088858,372.592335 C847.109879,373.435212 847.494685,374.23129 848.150329,374.78828 C848.805973,375.345269 849.672835,375.612523 850.54153,375.525487 L857.584981,375.525487 C858.463453,375.609536 859.334676,375.308891 859.958893,374.706287 C860.583111,374.103682 860.894539,373.262625 860.807475,372.414568 L860.807475,318.195709 C860.807475,296.774815 848.285784,284.153375 825.544184,284.153375 M716.715962,249.133325 C690.291512,249.133325 678,262.465832 678,284.686676 L678,341.92757 C678,364.148414 690.291512,377.480921 716.715962,377.480921 C743.140412,377.480921 755.616067,364.148414 755.616067,341.92757 L755.616067,340.016578 C755.703131,339.168521 755.391703,338.327464 754.767486,337.724859 C754.143269,337.122255 753.272046,336.82161 752.393573,336.905659 L742.726092,336.905659 C741.847619,336.82161 740.976396,337.122255 740.352179,337.724859 C739.727962,338.327464 739.416533,339.168521 739.503598,340.016578 L739.503598,343.038612 C739.503598,356.682211 731.631505,363.304022 716.715962,363.304022 C701.800419,363.304022 693.974363,356.371119 693.974363,343.038612 L693.974363,283.7534 C693.974363,270.109802 701.662312,263.532432 716.577855,263.532432 C731.493399,263.532432 739.365491,270.109802 739.365491,283.7534 L739.365491,286.464343 C739.278427,287.312399 739.589855,288.153457 740.214072,288.756061 C740.838289,289.358666 741.709512,289.659311 742.587985,289.575261 L752.255466,289.575261 C753.133939,289.659311 754.005162,289.358666 754.629379,288.756061 C755.253596,288.153457 755.565024,287.312399 755.47796,286.464343 L755.47796,284.553351 C755.47796,262.332506 743.002305,249 716.577855,249" id="Shape" fill="#006287"></path>
            <path d="M1585.69794,73.9950771 C1574.59666,73.7508622 1563.98296,78.5379241 1556.83748,87.0119196 L1555.41736,79.0191216 C1555.24786,77.1929782 1553.63092,75.8461569 1551.79835,76.0046949 L1544.97263,76.0046949 C1544.09845,75.9183163 1543.2315,76.2272924 1542.61033,76.8465942 C1541.98917,77.4658961 1541.67927,78.330259 1541.76591,79.2018141 L1541.76591,164.793263 C1541.68159,165.668254 1541.99053,166.535511 1542.60952,167.161465 C1543.22851,167.787418 1544.0939,168.107701 1544.97263,168.036055 L1554.59278,168.036055 C1555.4715,168.107701 1556.33689,167.787418 1556.95588,167.161465 C1557.57487,166.535511 1557.88381,165.668254 1557.7995,164.793263 L1557.7995,111.995123 C1557.7995,96.6032773 1569.66435,88.7931718 1583.08675,88.7931718 C1594.35607,88.7931718 1600.95275,94.8220252 1600.95275,108.02156 L1600.95275,164.793263 C1600.86843,165.668254 1601.17737,166.535511 1601.79636,167.161465 C1602.41535,167.787418 1603.28074,168.107701 1604.15947,168.036055 L1613.77962,168.036055 C1614.65834,168.107701 1615.52374,167.787418 1616.14273,167.161465 C1616.76172,166.535511 1617.07065,165.668254 1616.98634,164.793263 L1616.98634,107.016751 C1616.98634,84.8196093 1605.16729,73.9950771 1585.69794,73.9950771 M1473.14216,88.7931718 C1487.98468,88.7931718 1496.04728,95.8268341 1496.04728,109.62012 L1496.04728,134.42063 C1496.04728,148.12257 1488.21373,155.201905 1473.14216,155.201905 C1458.07058,155.201905 1450.64932,148.031224 1450.64932,134.42063 L1450.64932,109.62012 C1450.64932,95.9181803 1458.29963,88.7931718 1473.14216,88.7931718 M1473.14216,73.9950771 C1446.84707,73.9950771 1434.61574,87.6970166 1434.61574,110.533582 L1434.61574,133.370148 C1434.61574,156.206714 1446.84707,169.908654 1473.14216,169.908654 C1499.43724,169.908654 1511.85182,156.206714 1511.85182,133.370148 L1511.85182,110.533582 C1511.85182,87.6970166 1499.39143,73.9950771 1473.14216,73.9950771 M1403.14409,79.2018141 C1403.23073,78.330259 1402.92083,77.4658961 1402.29967,76.8465942 C1401.67851,76.2272924 1400.81155,75.9183163 1399.93738,76.0046949 L1390.27141,76.0046949 C1389.39724,75.9183163 1388.53029,76.2272924 1387.90912,76.8465942 C1387.28796,77.4658961 1386.97806,78.330259 1387.0647,79.2018141 L1387.0647,164.793263 C1386.98038,165.668254 1387.28932,166.535511 1387.90831,167.161465 C1388.5273,167.787418 1389.39269,168.107701 1390.27141,168.036055 L1399.89157,168.036055 C1400.77029,168.107701 1401.63568,167.787418 1402.25467,167.161465 C1402.87366,166.535511 1403.1826,165.668254 1403.09828,164.793263 L1403.09828,79.2018141 L1403.14409,79.2018141 Z M1404.74745,43.805137 C1404.83409,42.9335819 1404.52419,42.069219 1403.90303,41.4499171 C1403.28187,40.8306153 1402.41491,40.5216392 1401.54074,40.6080178 L1388.71387,40.6080178 C1387.83969,40.5216392 1386.97274,40.8306153 1386.35158,41.4499171 C1385.73041,42.069219 1385.42051,42.9335819 1385.50715,43.805137 L1385.50715,56.5936139 C1385.42051,57.4651691 1385.73041,58.3295319 1386.35158,58.9488338 C1386.97274,59.5681357 1387.83969,59.8771117 1388.71387,59.7907331 L1401.54074,59.7907331 C1402.41491,59.8771117 1403.28187,59.5681357 1403.90303,58.9488338 C1404.52419,58.3295319 1404.83409,57.4651691 1404.74745,56.5936139 L1404.74745,43.9878295 L1404.74745,43.805137 Z M1357.01317,155.201905 C1356.74499,154.369111 1356.11144,153.703146 1355.29148,153.392139 C1354.47152,153.081132 1353.55419,153.158853 1352.79863,153.603346 C1349.16759,155.290716 1345.21464,156.178636 1341.20864,156.206714 C1333.97062,156.206714 1329.75608,151.639401 1329.75608,142.824487 L1329.75608,90.8027896 L1347.80531,90.8027896 C1348.67949,90.8891681 1349.54644,90.5801921 1350.1676,89.9608902 C1350.78877,89.3415883 1351.09867,88.4772255 1351.01203,87.6056704 L1351.01203,79.2018141 C1351.09867,78.330259 1350.78877,77.4658961 1350.1676,76.8465942 C1349.54644,76.2272924 1348.67949,75.9183163 1347.80531,76.0046949 L1329.75608,76.0046949 L1329.75608,56.4109214 C1329.90124,55.4739434 1329.52402,54.5323649 1328.77135,53.9529281 C1328.01868,53.3734914 1327.00957,53.2478191 1326.13707,53.6248603 L1316.51691,55.588805 C1314.82918,55.8244102 1313.61001,57.3188954 1313.72249,59.0142899 L1313.72249,75.9590218 L1298.87997,75.9590218 C1298.00235,75.8749568 1297.13249,76.1829702 1296.50466,76.8001072 C1295.87682,77.4172443 1295.55558,78.280046 1295.62744,79.156141 L1295.62744,87.5599972 C1295.55558,88.4360922 1295.87682,89.298894 1296.50466,89.916031 C1297.13249,90.533168 1298.00235,90.8411814 1298.87997,90.7571164 L1313.72249,90.7571164 L1313.72249,141.591312 C1313.72249,158.992775 1322.88454,170 1339.97176,170 C1346.37541,169.877128 1352.65729,168.233071 1358.29586,165.204321 C1359.13555,164.942317 1359.79868,164.295363 1360.07964,163.46407 C1360.36059,162.632776 1360.22539,161.717626 1359.71598,161.002393 L1356.87574,155.201905 L1357.01317,155.201905 Z M1228.97353,156.206714 C1218.75784,156.206714 1211.29077,151.639401 1211.29077,142.230736 L1211.29077,141.225927 C1211.29077,132.822071 1218.52879,127.523987 1232.59254,127.523987 L1256.04739,127.523987 L1256.04739,139.124963 C1256.04739,147.939877 1243.63281,156.115368 1228.97353,156.115368 M1236.99032,73.9037308 C1212.52765,73.9037308 1200.89185,87.9253823 1200.06726,99.1152996 C1200.06726,100.120108 1201.30414,100.713859 1203.50303,100.713859 L1211.61144,100.713859 C1213.25543,100.717361 1214.71547,99.6670638 1215.23045,98.1104907 C1217.42935,92.7210611 1223.88859,87.7426897 1235.70763,87.7426897 C1248.9468,87.7426897 1255.95576,94.7306789 1255.95576,107.930214 L1255.95576,115.329261 L1232.50092,115.329261 C1209.00026,115.329261 1195.85272,124.737926 1195.85272,142.13939 L1195.85272,142.915833 C1195.85272,160.317296 1208.31311,169.908654 1227.55341,169.908654 C1238.7217,170.355238 1249.5628,166.094772 1257.42169,158.170659 L1258.65857,164.975956 C1258.65215,165.84296 1259.02049,166.670738 1259.66949,167.247845 C1260.31849,167.824952 1261.18531,168.0955 1262.04853,167.990382 L1269.0575,167.990382 C1269.93622,168.062028 1270.80161,167.741745 1271.4206,167.115792 C1272.03959,166.489838 1272.34853,165.62258 1272.26421,164.74759 L1272.26421,109.026369 C1272.26421,87.0119196 1259.84964,73.9950771 1237.17356,73.9950771 M1157.69278,75.9590218 C1156.81861,75.8726432 1155.95165,76.1816192 1155.33049,76.8009211 C1154.70933,77.420223 1154.39943,78.2845858 1154.48606,79.156141 L1154.48606,89.3412494 L1130.80216,151.365362 L1107.34732,89.3412494 L1107.34732,79.2018141 C1107.43395,78.330259 1107.12405,77.4658961 1106.50289,76.8465942 C1105.88173,76.2272924 1105.01477,75.9183163 1104.1406,76.0046949 L1094.52045,76.0046949 C1093.64283,75.9206299 1092.77297,76.2286434 1092.14514,76.8457804 C1091.5173,77.4629174 1091.19606,78.3257191 1091.26792,79.2018141 L1091.26792,89.0215374 C1091.23556,90.3326471 1091.51829,91.6324484 1092.0925,92.8124074 L1120.99877,165.432687 C1121.39602,167.051574 1122.90428,168.150464 1124.57197,168.036055 L1137.03236,168.036055 C1138.65417,168.157463 1140.14901,167.157596 1140.65137,165.615379 L1169.74088,92.8124074 C1170.30099,91.6291229 1170.56806,90.3290871 1170.51965,89.0215374 L1170.51965,79.2018141 C1170.60629,78.330259 1170.29638,77.4658961 1169.67522,76.8465942 C1169.05406,76.2272924 1168.1871,75.9183163 1167.31293,76.0046949 L1157.69278,75.9590218 Z M1025.85088,88.7474986 C1040.6934,88.7474986 1048.48115,95.7811609 1048.48115,109.574447 L1048.48115,134.42063 C1048.48115,148.12257 1040.6934,155.201905 1025.85088,155.201905 C1011.00836,155.201905 1003.35805,148.031224 1003.35805,134.42063 L1003.35805,109.62012 C1003.35805,95.9181803 1011.00836,88.7931718 1025.85088,88.7931718 M1025.85088,73.9950771 C999.555801,73.9950771 987.324464,87.6970166 987.324464,110.533582 L987.324464,133.370148 C987.324464,156.206714 999.555801,169.908654 1025.85088,169.908654 C1052.14597,169.908654 1064.56054,156.206714 1064.56054,133.370148 L1064.56054,110.533582 C1064.56054,87.6970166 1052.10016,73.9950771 1025.85088,73.9950771 M926.259402,73.9950771 C915.158125,73.7508622 904.54443,78.5379241 897.398946,87.0119196 L895.978828,79.0191216 C895.809328,77.1929782 894.192384,75.8461569 892.359818,76.0046949 L885.534091,76.0046949 C884.659919,75.9183163 883.792962,76.2272924 883.1718,76.8465942 C882.550639,77.4658961 882.240736,78.330259 882.327374,79.2018141 L882.327374,164.793263 C882.243056,165.668254 882.551994,166.535511 883.170984,167.161465 C883.789974,167.787418 884.655366,168.107701 885.534091,168.036055 L895.200054,168.036055 C896.071122,168.09351 896.923602,167.766968 897.532006,167.142803 C898.14041,166.518638 898.443447,165.659728 898.360961,164.793263 L898.360961,111.995123 C898.360961,96.6032773 910.225815,88.7931718 923.648218,88.7931718 C934.871729,88.7931718 941.514215,94.8220252 941.514215,108.02156 L941.514215,164.793263 C941.429898,165.668254 941.738836,166.535511 942.357826,167.161465 C942.976816,167.787418 943.842208,168.107701 944.720933,168.036055 L954.341085,168.036055 C955.223262,168.105644 956.091733,167.786411 956.717476,167.162541 C957.343219,166.538671 957.66341,165.672799 957.593613,164.793263 L957.593613,107.016751 C957.593613,84.8196093 945.728758,73.9950771 926.259402,73.9950771 M819.933814,73.9950771 C808.832537,73.7508622 798.218842,78.5379241 791.073358,87.0119196 L789.65324,79.0191216 C789.48374,77.1929782 787.866796,75.8461569 786.03423,76.0046949 L779.208503,76.0046949 C778.338463,75.9349548 777.481543,76.249325 776.864347,76.8646742 C776.24715,77.4800233 775.931836,78.3343779 776.001786,79.2018141 L776.001786,164.793263 C775.917468,165.668254 776.226406,166.535511 776.845396,167.161465 C777.464386,167.787418 778.329778,168.107701 779.208503,168.036055 L788.874466,168.036055 C789.753191,168.107701 790.618583,167.787418 791.237573,167.161465 C791.856562,166.535511 792.1655,165.668254 792.081183,164.793263 L792.081183,111.995123 C792.081183,96.6032773 803.900227,88.7931718 817.32263,88.7931718 C828.591952,88.7931718 835.188627,94.8220252 835.188627,108.02156 L835.188627,164.793263 C835.10431,165.668254 835.413248,166.535511 836.032238,167.161465 C836.651228,167.787418 837.51662,168.107701 838.395345,168.036055 L848.015497,168.036055 C848.894222,168.107701 849.759614,167.787418 850.378604,167.161465 C850.997594,166.535511 851.306532,165.668254 851.222215,164.793263 L851.222215,107.016751 C851.222215,84.8196093 839.40317,73.9950771 819.933814,73.9950771 M719.151267,54.8123618 L741.002755,54.8123618 C741.876927,54.8987403 742.743885,54.5897643 743.365046,53.9704624 C743.986207,53.3511605 744.296111,52.4867977 744.209473,51.6152425 L744.209473,43.2113863 C744.296111,42.3398312 743.986207,41.4754683 743.365046,40.8561664 C742.743885,40.2368646 741.876927,39.9278885 741.002755,40.0142671 L681.449432,40.0142671 C680.57526,39.9278885 679.708302,40.2368646 679.087141,40.8561664 C678.46598,41.4754683 678.156076,42.3398312 678.242714,43.2113863 L678.242714,51.6152425 C678.156076,52.4867977 678.46598,53.3511605 679.087141,53.9704624 C679.708302,54.5897643 680.57526,54.8987403 681.449432,54.8123618 L703.11768,54.8123618 L703.11768,153.237961 L681.22038,153.237961 C680.354906,153.153699 679.496571,153.45683 678.87727,154.065457 C678.257969,154.674084 677.94161,155.5254 678.013663,156.389407 L678.013663,164.793263 C677.929346,165.668254 678.238284,166.535511 678.857274,167.161465 C679.476263,167.787418 680.341655,168.107701 681.22038,168.036055 L740.773704,168.036055 C741.652429,168.107701 742.517821,167.787418 743.136811,167.161465 C743.755801,166.535511 744.064739,165.668254 743.980422,164.793263 L743.980422,156.389407 C744.052475,155.5254 743.736116,154.674084 743.116815,154.065457 C742.497513,153.45683 741.639179,153.153699 740.773704,153.237961 L718.922215,153.237961 L718.922215,54.8123618 L719.151267,54.8123618 Z" id="Shape" fill="#006287"></path>
            <path d="M557.052015,413.930006 L234.417694,3.58969509 C232.502979,1.04815245 229.421872,-0.292472265 226.291431,0.0538658996 C223.160991,0.400204065 220.435651,2.38322854 219.103486,5.28399165 L111.003197,226.870507 C109.852081,229.138142 109.683759,231.791214 110.538792,234.190401 C111.393826,236.589589 113.194673,238.517314 115.507376,239.509044 L546.10686,428.262839 C547.253733,428.729252 548.475101,428.977594 549.710203,428.995508 C553.266099,429.108461 556.554317,427.083218 558.102355,423.826708 C559.650393,420.570198 559.168255,416.692465 556.871848,413.930006 L557.052015,413.930006 Z M519.937582,396.483331 L131.767461,226.366797 L229.102763,26.5771782 L519.937582,396.483331 Z" id="Shape" fill="#FFD100"></path>
            <path d="M345.401102,285.290829 L70.4784903,62.1360405 C67.9069745,59.9929938 64.3779928,59.4131649 61.2574997,60.6209868 C58.1370066,61.8288087 55.9147382,64.6347237 55.4508626,67.9526527 L0.134441597,418.195802 C-0.332141887,420.902625 0.429021088,423.676945 2.21113651,425.765031 C3.99325193,427.853118 6.61124135,429.038115 9.35384509,428.999064 C10.4856207,428.982393 11.607039,428.779623 12.6728304,428.397955 L342.865767,301.309595 C346.047839,300.177882 348.357491,297.394573 348.886117,294.054607 C349.414743,290.714641 348.07775,287.352498 345.401102,285.290829 Z M321.061877,289.630207 L21.4312637,405.039179 L71.3082366,86.9258878 L321.061877,289.630207 Z" id="Shape" fill="#74C6C7"></path>
            <path d="M505.494625,62.0511149 C502.547192,59.637317 498.430832,59.325216 495.161163,61.2676354 L114.78052,283.545378 C112.466212,284.812079 110.806273,287.030402 110.228334,289.628866 C109.656855,292.163657 110.169353,294.82491 111.639512,296.956703 L329.006383,614.957206 C330.72159,617.493407 333.572654,619 336.608533,618.966777 C337.077908,619.011074 337.550335,619.011074 338.01971,618.966777 C341.515584,618.433961 344.39074,615.900441 345.394251,612.468506 L508.590111,72.0520003 C509.712756,68.3910264 508.480157,64.4087507 505.494625,62.0511149 Z M484.099352,89.2885492 L333.513047,588.503251 L132.761654,294.698439 L484.190396,89.2885492 L484.099352,89.2885492 Z" id="Shape" fill="#006287"></path>
            <polygon id="Path" fill="#FFD100" points="221.97619 10 109.281385 221.624033 109 222.147531 126.02381 230 238.718615 18.3323419 239 17.8524688 221.97619 10"></polygon>
            <polygon id="Path" fill="#74C6C7" points="186.620064 339 149.800427 351.947883 149 352.241042 161.646745 369 198.199573 356.149837 199 355.856678 186.620064 339"></polygon>
        </g>
    </g>
</svg>