<svg width="4178" height="1636" viewBox="0 0 4178 1636" fill="none" xmlns="http://www.w3.org/2000/svg">
<path d="M1858.72 929.546V787.38L1859.34 368.1C1851.9 159.262 1683.95 1.85909 1475.1 0H1062.36H913.011C637.85 0 362.069 0 86.9072 0C86.9072 0 64.5968 0 53.4416 1.23939C20.5957 7.43636 2.00379 27.2667 0.144593 60.7303C-1.71461 94.1939 14.3984 116.503 46.0048 125.179C60.8784 128.277 75.752 129.517 90.6256 128.897C90.6256 128.897 606.243 128.897 864.052 128.897C876.447 128.277 888.841 128.897 901.236 129.517C934.082 133.235 958.252 161.741 956.392 194.585C955.773 235.485 927.885 258.414 876.447 258.414C682.47 258.414 488.494 258.414 294.518 258.414C249.277 258.414 222.629 283.201 222.009 321.623C221.389 360.044 249.277 386.071 293.278 386.071C663.878 386.071 1424.29 391.648 1434.82 391.029C1606.49 391.029 1588.52 552.15 1473.87 552.15H1260.06C1029.52 552.15 799.6 552.15 569.059 552.15C539.932 552.15 513.903 557.727 498.41 584.994C471.761 631.471 506.466 681.667 566.58 682.286C674.414 682.906 781.628 682.286 889.461 682.906C931.603 682.906 957.012 708.314 957.012 746.735C957.012 783.917 930.364 809.944 889.461 811.183C852.897 811.803 816.952 810.564 780.388 811.803C740.106 812.423 711.598 840.309 712.218 876.252C712.837 912.194 740.725 939.461 781.628 940.08C800.839 940.7 817.572 942.559 834.305 953.714C938.42 1023.74 1042.53 1092.53 1147.27 1161.31C1258.82 1235.06 1370.99 1308.18 1483.16 1381.3L1861.82 1635.38V1356.52C1861.82 1323.05 1864.3 1288.35 1853.76 1256.13C1819.06 1145.82 1737.25 1087.57 1649.87 1035.51C1603.39 1007.63 1495.64 940.08 1495.64 940.08H1825.25C1835.17 939.461 1857.48 943.179 1858.72 929.546ZM2544.76 1635.38H2306.79L2204.53 1368.29H2136.98V1635.38H1922.55V936.362H2287.57C2368.14 936.362 2430.73 954.953 2475.35 992.755C2519.97 1030.56 2542.28 1080.13 2542.28 1142.1C2542.9 1179.28 2534.23 1215.85 2517.5 1248.69C2500.76 1279.67 2467.92 1306.94 2418.34 1330.49L2544.76 1635.38ZM2136.98 1218.32H2228.7C2255.35 1218.32 2277.04 1212.75 2293.77 1201.59C2309.89 1190.44 2319.8 1171.85 2318.56 1152.02C2318.56 1107.4 2291.29 1085.09 2236.14 1085.09H2136.98V1218.32ZM2860.21 936.362V1635.38H2645.78V936.362H2860.21ZM3587.15 936.362L3370.25 1635.38H3151.48L2924.66 936.362H3150.86L3261.17 1317.48C3268.61 1339.78 3275.43 1362.09 3281.01 1383.78L3409.91 936.362H3587.15ZM4177.14 1468.06V1635.38H3651.61V936.362H4177.14V1097.48H3861.7V1199.11H4116.41V1354.04H3861.7V1468.06H4177.14Z" fill="#4F4F4F"/>
</svg>
